<svg width="75" height="75" viewBox="0 0 75 75" stroke="#F5F5F5" stroke-opacity="0.46" stroke-width="3" fill="none" xmlns="http://www.w3.org/2000/svg">
<path d="M33.0625 30.8479H35.281C35.8694 30.8479 36.4336 31.0816 36.8497 31.4977C37.2657 31.9137 37.4995 32.478 37.4995 33.0664V50.8149C37.4995 51.4032 37.7332 51.9675 38.1493 52.3836C38.5653 52.7997 39.1296 53.0334 39.718 53.0334H41.9364M37.4995 21.9736H37.5438"  stroke-linecap="round" stroke-linejoin="round"/>
<path d="M43.6663 72.4644C52.9386 70.8287 61.1813 65.5764 66.5812 57.8631C71.981 50.1497 74.0957 40.6072 72.46 31.3346C70.8243 22.0621 65.5722 13.8191 57.8592 8.41904C50.1461 3.019 40.6038 0.90424 31.3315 2.53999C22.0598 4.17573 13.8177 9.42775 8.41822 17.1407C3.01877 24.8536 0.904308 34.3956 2.54 43.6676C4.1757 52.9395 9.42756 61.182 17.1402 66.5816C24.8529 71.9812 34.3946 74.1002 43.6663 72.4644Z"/>
</svg>
