<svg width="36" height="15" viewBox="0 0 36 15" fill="none" xmlns="http://www.w3.org/2000/svg">
<path d="M27.9226 13.3294L10.9 13.3294C10.6613 13.3294 10.4324 13.4172 10.2636 13.5735C10.0948 13.7298 10 13.9417 10 14.1628C10 14.3838 10.0948 14.5957 10.2636 14.752C10.4324 14.9083 10.6613 14.9961 10.9 14.9961L27.9226 14.9961C28.1613 14.9961 28.3902 14.9083 28.559 14.752C28.7278 14.5957 28.8226 14.3838 28.8226 14.1628C28.8226 13.9417 28.7278 13.7298 28.559 13.5735C28.3902 13.4172 28.1613 13.3294 27.9226 13.3294ZM4.9 8.33333L31.9 8.33333C32.1387 8.33333 32.3676 8.24553 32.5364 8.08925C32.7052 7.93297 32.8 7.72101 32.8 7.5C32.8 7.27898 32.7052 7.06702 32.5364 6.91074C32.3676 6.75446 32.1387 6.66666 31.9 6.66666L4.9 6.66666C4.66131 6.66666 4.43239 6.75446 4.2636 6.91074C4.09482 7.06702 4 7.27898 4 7.5C4 7.72101 4.09482 7.93297 4.2636 8.08925C4.43239 8.24554 4.66131 8.33333 4.9 8.33333ZM0.9 1.66666L35.1 1.66666C35.3387 1.66666 35.5676 1.57886 35.7364 1.42258C35.9052 1.2663 36 1.05434 36 0.833328C36 0.612314 35.9052 0.400352 35.7364 0.244072C35.5676 0.0877915 35.3387 -4.71056e-06 35.1 -4.68969e-06L0.9 -1.69983e-06C0.661307 -1.67897e-06 0.432383 0.0877946 0.263602 0.244075C0.0948207 0.400356 -1.25747e-06 0.612317 -1.23815e-06 0.833331C-1.21883e-06 1.05435 0.0948207 1.26631 0.263602 1.42259C0.432383 1.57887 0.661307 1.66666 0.9 1.66666Z" fill="#566A7F" fill-opacity="0.5"/>
</svg>
