<svg width="36" height="15" viewBox="0 0 36 15" fill="none" xmlns="http://www.w3.org/2000/svg">
<path d="M0.9 1.66667H35.1C35.3387 1.66667 35.5676 1.57887 35.7364 1.42259C35.9052 1.26631 36 1.05435 36 0.833333C36 0.61232 35.9052 0.400358 35.7364 0.244078C35.5676 0.0877975 35.3387 0 35.1 0H0.9C0.661305 0 0.432387 0.0877975 0.263604 0.244078C0.0948213 0.400358 0 0.61232 0 0.833333C0 1.05435 0.0948213 1.26631 0.263604 1.42259C0.432387 1.57887 0.661305 1.66667 0.9 1.66667ZM35.1 6.66667H8.1C7.8613 6.66667 7.63239 6.75446 7.4636 6.91074C7.29482 7.06702 7.2 7.27899 7.2 7.5C7.2 7.72101 7.29482 7.93298 7.4636 8.08926C7.63239 8.24554 7.8613 8.33333 8.1 8.33333H35.1C35.3387 8.33333 35.5676 8.24554 35.7364 8.08926C35.9052 7.93298 36 7.72101 36 7.5C36 7.27899 35.9052 7.06702 35.7364 6.91074C35.5676 6.75446 35.3387 6.66667 35.1 6.66667ZM35.1 13.3333H0.9C0.661305 13.3333 0.432387 13.4211 0.263604 13.5774C0.0948213 13.7337 0 13.9457 0 14.1667C0 14.3877 0.0948213 14.5996 0.263604 14.7559C0.432387 14.9122 0.661305 15 0.9 15H35.1C35.3387 15 35.5676 14.9122 35.7364 14.7559C35.9052 14.5996 36 14.3877 36 14.1667C36 13.9457 35.9052 13.7337 35.7364 13.5774C35.5676 13.4211 35.3387 13.3333 35.1 13.3333Z" fill="#566A7F" fill-opacity="0.5"/>
</svg>
