<svg width="36" height="15" viewBox="0 0 36 15" fill="none" xmlns="http://www.w3.org/2000/svg">
<path d="M35.1 13.3333L0.900001 13.3333C0.661308 13.3333 0.432384 13.4211 0.263603 13.5774C0.0948218 13.7337 -9.21739e-08 13.9457 -7.28523e-08 14.1667C-5.35307e-08 14.3877 0.0948219 14.5996 0.263603 14.7559C0.432384 14.9122 0.661308 15 0.900002 15L35.1 15C35.3387 15 35.5676 14.9122 35.7364 14.7559C35.9052 14.5996 36 14.3877 36 14.1667C36 13.9457 35.9052 13.7337 35.7364 13.5774C35.5676 13.4211 35.3387 13.3333 35.1 13.3333ZM0.900001 8.33334L27.9 8.33333C28.1387 8.33333 28.3676 8.24554 28.5364 8.08926C28.7052 7.93298 28.8 7.72101 28.8 7.5C28.8 7.27899 28.7052 7.06702 28.5364 6.91074C28.3676 6.75446 28.1387 6.66667 27.9 6.66667L0.900001 6.66667C0.661308 6.66667 0.432384 6.75447 0.263603 6.91075C0.0948212 7.06703 -6.74992e-07 7.27899 -6.55671e-07 7.5C-6.36349e-07 7.72102 0.0948213 7.93298 0.263603 8.08926C0.432384 8.24554 0.661308 8.33334 0.900001 8.33334ZM0.9 1.66667L35.1 1.66667C35.3387 1.66667 35.5676 1.57887 35.7364 1.42259C35.9052 1.26631 36 1.05435 36 0.833334C36 0.61232 35.9052 0.400358 35.7364 0.244078C35.5676 0.0877972 35.3387 1.01149e-06 35.1 1.03235e-06L0.9 4.02221e-06C0.661307 4.04308e-06 0.432383 0.0878003 0.263602 0.244081C0.0948207 0.400361 -1.25781e-06 0.612323 -1.23849e-06 0.833337C-1.21917e-06 1.05435 0.0948207 1.26631 0.263602 1.42259C0.432383 1.57887 0.661307 1.66667 0.9 1.66667Z" fill="#566A7F" fill-opacity="0.5"/>
</svg>
