<svg width="12" height="14" viewBox="0 0 11 14" fill="none"  stroke-width="0.58" xmlns="http://www.w3.org/2000/svg" stroke="#566a7f" >
<path d="M10.7909 10.3516C10.6176 10.7592 10.4037 11.1479 10.1525 11.5116C9.81701 11.9953 9.54212 12.3301 9.33054 12.5159C9.00217 12.8209 8.64985 12.9777 8.27359 12.9864C8.00326 12.9864 7.67692 12.9085 7.2973 12.7507C6.91697 12.5939 6.56668 12.5157 6.24643 12.5159C5.91096 12.5157 5.55072 12.5939 5.16573 12.7507C4.78033 12.9082 4.46911 12.991 4.23206 12.999C3.87081 13.0146 3.51058 12.8535 3.15136 12.5159C2.92182 12.3136 2.63516 11.967 2.29136 11.4759C1.9224 10.9518 1.6192 10.3432 1.38175 9.65008C1.12745 8.90136 1.0002 8.17604 1 7.4741C1 6.66959 1.1721 5.97657 1.5163 5.39504C1.78663 4.92837 2.14707 4.55987 2.59761 4.28951C3.27343 3.88397 3.53524 3.88151 4.05945 3.87259C4.34622 3.87259 4.72249 3.96243 5.19008 4.13874C5.65646 4.31597 5.9554 4.40479 6.08691 4.4052C6.18494 4.4052 6.51767 4.30059 7.08146 4.09136C7.61441 3.89772 8.06495 3.8168 8.4331 3.84859C9.43192 3.93013 10.1826 4.32828 10.6816 5.04519C9.78819 5.59268 9.34607 6.35811 9.3552 7.34148C9.36312 8.10701 9.63801 8.74455 10.1781 9.25008C10.4168 9.48096 10.6954 9.66575 11 9.7953C10.9363 9.98304 10.8668 10.1686 10.7909 10.3516ZM8.50008 1.24C8.49967 1.84061 8.28323 2.4004 7.85074 2.91937C7.32896 3.53567 6.69789 3.89197 6.01324 3.83597C6.00404 3.76044 5.99946 3.68439 5.99954 3.60828C5.99954 3.03229 6.24765 2.41568 6.68845 1.91168C6.90865 1.6563 7.18832 1.444 7.52744 1.27477C7.86617 1.10759 8.18622 1.016 8.4876 1C8.49612 1.08 8.50018 1.16 8.49977 1.24H8.50008Z" stroke-linecap="round" stroke-linejoin="round"/>
</svg>
