<svg width="20" height="23" viewBox="0 0 20 23" fill="none" stroke="#3A78F4" stroke-width="2" xmlns="http://www.w3.org/2000/svg">
<path d="M10.3945 2.62749C10.5301 2.54574 10.6799 2.44387 10.8433 2.31867C11.1702 2.04991 11.4175 1.77444 11.595 1.50268C11.2139 1.698 10.9328 1.91775 10.7352 2.14739L10.3945 2.62749ZM10.3945 2.62749C10.4909 2.45906 10.6045 2.29918 10.7352 2.1474L10.3945 2.62749Z"/>
<path d="M10.2893 8.29302C8.65938 8.29302 7.52774 7 5.91996 7C4.31223 7 1 8.32553 1 12.9017C1 17.4779 3.9413 20.4264 4.27028 20.7707C4.59921 21.115 5.36003 22 6.53871 22C7.71745 22 9.00788 21.1594 10.2893 21.1594C11.5707 21.1594 13.1836 22 14.2365 22C15.2895 22 15.7226 21.615 16.4392 20.9509C17.1558 20.2868 18.5226 18.2602 19 17.0438C18.2137 16.624 16.1298 15.4843 16.1298 12.9017C16.1298 11.1801 16.8312 9.74972 18.2341 8.61083C17.3138 7.53696 16.2463 7 15.0318 7C13.2099 7 11.9192 8.29302 10.2893 8.29302Z" stroke-linejoin="round"/>
</svg>
