<svg xmlns="http://www.w3.org/2000/svg" width="35" height="35" viewBox="0 0 29 29" fill="none">
<rect x="0.841797" y="0.649902" width="28" height="28" rx="14" fill="#FFD600"/>
<path d="M14.8456 7.6499C14.2811 7.6499 13.892 8.02471 13.892 8.58324L13.892 17.2919L13.9607 18.8866L12.1527 16.9171L10.4286 15.2709C10.2531 15.1092 10.0243 14.999 9.74962 14.999C9.23086 14.999 8.8418 15.3664 8.8418 15.8809C8.8418 16.1234 8.94097 16.3512 9.13932 16.5423L14.1361 21.3633C14.3192 21.547 14.5862 21.6499 14.8456 21.6499C15.105 21.6499 15.3644 21.547 15.5475 21.3633L20.5443 16.5423C20.7426 16.3512 20.8418 16.1234 20.8418 15.8809C20.8418 15.3664 20.4527 14.999 19.934 14.999C19.6593 14.999 19.4305 15.1092 19.255 15.2709L17.5386 16.9171L15.7305 18.8866L15.7916 17.2919L15.7916 8.58324C15.7916 8.02471 15.4101 7.6499 14.8456 7.6499Z" fill="black"/>
</svg>