<svg width="12" height="14" viewBox="0 0 12 14"  fill="#007AFF" xmlns="http://www.w3.org/2000/svg">
<path d="M6.00382 -5.24203e-07C5.43929 -5.73556e-07 5.05022 0.374803 5.05022 0.933333L5.05022 9.64199L5.11888 11.2367L3.31087 9.26719L1.58678 7.621C1.41132 7.45932 1.18245 7.34908 0.90782 7.34908C0.389066 7.34908 5.49318e-07 7.71653 5.04345e-07 8.23097C4.83143e-07 8.47349 0.099174 8.70131 0.297521 8.89239L5.29434 13.7134C5.47743 13.8971 5.74444 14 6.00381 14C6.26319 14 6.52257 13.8971 6.70566 13.7134L11.7025 8.89239C11.9008 8.70131 12 8.47349 12 8.23097C12 7.71654 11.6109 7.34908 11.0922 7.34908C10.8175 7.34908 10.5887 7.45932 10.4132 7.621L8.69676 9.26719L6.88875 11.2367L6.94978 9.64199L6.94978 0.933333C6.94978 0.374803 6.56834 -4.74851e-07 6.00382 -5.24203e-07Z"/>
</svg>
