<svg viewBox="0 0 15 23" width="14" height="23" fill="none" xmlns="http://www.w3.org/2000/svg">
    <path fill="#636365"
        d="M12.918 11.3711C12.918 10.9727 12.7656 10.6328 12.4492 10.3281L3.30859 1.38672C3.0625 1.12891 2.73437 1 2.35937 1C1.59765 1 0.999998 1.58594 0.999998 2.35938C0.999998 2.73438 1.15234 3.07422 1.41015 3.33203L9.64844 11.3711L1.41016 19.4102C1.15234 19.6797 1 20.0195 1 20.3945C1 21.1563 1.59766 21.7422 2.35938 21.7422C2.73438 21.7422 3.0625 21.6133 3.30859 21.3555L12.4492 12.4141C12.7656 12.1094 12.9062 11.7695 12.918 11.3711Z" />
    <path fill="#676769" fill-rule="evenodd" clip-rule="evenodd"
        d="M13.918 11.3858L13.9175 11.4005C13.8982 12.0565 13.6505 12.644 13.146 13.1313L4.01838 22.06C3.56508 22.5269 2.97085 22.7422 2.35938 22.7422C1.05676 22.7422 -8.93748e-08 21.7199 -2.05239e-07 20.3945C-2.62996e-07 19.7339 0.272146 19.1532 0.687514 18.7189L0.699424 18.7065L8.21659 11.3711L0.702995 4.03919C0.270271 3.60647 -1.72444e-06 3.01693 -1.78192e-06 2.35938C-1.89831e-06 1.028 1.05104 1.12486e-06 2.35937 1.01048e-06C2.97085 9.57027e-07 3.56508 0.215272 4.01838 0.682151L13.146 9.61086C13.6349 10.083 13.918 10.6741 13.918 11.3711L13.918 11.3858ZM12.4492 10.3281L3.30859 1.38672C3.0625 1.12891 2.73437 1 2.35937 1C1.59765 1 0.999998 1.58594 0.999998 2.35938C0.999998 2.73438 1.15234 3.07422 1.41015 3.33203L9.64844 11.3711L1.41016 19.4102C1.15234 19.6797 1 20.0195 1 20.3945C1 21.1563 1.59766 21.7422 2.35937 21.7422C2.73437 21.7422 3.0625 21.6133 3.30859 21.3555L12.4492 12.4141C12.7656 12.1094 12.9062 11.7695 12.918 11.3711C12.918 10.9727 12.7656 10.6328 12.4492 10.3281Z" />
</svg>