<svg viewBox="0 0 15 23" width="14" height="23" xmlns="http://www.w3.org/2000/svg">
    <path
        d="M1 11.6206C1 12.019 1.1523 12.3589 1.4688 12.6636L10.6094 21.605C10.8555 21.8628 11.1836 21.9917 11.5586 21.9917C12.3203 21.9917 12.918 21.4058 12.918 20.6323C12.918 20.2573 12.7656 19.9175 12.5078 19.6597L4.2695 11.6206L12.5078 3.58151C12.7656 3.31201 12.918 2.97221 12.918 2.59721C12.918 1.83541 12.3203 1.24951 11.5586 1.24951C11.1836 1.24951 10.8555 1.37841 10.6094 1.63621L1.4688 10.5776C1.1523 10.8823 1.0117 11.2222 1 11.6206Z"
    />
    <path fill-rule="evenodd" clip-rule="evenodd"
        d="M0 11.6059L0.000400543 11.5912C0.0197005 10.9352 0.2674 10.3477 0.7719 9.86041L9.8996 0.931711C10.3529 0.464811 10.9471 0.249512 11.5586 0.249512C12.8612 0.249512 13.918 1.27181 13.918 2.59721C13.918 3.25781 13.6458 3.83851 13.2305 4.27281L13.2185 4.28521L5.7014 11.6206L13.215 18.9525C13.6477 19.3852 13.918 19.9748 13.918 20.6323C13.918 21.9637 12.8669 22.9917 11.5586 22.9917C10.9471 22.9917 10.3529 22.7764 9.8996 22.3095L0.7719 13.3808C0.2831 12.9087 0 12.3176 0 11.6206V11.6059ZM1.4688 12.6636L10.6094 21.605C10.8555 21.8628 11.1836 21.9917 11.5586 21.9917C12.3203 21.9917 12.918 21.4058 12.918 20.6323C12.918 20.2573 12.7656 19.9175 12.5078 19.6597L4.2695 11.6206L12.5078 3.58151C12.7656 3.31201 12.918 2.97221 12.918 2.59721C12.918 1.83541 12.3203 1.24951 11.5586 1.24951C11.1836 1.24951 10.8555 1.37841 10.6094 1.63621L1.4688 10.5776C1.1523 10.8823 1.0117 11.2222 1 11.6206C1 12.019 1.1523 12.3589 1.4688 12.6636Z"
        fill="none" />
</svg>