<svg xmlns="http://www.w3.org/2000/svg" width="29" height="28" viewBox="0 0 29 29" >
  <rect x="0.46875" width="28" height="28" rx="14" />
  <path fill="currentColor" stroke='none' d="M21.4687 14.0038C21.4687 13.4393 21.0939 13.0502 20.5354 13.0502L11.8268 13.0502L10.232 13.1189L12.2016 11.3109L13.8478 9.58678C14.0094 9.41132 14.1197 9.18245 14.1197 8.90782C14.1197 8.38907 13.7522 8 13.2378 8C12.9953 8 12.7674 8.09917 12.5764 8.29752L7.75536 13.2943C7.57164 13.4774 7.46875 13.7444 7.46875 14.0038C7.46875 14.2632 7.57164 14.5226 7.75536 14.7057L12.5764 19.7025C12.7674 19.9008 12.9953 20 13.2378 20C13.7522 20 14.1197 19.6109 14.1197 19.0922C14.1197 18.8175 14.0094 18.5887 13.8478 18.4132L12.2016 16.6968L10.232 14.8887L11.8268 14.9498L20.5354 14.9498C21.0939 14.9498 21.4687 14.5683 21.4687 14.0038Z" />
</svg>