<svg width="95" height="77" viewBox="0 0 95 77" stroke="#F5F5F5" stroke-opacity="0.46" stroke-width="3" fill="none" xmlns="http://www.w3.org/2000/svg">
<path d="M27.439 2V22.8838C27.4086 24.1026 26.9029 25.2611 26.03 26.1122C25.1571 26.9633 23.9862 27.4394 22.767 27.439H2M27.439 2H88.6656C89.8847 1.99962 91.0557 2.47578 91.9286 3.32685C92.8015 4.17791 93.3071 5.33647 93.3376 6.5552V70.328C93.3376 71.5671 92.8454 72.7554 91.9692 73.6316C91.093 74.5078 89.9047 75 88.6656 75H6.672C5.43291 75 4.24457 74.5078 3.3684 73.6316C2.49223 72.7554 2 71.5671 2 70.328V27.439M27.439 2L2 27.439M39.8666 60.4467H81.0035M39.8666 16.4365H81.0035M39.8666 38.4416H81.0035M21.856 40.0768C24.5572 40.0768 27.1478 41.1499 29.0579 43.0599C30.9679 44.97 32.041 47.5605 32.041 50.2618C32.041 52.963 30.9679 55.5536 29.0579 57.4636C27.1478 59.3737 24.5572 60.4467 21.856 60.4467C20.541 60.4254 19.2431 60.1449 18.0366 59.6212C16.8302 59.0975 15.739 58.341 14.8254 57.3949C13.9118 56.4487 13.1939 55.3317 12.7128 54.1077C12.2316 52.8836 11.9967 51.5767 12.0214 50.2618C11.9967 48.9468 12.2316 47.6399 12.7128 46.4159C13.1939 45.1918 13.9118 44.0748 14.8254 43.1287C15.739 42.1826 16.8302 41.426 18.0366 40.9023C19.2431 40.3786 20.541 40.0981 21.856 40.0768Z"  stroke-linecap="round" stroke-linejoin="round"/>
</svg>
