<svg width="37" height="33" viewBox="0 0 37 33" fill="white" xmlns="http://www.w3.org/2000/svg">
<path fill-rule="evenodd" clip-rule="evenodd" d="M7.75 13.0802C7.75 12.2088 8.48694 11.5024 9.39598 11.5024H28.0417C28.9507 11.5024 29.6877 12.2088 29.6877 13.0802C29.6877 13.9516 28.9507 14.658 28.0417 14.658H9.39598C8.48694 14.658 7.75 13.9516 7.75 13.0802Z" />
<path fill-rule="evenodd" clip-rule="evenodd" d="M26.0313 0.516113C27.0409 0.516113 27.8594 0.991086 27.8594 1.57698V5.76634C27.8594 6.35224 27.0409 6.82721 26.0313 6.82721C25.0216 6.82721 24.2031 6.35224 24.2031 5.76634V1.57698C24.2031 0.991086 25.0216 0.516113 26.0313 0.516113Z" />
<path fill-rule="evenodd" clip-rule="evenodd" d="M11.4063 0.516113C12.4159 0.516113 13.2344 0.991086 13.2344 1.57698V5.76634C13.2344 6.35224 12.4159 6.82721 11.4063 6.82721C10.3966 6.82721 9.57812 6.35224 9.57812 5.76634V1.57698C9.57812 0.991086 10.3966 0.516113 11.4063 0.516113Z" />
<path fill-rule="evenodd" clip-rule="evenodd" d="M3.30635 4.28819C5.20477 2.8396 7.84698 2.16455 10.8563 2.16455H26.5977C29.6138 2.16455 32.2574 2.83907 34.1531 4.2893C36.0606 5.74859 37.009 7.83912 37.0003 10.3386C37.0003 10.3382 37.0003 10.3389 37.0003 10.3386V23.9563C37.0003 26.4561 36.0474 28.5486 34.1399 30.0103C32.2434 31.4635 29.6001 32.1424 26.5815 32.1424H10.8563C7.83768 32.1424 5.1921 31.4489 3.29549 29.9733C1.39119 28.4917 0.4375 26.3738 0.4375 23.8434V10.3361C0.4375 7.83525 1.39596 5.74592 3.30635 4.28819ZM5.44114 6.09097C4.28196 6.97547 3.53604 8.35009 3.53604 10.3361V23.8434C3.53604 25.8709 4.28673 27.2807 5.45199 28.1872C6.62495 29.0999 8.41417 29.6551 10.8563 29.6551H26.5815C29.0399 29.6551 30.8313 29.1069 32.0005 28.2111C33.1585 27.3238 33.9017 25.945 33.9017 23.9563V10.3361V10.3325C33.909 8.34561 33.1693 6.97261 32.0154 6.08985C30.8495 5.19785 29.0585 4.65185 26.5977 4.65185H10.8563C8.40488 4.65185 6.61229 5.19732 5.44114 6.09097Z" />
</svg>
