<svg width="154" height="164" viewBox="0 0 154 164" fill="none" xmlns="http://www.w3.org/2000/svg">
<path d="M83.91 66.8842C82.5003 66.8842 81.2864 66.377 80.2683 65.3626C79.2502 64.3482 78.7411 63.1415 78.7411 61.7425C78.7411 60.3435 79.2502 59.134 80.2683 58.114C81.2864 57.094 82.5003 56.5868 83.91 56.5924C85.3197 56.5979 86.5336 57.1052 87.5517 58.114C88.5698 59.1228 89.0788 60.3323 89.0788 61.7425C89.0788 63.1526 88.5698 64.3593 87.5517 65.3626C86.5336 66.3658 85.3197 66.873 83.91 66.8842ZM79.7145 41.8026V0H88.1055V41.8026H79.7145ZM44.5394 164C40.9984 164 38.014 162.791 35.5862 160.372C33.1584 157.953 31.9473 154.982 31.9529 151.459C31.9585 147.937 33.1696 144.963 35.5862 142.539C38.014 140.125 40.9984 138.918 44.5394 138.918C48.0804 138.918 51.062 140.125 53.4842 142.539C55.9064 144.952 57.1203 147.926 57.1259 151.459C57.1315 154.993 55.9176 157.964 53.4842 160.372C51.0508 162.779 48.0692 163.989 44.5394 164ZM123.281 164C119.745 164 116.764 162.791 114.336 160.372C111.908 157.953 110.694 154.982 110.694 151.459C110.694 147.937 111.908 144.963 114.336 142.539C116.764 140.125 119.745 138.918 123.281 138.918C126.816 138.918 129.8 140.125 132.234 142.539C134.656 144.958 135.867 147.931 135.867 151.459C135.867 154.982 134.656 157.953 132.234 160.372C129.806 162.791 126.822 164 123.281 164ZM0 16.721V8.36052H20.5412L54.9107 80.3948H110.585C111.553 80.3948 112.414 80.1523 113.169 79.6674C113.919 79.1825 114.562 78.5137 115.099 77.6609L144.434 25.0816H154L122.248 82.2257C121.035 84.2601 119.457 85.857 117.516 87.0163C115.575 88.1756 113.441 88.7553 111.114 88.7553H51.1851L40.99 107.399C40.1286 108.687 40.1006 110.08 40.9061 111.58C41.7117 113.079 42.9228 113.831 44.5394 113.837H135.867V122.197H44.5394C39.6447 122.197 35.9834 120.149 33.5556 116.052C31.1278 111.956 31.0775 107.817 33.4046 103.637L46.0246 81.2308L15.1709 16.721H0Z"  fill-opacity="0.25"/>
</svg>
