<svg width="14" height="15" viewBox="0 0 14 15"  fill="#566A7F" xmlns="http://www.w3.org/2000/svg">
<path d="M3.9306 15C3.61811 15 3.35473 14.8894 3.14048 14.6681C2.92623 14.4469 2.81935 14.1752 2.81984 13.853C2.82034 13.5308 2.92722 13.2588 3.14048 13.0371C3.35473 12.8163 3.61811 12.706 3.9306 12.706C4.24309 12.706 4.50622 12.8163 4.71997 13.0371C4.93373 13.2578 5.04086 13.5298 5.04135 13.853C5.04185 14.1762 4.93472 14.4479 4.71997 14.6681C4.50523 14.8884 4.2421 14.999 3.9306 15ZM10.8795 15C10.5675 15 10.3044 14.8894 10.0901 14.6681C9.87585 14.4469 9.76873 14.1752 9.76873 13.853C9.76873 13.5308 9.87585 13.2588 10.0901 13.0371C10.3044 12.8163 10.5675 12.706 10.8795 12.706C11.1915 12.706 11.4549 12.8163 11.6696 13.0371C11.8834 13.2583 11.9902 13.5303 11.9902 13.853C11.9902 14.1752 11.8834 14.4469 11.6696 14.6681C11.4553 14.8894 11.192 15 10.8795 15ZM1.33884 1.52937H0.370257C0.265105 1.52937 0.177232 1.49266 0.106638 1.41925C0.036043 1.34584 0.000498741 1.25485 5.07194e-06 1.14626C-0.000488597 1.03768 0.0350556 0.946936 0.106638 0.874036C0.17822 0.801137 0.266093 0.764687 0.370257 0.764687H1.43362C1.55161 0.764687 1.65898 0.795274 1.75574 0.856449C1.8525 0.917623 1.92507 1.00429 1.97345 1.11644L4.8466 7.35318H9.7591C9.84451 7.35318 9.92053 7.33101 9.98718 7.28666C10.0533 7.24231 10.1101 7.18113 10.1575 7.10313L12.6426 2.48522C12.6762 2.42659 12.7206 2.37995 12.7759 2.34528C12.8312 2.31062 12.8922 2.29354 12.9588 2.29405C13.0995 2.29405 13.2054 2.35701 13.2765 2.48293C13.3471 2.60884 13.3478 2.73553 13.2787 2.86297L10.7877 7.51988C10.6805 7.70647 10.5411 7.85278 10.3693 7.95881C10.1975 8.06485 10.0094 8.11787 9.80501 8.11787H4.51708L3.61736 9.8231C3.54134 9.94087 3.53887 10.0683 3.60996 10.2054C3.68105 10.3426 3.78793 10.4114 3.9306 10.4119H11.62C11.7251 10.4119 11.8133 10.4484 11.8843 10.5213C11.9549 10.5947 11.9902 10.6857 11.9902 10.7943C11.9902 10.9028 11.9549 10.9936 11.8843 11.0665C11.8138 11.1394 11.7256 11.1761 11.62 11.1766H3.9306C3.49864 11.1766 3.17553 10.9892 2.96128 10.6146C2.74703 10.2399 2.74258 9.86134 2.94795 9.479L4.06167 7.42965L1.33884 1.52937ZM7.40504 6.11746C7.27619 6.11746 7.16808 6.07234 7.0807 5.98211C6.99332 5.89188 6.94963 5.78023 6.94963 5.64718C6.94963 5.51412 6.99332 5.40223 7.0807 5.31148C7.16808 5.22074 7.27619 5.17588 7.40504 5.1769C7.53389 5.17792 7.64225 5.22304 7.73012 5.31225C7.81799 5.40146 7.86144 5.51336 7.86045 5.64794C7.85946 5.78253 7.81577 5.89417 7.72938 5.98287C7.64299 6.07158 7.53488 6.11644 7.40504 6.11746ZM7.40504 3.82341C7.2994 3.82341 7.21128 3.78671 7.14068 3.7133C7.07009 3.63989 7.03479 3.54915 7.03479 3.44107V0.382346C7.03479 0.273761 7.07033 0.183019 7.14142 0.110119C7.21251 0.0372198 7.30063 0.000515025 7.40578 5.23754e-06C7.51093 -0.00050455 7.59881 0.0362002 7.6694 0.110119C7.74 0.184039 7.77529 0.274781 7.77529 0.382346V3.44107C7.77529 3.54966 7.73975 3.6404 7.66866 3.7133C7.59757 3.7862 7.50945 3.8229 7.4043 3.82341"/>
</svg>
