<svg width="14" height="12" viewBox="0 0 14 12" fill="#7557E9" xmlns="http://www.w3.org/2000/svg">
<path d="M5.99334 12C5.16578 12 4.388 11.8422 3.66 11.5267C2.932 11.2107 2.29756 10.7829 1.75667 10.2433C1.21578 9.70378 0.788004 9.06933 0.473337 8.34C0.15867 7.61067 0.000892629 6.83133 3.74006e-06 6.002C-0.000885149 5.17267 0.15667 4.39267 0.47267 3.662C0.78867 2.93133 1.21623 2.296 1.75534 1.756C2.29445 1.216 2.92934 0.788223 3.66 0.472668C4.39067 0.157112 5.17067 -0.000443507 6 9.37646e-07C6.68223 9.37646e-07 7.32778 0.105556 7.93667 0.316668C8.54556 0.527779 9.10089 0.822223 9.60267 1.2L9.12267 1.696C8.68356 1.36978 8.20045 1.11645 7.67334 0.936001C7.14623 0.756445 6.58845 0.666668 6 0.666668C4.52223 0.666668 3.26378 1.18622 2.22467 2.22533C1.18556 3.26445 0.666226 4.52267 0.66667 6C0.667115 7.47733 1.18667 8.73578 2.22534 9.77533C3.264 10.8149 4.52223 11.3342 6 11.3333C6.38978 11.3333 6.76845 11.2916 7.136 11.208C7.50356 11.124 7.85556 11.008 8.192 10.86L8.692 11.364C8.28756 11.5693 7.85889 11.7267 7.406 11.836C6.95312 11.9453 6.48245 12 5.994 12M11 11V9H9V8.33333H11V6.33333H11.6667V8.33333H13.6667V9H11.6667V11H11ZM5.04134 8.60533L2.66934 6.23333L3.14134 5.76133L5.04134 7.66133L11.528 1.17067L12 1.642L5.04134 8.60533Z" />
</svg>
