<svg width="35" height="22" viewBox="0 0 35 22" fill="none" xmlns="http://www.w3.org/2000/svg">
<line x1="11" y1="2.25" x2="35" y2="2.25" stroke="#566A7F" stroke-opacity="0.5" stroke-width="1.5"/>
<line x1="11" y1="12.25" x2="35" y2="12.25" stroke="#566A7F" stroke-opacity="0.5" stroke-width="1.5"/>
<line x1="11" y1="21.25" x2="35" y2="21.25" stroke="#566A7F" stroke-opacity="0.5" stroke-width="1.5"/>
<rect width="8" height="8" rx="1" fill="#566A7F" fill-opacity="0.5"/>
<rect y="14" width="8" height="8" rx="1" fill="#566A7F" fill-opacity="0.5"/>
<rect x="2" y="2" width="4" height="4" rx="1" fill="white"/>
<path d="M5.68426 16.0775C5.61375 16.0382 5.5362 16.0133 5.45606 16.004C5.37591 15.9948 5.29473 16.0015 5.21716 16.0237C5.13959 16.0459 5.06715 16.0832 5.00396 16.1334C4.94078 16.1837 4.8881 16.2459 4.84892 16.3166L3.70863 18.3724L3.05602 17.7186C2.99936 17.6598 2.93158 17.613 2.85665 17.5807C2.78171 17.5485 2.70111 17.5315 2.61956 17.5308C2.538 17.5301 2.45712 17.5456 2.38164 17.5766C2.30615 17.6075 2.23757 17.6532 2.1799 17.711C2.12223 17.7688 2.07662 17.8375 2.04574 17.9131C2.01486 17.9887 1.99931 18.0697 2.00002 18.1514C2.00073 18.2332 2.01768 18.3139 2.04987 18.389C2.08206 18.464 2.12885 18.5319 2.18751 18.5887L3.41595 19.8194C3.53204 19.936 3.68866 20 3.8502 20L3.93527 19.9938C4.02942 19.9807 4.11922 19.9457 4.19761 19.8919C4.276 19.838 4.34085 19.7666 4.38703 19.6834L5.92258 16.9144C5.96178 16.8437 5.98672 16.7661 5.99596 16.6858C6.0052 16.6055 5.99856 16.5242 5.97643 16.4465C5.9543 16.3688 5.91711 16.2962 5.86698 16.2329C5.81685 16.1696 5.75476 16.1168 5.68426 16.0775Z" fill="white"/>
</svg>
