<svg width="15" height="13" viewBox="0 0 15 13" fill="none" xmlns="http://www.w3.org/2000/svg">
<path d="M11.6156 0.96575C12.3169 1.13626 12.9374 1.51677 13.38 2.04784C13.8227 2.57891 14.0627 3.23062 14.0625 3.90114V9.10267C14.6316 8.70736 15 8.07797 15 7.36883V3.90114C15 2.8665 14.5555 1.87423 13.7644 1.14262C12.9732 0.411012 11.9001 0 10.7812 0H4.21875C3.45187 0 2.77125 0.3407 2.34375 0.866921H10.7812C11.0628 0.866624 11.3432 0.89984 11.6156 0.96575ZM2.34375 1.73384C1.72215 1.73384 1.12601 1.96218 0.686468 2.36863C0.24693 2.77508 0 3.32634 0 3.90114V9.10267C0 9.67748 0.24693 10.2287 0.686468 10.6352C1.12601 11.0416 1.72215 11.27 2.34375 11.27H2.8125V12.1326C2.8124 12.2927 2.86025 12.4497 2.95077 12.5862C3.04128 12.7227 3.17091 12.8334 3.32528 12.9059C3.47965 12.9785 3.65273 13.0101 3.82534 12.9972C3.99794 12.9843 4.16331 12.9275 4.30313 12.833L6.61594 11.27H10.7812C11.4029 11.27 11.999 11.0416 12.4385 10.6352C12.8781 10.2287 13.125 9.67748 13.125 9.10267V3.90114C13.125 3.32634 12.8781 2.77508 12.4385 2.36863C11.999 1.96218 11.4029 1.73384 10.7812 1.73384H2.34375ZM0.9375 3.90114C0.9375 3.55626 1.08566 3.2255 1.34938 2.98164C1.6131 2.73777 1.97079 2.60076 2.34375 2.60076H10.7812C11.1542 2.60076 11.5119 2.73777 11.7756 2.98164C12.0393 3.2255 12.1875 3.55626 12.1875 3.90114V9.10267C12.1875 9.44755 12.0393 9.77831 11.7756 10.0222C11.5119 10.266 11.1542 10.4031 10.7812 10.4031H6.30937L3.75 12.1326V10.4031H2.34375C1.97079 10.4031 1.6131 10.266 1.34938 10.0222C1.08566 9.77831 0.9375 9.44755 0.9375 9.10267V3.90114Z" fill="#566A7F"/>
</svg>
