<svg width="65" height="65" viewBox="0 0 65 65" stroke="#F5F5F5" stroke-opacity="0.46" stroke-width="3" fill="none" xmlns="http://www.w3.org/2000/svg">
<path d="M24.6857 13.5103C23.975 11.1464 23.4871 8.72108 23.2283 6.26621C22.9695 3.81963 20.8345 1.99954 18.3714 1.99954H6.95792C4.02334 1.99954 1.76141 4.53514 2.02025 7.45817C4.62345 36.9127 28.0852 60.3777 57.5431 62.9793C60.4661 63.2381 63.0001 60.9844 63.0001 58.0499V47.8728C63.0001 44.1585 61.1816 42.0317 58.735 41.7729C56.2802 41.5141 53.8549 41.0262 51.4909 40.3155C50.0892 39.8997 48.6011 39.8712 47.1845 40.2332C45.768 40.5952 44.4759 41.334 43.4456 42.3713L38.5607 47.2562C29.7504 42.4829 22.5183 35.2508 17.745 26.4406L22.6299 21.5557C23.6672 20.5253 24.406 19.2332 24.768 17.8167C25.13 16.4001 25.1016 14.912 24.6857 13.5103Z"  stroke-linecap="round" stroke-linejoin="round"/>
</svg>
