<svg width="17" height="13" viewBox="0 0 17 12" fill="none"  xmlns="http://www.w3.org/2000/svg" stroke="black">
<path d="M8.445 0.445312C4.33313 0.445312 1 3.60555 1 7.50414C1 9.35002 1.63766 11.1874 2.86125 12.4453H14.0288C15.252 11.1874 15.89 9.35002 15.89 7.50414C15.89 3.60555 12.5569 0.445312 8.445 0.445312Z"  stroke-width="0.8" stroke-linecap="round" stroke-linejoin="round"/>
<path d="M8.44603 9.9749C9.26838 9.9749 9.93503 9.34283 9.93503 8.56313C9.93503 7.78344 9.26838 7.15137 8.44603 7.15137C7.62368 7.15137 6.95703 7.78344 6.95703 8.56313C6.95703 9.34283 7.62368 9.9749 8.44603 9.9749Z"  stroke-width="0.8" stroke-linecap="round" stroke-linejoin="round"/>
<path d="M8.44312 5.03398V7.15163M8.44312 2.21045V2.91633M2.85938 7.85751H3.60387M4.34837 4.3281L4.87474 4.82716M13.2824 7.85751H14.0269M12.1656 4.82716L12.692 4.3281"  stroke-width="0.8" stroke-linecap="round" stroke-linejoin="round"/>
</svg>
