<svg
            width="22"
            height="21"
            viewBox="0 0 22 21"
            fill="none"
              stroke="#566A7F"
            xmlns="http://www.w3.org/2000/svg"
          >
            <path
              d="M11.1213 19.9119C13.8668 19.9119 16.4998 18.9242 18.4411 17.1659C20.3824 15.4076 21.4731 13.0229 21.4731 10.5363C21.4731 8.04972 20.3824 5.66498 18.4411 3.90671C16.4998 2.14843 13.8668 1.16064 11.1213 1.16064C8.37584 1.16064 5.74282 2.14843 3.80149 3.90671C1.86016 5.66498 0.769531 8.04972 0.769531 10.5363C0.769531 13.0229 1.86016 15.4076 3.80149 17.1659C5.74282 18.9242 8.37584 19.9119 11.1213 19.9119Z"
              stroke-linecap="round"
              stroke-linejoin="round"
            />
            <path
              d="M8.30078 13.4075C8.36082 14.276 8.69022 15.0804 9.21815 15.6475C9.74609 16.2147 10.4304 16.4994 11.124 16.4405C13.4014 16.4405 13.9472 14.8001 13.9472 13.4075C13.9472 12.0149 13.0061 10.5398 11.124 10.5398C9.24185 10.5398 8.30078 9.60744 8.30078 7.7074C8.31833 7.27028 8.4062 6.84214 8.55911 6.44872C8.71201 6.05529 8.92679 5.70472 9.19053 5.41808C9.45426 5.13144 9.7615 4.91465 10.0938 4.78077C10.426 4.64688 10.7765 4.59866 11.124 4.639C11.818 4.60153 12.4972 4.89854 13.0222 5.4691C13.5472 6.03967 13.8781 6.84053 13.9472 7.7074M11.124 18.2072V16.673M11.124 2.86523V4.63428"
              stroke-linecap="round"
              stroke-linejoin="round"
            />
          </svg>