<svg xmlns="http://www.w3.org/2000/svg" width="50" height="38" viewBox="0 0 50 39" fill="none">
  <g clip-path="url(#clip0_2110_1609)">
    <path fill-rule="evenodd" clip-rule="evenodd" d="M28.1186 31.998C25.4157 30.4375 24.4126 27.4175 24.4165 24.3829C24.4204 21.323 25.4227 17.9175 27.1246 14.9697C28.7897 12.0856 32.1282 7.9146 37.12 6.62887C37.9611 6.41223 38.8095 6.921 39.0151 7.76524C39.2207 8.60948 38.7055 9.46949 37.8644 9.68612C34.0971 10.6565 31.3325 13.9314 29.8309 16.5322C28.9669 18.0288 28.3303 19.6379 27.9528 21.203C29.8676 19.9744 32.3669 19.8246 34.4519 21.0284C37.4413 22.7543 38.4468 26.609 36.6979 29.6382C34.949 32.6674 31.1079 33.7239 28.1186 31.998ZM29.7019 29.2556C31.1966 30.1186 33.1171 29.5903 33.9916 28.0757C34.866 26.5611 34.3633 24.6338 32.8686 23.7708C31.3739 22.9079 29.4534 23.4361 28.5789 24.9507C27.7045 26.4653 28.2073 28.3927 29.7019 29.2556Z" fill="#12131A"/>
    <path fill-rule="evenodd" clip-rule="evenodd" d="M12.1186 31.998C9.41571 30.4375 8.41262 27.4175 8.41647 24.3829C8.42036 21.323 9.42268 17.9175 11.1246 14.9697C12.7897 12.0856 16.1282 7.9146 21.12 6.62887C21.9611 6.41223 22.8095 6.921 23.0151 7.76524C23.2207 8.60948 22.7055 9.46949 21.8644 9.68612C18.0971 10.6565 15.3325 13.9314 13.8309 16.5322C12.9669 18.0288 12.3303 19.6379 11.9528 21.203C13.8676 19.9744 16.3669 19.8246 18.4519 21.0284C21.4413 22.7543 22.4468 26.609 20.6979 29.6382C18.949 32.6674 15.1079 33.7239 12.1186 31.998ZM13.7019 29.2556C15.1966 30.1186 17.1171 29.5903 17.9916 28.0757C18.866 26.5611 18.3633 24.6338 16.8686 23.7708C15.3739 22.9079 13.4534 23.4361 12.5789 24.9507C11.7045 26.4653 12.2073 28.3927 13.7019 29.2556Z" fill="#12131A"/>
  </g>
  <defs>
    <clipPath id="clip0_2110_1609">
      <rect width="38" height="50" fill="white" transform="translate(0 38) rotate(-90)"/>
    </clipPath>
  </defs>
</svg>