<svg xmlns="http://www.w3.org/2000/svg" width="24" height="24" viewBox="0 0 24 25" fill="none">
  <path d="M4 21C4 20.4477 4.44772 20 5 20H19C19.5523 20 20 20.4477 20 21C20 21.5523 19.5523 22 19 22H5C4.44772 22 4 21.5523 4 21Z" fill="#12131A"/>
  <path d="M17.9509 2.87673C16.7793 1.70516 14.8798 1.70515 13.7083 2.87671L5.88534 10.6996C5.70251 10.8824 5.57004 11.1094 5.50079 11.3585L4.04341 16.6013C3.81417 17.4259 4.57316 18.1849 5.39782 17.9557L10.6406 16.4983C10.8897 16.4291 11.1167 16.2966 11.2995 16.1138L19.1225 8.29095C20.294 7.11938 20.2941 5.21988 19.1225 4.0483L17.9509 2.87673Z" fill="#12131A"/>
</svg>