<svg width="24" height="24" viewBox="0 0 24 24" fill="black" xmlns="http://www.w3.org/2000/svg">
<path d="M4 21C4 20.4477 4.44772 20 5 20H19C19.5523 20 20 20.4477 20 21C20 21.5523 19.5523 22 19 22H5C4.44772 22 4 21.5523 4 21Z"/>
<path fill-rule="evenodd" clip-rule="evenodd" d="M16.6535 4.58823C15.8724 3.80718 14.6061 3.80718 13.8251 4.58822L6.91897 11.4943L6.00116 15.998L10.5047 15.0801L17.4108 8.17401C18.1919 7.39297 18.1919 6.12663 17.4108 5.34558L16.6535 4.58823ZM12.4108 3.17401C13.9729 1.61192 16.5056 1.61192 18.0677 3.17401L18.825 3.93137C20.3871 5.49347 20.3871 8.02613 18.825 9.58823L11.919 16.4943C11.6415 16.7717 11.2886 16.9614 10.9042 17.0398L6.40059 17.9577C4.99604 18.244 3.7552 17.0032 4.04144 15.5986L4.95925 11.0949C5.0376 10.7104 5.22731 10.3575 5.50476 10.0801L12.4108 3.17401Z"/>
</svg>
