<svg width="38" height="39" viewBox="0 0 38 39" fill="white" xmlns="http://www.w3.org/2000/svg">
<path d="M27.6392 38.7323H10.4042C9.09089 38.7524 7.7873 38.4822 6.5706 37.938C5.35388 37.394 4.24881 36.5866 3.3208 35.564C2.25498 34.3508 1.41849 32.9171 0.859767 31.3457C0.301068 29.7744 0.0312255 28.0968 0.0658744 26.41V13.1955C-0.0195813 11.6292 0.183841 10.0601 0.66389 8.58251C1.14394 7.10496 1.89068 5.74952 2.85922 4.59777C3.82775 3.44601 4.99804 2.52173 6.29969 1.88051C7.60132 1.23932 9.00742 0.894467 10.4333 0.866699H27.614C29.0398 0.894467 30.446 1.23932 31.7475 1.88051C33.0493 2.52173 34.2194 3.44601 35.1881 4.59777C36.1566 5.74952 36.9033 7.10496 37.3833 8.58251C37.8634 10.0601 38.0668 11.6292 37.9814 13.1955V26.41C38.0151 28.0953 37.7446 29.7714 37.186 31.3413C36.6274 32.9109 35.7913 34.3433 34.7265 35.5555C33.7987 36.58 32.6931 37.3891 31.4757 37.9348C30.2583 38.4805 28.9536 38.7518 27.6392 38.7323ZM10.4294 35.5234H27.6354C28.5669 35.5411 29.4922 35.3529 30.3563 34.9695C31.2204 34.5864 32.0056 34.0158 32.6655 33.2921C33.4588 32.3762 34.0794 31.2965 34.4912 30.1152C34.9031 28.9339 35.0981 27.6747 35.0648 26.41V13.1955C35.0648 7.91141 31.9324 4.07565 27.614 4.07565H10.4333C6.11486 4.07565 2.98245 7.91141 2.98245 13.1955V26.41C2.95025 27.6732 3.14568 28.9309 3.5575 30.1107C3.96931 31.2903 4.58935 32.3688 5.38182 33.2835C6.04111 34.0068 6.82572 34.5769 7.68915 34.9603C8.55255 35.3437 9.47717 35.5321 10.4081 35.5148L10.4294 35.5234Z" />
<path d="M19.0546 23.1504C17.7945 23.1496 16.572 22.6864 15.5875 21.8362L7.59203 14.8691C7.28534 14.6017 7.08947 14.2136 7.04752 13.7901C7.00556 13.3666 7.12094 12.9425 7.36828 12.6109C7.61563 12.2794 7.97468 12.0677 8.36643 12.0223C8.75818 11.977 9.15055 12.1017 9.45724 12.3691L17.4429 19.3298C17.9026 19.727 18.4739 19.9436 19.0625 19.9436C19.6512 19.9436 20.2225 19.727 20.6822 19.3298L28.5866 12.3819C28.8921 12.1131 29.2842 11.9866 29.676 12.0301C30.0679 12.0737 30.4279 12.2838 30.6766 12.6141C30.9252 12.9445 31.0423 13.3682 31.0019 13.7918C30.9617 14.2155 30.7672 14.6046 30.4617 14.8734L22.5415 21.8341C21.5503 22.6864 20.3211 23.1504 19.0546 23.1504Z"/>
</svg>
