<svg
              width="16"
              height="16"
              viewBox="0 0 16 16"
              fill="none"
              xmlns="http://www.w3.org/2000/svg"
            >
              <path
                fill-rule="evenodd"
                clip-rule="evenodd"
                d="M15.3034 1.36571H9.51486V0L0 1.47041V14.3591L9.51486 16V13.9758H15.3034C15.4788 13.985 15.6507 13.9241 15.7813 13.8065C15.9119 13.6889 15.9906 13.5243 16 13.3487V1.9922C15.9904 1.81671 15.9117 1.6522 15.7811 1.53475C15.6505 1.4173 15.4787 1.35651 15.3034 1.36571ZM15.3949 13.4528H9.49543L9.48571 12.372H10.9069V11.1133H9.47486L9.468 10.3695H10.9069V9.11082H9.45714L9.45029 8.36703H10.9069V7.10831H9.44571V6.36453H10.9069V5.10581H9.44571V4.36202H10.9069V3.10331H9.44571V1.95902H15.3949V13.4528Z"
                fill="#20744A"
              />
              <path
                d="M12 3H14V4.22192H12V3ZM12 4.94452H14V6.16644H12V4.94452ZM12 6.88904H14V8.11096H12V6.88904ZM12 8.83356H14V10.0555H12V8.83356ZM12 10.7781H14V12H12V10.7781Z"
                fill="#20744A"
              />
              <path
                fill-rule="evenodd"
                clip-rule="evenodd"
                d="M2.12401 5.22703L3.57029 5.15704L4.47944 7.26743L5.55371 5.06999L7 5L5.2437 7.9963L7 11L5.47082 10.9129L4.43833 8.62333L3.40518 10.8259L2 10.7212L3.6323 8.06799L2.12401 5.22703Z"
                fill="white"
              />
            </svg>