<svg width="18" height="13" viewBox="0 0 18 13" fill="none" xmlns="http://www.w3.org/2000/svg">
<path d="M11.4 6.49972C11.4 7.12487 11.1471 7.72442 10.697 8.16647C10.2469 8.60852 9.6365 8.85686 8.99998 8.85686C8.36346 8.85686 7.75301 8.60852 7.30292 8.16647C6.85283 7.72442 6.59998 7.12487 6.59998 6.49972C6.59998 5.87457 6.85283 5.27502 7.30292 4.83297C7.75301 4.39092 8.36346 4.14258 8.99998 4.14258C9.6365 4.14258 10.2469 4.39092 10.697 4.83297C11.1471 5.27502 11.4 5.87457 11.4 6.49972Z" stroke="#009774" stroke-width="0.8" stroke-linecap="round" stroke-linejoin="round"/>
<path d="M1 6.5C2.28 3.28093 5.2688 1 9 1C12.7312 1 15.72 3.28093 17 6.5C15.72 9.71907 12.7312 12 9 12C5.2688 12 2.28 9.71907 1 6.5Z" stroke="#009774" stroke-width="0.8" stroke-linecap="round" stroke-linejoin="round"/>
</svg>
