<svg width="23" height="23" viewBox="0 0 23 23" fill="none" xmlns="http://www.w3.org/2000/svg">
<path fill-rule="evenodd" clip-rule="evenodd" d="M11.4792 0C5.14992 0 0 5.1144 0 11.4C0 16.998 4.08779 21.6564 9.45279 22.6116V14.9568H8.12121C7.62096 14.9568 7.21496 14.5536 7.21496 14.0568C7.21496 13.56 7.62096 13.1568 8.12121 13.1568H9.45279V11.7756C9.45279 9.46561 11.3402 7.5876 13.6602 7.5876H14.8359C15.3362 7.5876 15.7422 7.9908 15.7422 8.48761C15.7422 8.98441 15.3362 9.38761 14.8359 9.38761H13.6602C12.3395 9.38761 11.2653 10.4592 11.2653 11.7756V13.1568H14.2777C14.7779 13.1568 15.1839 13.56 15.1839 14.0568C15.1839 14.5536 14.7779 14.9568 14.2777 14.9568H11.2653V22.7892C11.3378 22.7904 11.4067 22.8 11.4792 22.8C17.8084 22.8 22.9583 17.6856 22.9583 11.4C22.9583 5.1144 17.8084 0 11.4792 0Z" fill="black"/>
</svg>
