<svg width="75" height="75" viewBox="0 0 75 75" stroke="#F5F5F5" stroke-opacity="0.46" stroke-width="3" fill="none" xmlns="http://www.w3.org/2000/svg">
<path d="M37.5 73C57.1061 73 73 57.1061 73 37.5C73 17.8939 57.1061 2 37.5 2C17.8939 2 2 17.8939 2 37.5C2 57.1061 17.8939 73 37.5 73Z"  stroke-linecap="round" stroke-linejoin="round"/>
<path d="M37.5 53.2778H37.5401V53.3179H37.5V53.2778Z"  stroke-linejoin="round"/>
<path d="M31.582 20.0893C33.1204 18.551 35.4712 17.7818 37.4829 17.7778C38.5215 17.776 39.5502 17.9792 40.51 18.3759C41.4698 18.7725 42.3419 19.3548 43.0761 20.0893C44.6145 21.6276 45.3876 23.6472 45.3876 25.6667C45.3876 27.6863 44.6184 29.7058 43.0761 31.2442C42.3419 31.9787 41.4698 32.5609 40.51 32.9576C39.5502 33.3542 38.5215 33.5575 37.4829 33.5556V41.4445"  stroke-linecap="round" stroke-linejoin="round"/>
</svg>
