<svg width="20" height="17" viewBox="0 0 20 17" fill="none" xmlns="http://www.w3.org/2000/svg">
<path d="M8.87191 0.332382C8.52347 0.248728 8.16472 0.249061 7.75783 0.24944L4.16146 0.24949C3.63431 0.249473 3.17955 0.249457 2.80497 0.280061C2.40963 0.312362 2.01641 0.383678 1.63803 0.576472C1.07354 0.864092 0.614603 1.32303 0.326983 1.88752C0.134189 2.2659 0.062873 2.65912 0.030572 3.05446C-3.10596e-05 3.42903 -1.63023e-05 3.88378 8.04846e-07 4.41091V12.088C-1.63023e-05 12.6152 -3.10596e-05 13.07 0.030572 13.4445C0.062873 13.8399 0.134189 14.2331 0.326983 14.6115C0.614603 15.176 1.07355 15.6349 1.63803 15.9225C2.01641 16.1153 2.40963 16.1866 2.80497 16.2189C3.17952 16.2495 3.63425 16.2495 4.16136 16.2495H15.8385C16.3656 16.2495 16.8205 16.2495 17.195 16.2189C17.5904 16.1866 17.9836 16.1153 18.362 15.9225C18.9265 15.6349 19.3854 15.176 19.673 14.6115C19.8658 14.2331 19.9371 13.8399 19.9694 13.4445C20 13.07 20 12.6152 20 12.0881V6.41092C20 5.88379 20 5.42903 19.9694 5.05446C19.9371 4.65912 19.8658 4.2659 19.673 3.88752C19.3854 3.32303 18.9265 2.86409 18.362 2.57647C17.9836 2.38368 17.5904 2.31236 17.195 2.28006C16.8205 2.24946 16.3657 2.24947 15.8386 2.24949L11.4142 2.24949L10.5855 1.4207C10.298 1.13272 10.0446 0.878805 9.73907 0.691571C9.47065 0.527085 9.17802 0.405872 8.87191 0.332382Z" />
</svg>
