<svg width="17" height="12" viewBox="0 0 17 12" fill="none" xmlns="http://www.w3.org/2000/svg">
<path d="M17 8.76562C17 10.3793 16.104 11.6875 14.3438 11.6875H2.65625C0.895953 11.6875 0 10.3793 0 8.76562V2.92188C0 1.3082 0.895953 0 2.65625 0H14.3438C16.104 0 17 1.3082 17 2.92188V8.76562Z" fill="#EC1C24"/>
<path fill-rule="evenodd" clip-rule="evenodd" d="M10.567 7.5228C9.95555 8.47666 8.68241 9.0783 7.3503 8.68916C6.09309 8.32101 5.22955 7.10285 5.301 5.78907C5.37059 4.46944 6.36191 3.34718 7.65019 3.11954C9.01524 2.87702 10.1117 3.60882 10.58 4.37488C10.0251 3.82929 9.37994 3.58358 8.6245 3.66991C8.03269 3.73791 7.53809 4.0054 7.15081 4.45696C6.39272 5.33937 6.42061 6.66271 7.21217 7.49544C7.66613 7.97304 8.22447 8.22299 8.88349 8.2291C9.54197 8.23388 10.1006 7.98472 10.5686 7.52413" fill="white"/>
<path d="M11.7492 4.88672L12.2884 5.38716L13.0077 5.22778L12.6977 5.89716L13.072 6.52961L12.3415 6.44169L11.853 6.99419L11.712 6.27116L11.0352 5.97791L11.6785 5.62091L11.7492 4.88672Z" fill="white"/>
</svg>
