<svg xmlns="http://www.w3.org/2000/svg" width="24" height="24" viewBox="0 0 24 25" fill="none">
  <path fill-rule="evenodd" clip-rule="evenodd" d="M3 9.4C3 7.15979 3 6.03969 3.43597 5.18404C3.81947 4.43139 4.43139 3.81947 5.18404 3.43597C6.03969 3 7.15979 3 9.4 3H14.6C16.8402 3 17.9603 3 18.816 3.43597C19.5686 3.81947 20.1805 4.43139 20.564 5.18404C21 6.03969 21 7.15979 21 9.4V14.6C21 16.8402 21 17.9603 20.564 18.816C20.1805 19.5686 19.5686 20.1805 18.816 20.564C17.9603 21 16.8402 21 14.6 21H9.4C7.15979 21 6.03969 21 5.18404 20.564C4.43139 20.1805 3.81947 19.5686 3.43597 18.816C3 17.9603 3 16.8402 3 14.6V9.4ZM6 14C6.55228 14 7 14.4477 7 15C7 15.4796 7.00054 15.7893 7.01671 16.0262C7.03227 16.2542 7.05888 16.3411 7.07612 16.3827C7.17761 16.6277 7.37229 16.8224 7.61732 16.9239C7.65893 16.9411 7.74576 16.9677 7.97376 16.9833C8.21074 16.9995 8.52038 17 9 17C9.55228 17 10 17.4477 10 18C10 18.5523 9.55228 19 9 19H8.96801C8.52936 19 8.15087 19 7.83762 18.9787C7.50779 18.9561 7.17788 18.9066 6.85195 18.7716C6.11687 18.4672 5.53284 17.8831 5.22836 17.1481C5.09336 16.8221 5.04385 16.4922 5.02135 16.1624C4.99998 15.8491 4.99999 15.4706 5 15.032L5 15C5 14.4477 5.44772 14 6 14ZM17 15C17 14.4477 17.4477 14 18 14C18.5523 14 19 14.4477 19 15V15.032C19 15.4706 19 15.8491 18.9787 16.1624C18.9561 16.4922 18.9066 16.8221 18.7716 17.1481C18.4672 17.8831 17.8831 18.4672 17.1481 18.7716C16.8221 18.9066 16.4922 18.9561 16.1624 18.9787C15.8491 19 15.4706 19 15.032 19H15C14.4477 19 14 18.5523 14 18C14 17.4477 14.4477 17 15 17C15.4796 17 15.7893 16.9995 16.0262 16.9833C16.2542 16.9677 16.3411 16.9411 16.3827 16.9239C16.6277 16.8224 16.8224 16.6277 16.9239 16.3827C16.9411 16.3411 16.9677 16.2542 16.9833 16.0262C16.9995 15.7893 17 15.4796 17 15ZM6 10C6.55228 10 7 9.55228 7 9C7 8.52038 7.00054 8.21074 7.01671 7.97376C7.03227 7.74576 7.05888 7.65893 7.07612 7.61732C7.17761 7.37229 7.37229 7.17761 7.61732 7.07612C7.65893 7.05888 7.74576 7.03227 7.97376 7.01671C8.21074 7.00054 8.52038 7 9 7C9.55228 7 10 6.55228 10 6C10 5.44772 9.55228 5 9 5L8.96801 5C8.52936 4.99999 8.15087 4.99998 7.83762 5.02135C7.50779 5.04385 7.17788 5.09336 6.85195 5.22836C6.11687 5.53284 5.53284 6.11687 5.22836 6.85195C5.09336 7.17788 5.04385 7.50779 5.02135 7.83762C4.99998 8.15087 4.99999 8.52936 5 8.968L5 9C5 9.55228 5.44772 10 6 10ZM17 9C17 9.55228 17.4477 10 18 10C18.5523 10 19 9.55228 19 9V8.96802C19 8.52937 19 8.15088 18.9787 7.83762C18.9561 7.50779 18.9066 7.17788 18.7716 6.85195C18.4672 6.11687 17.8831 5.53284 17.1481 5.22836C16.8221 5.09336 16.4922 5.04385 16.1624 5.02135C15.8491 4.99998 15.4706 4.99999 15.032 5L15 5C14.4477 5 14 5.44772 14 6C14 6.55228 14.4477 7 15 7C15.4796 7 15.7893 7.00054 16.0262 7.01671C16.2542 7.03227 16.3411 7.05888 16.3827 7.07612C16.6277 7.17761 16.8224 7.37229 16.9239 7.61732C16.9411 7.65893 16.9677 7.74576 16.9833 7.97376C16.9995 8.21074 17 8.52038 17 9Z" fill="#12131A"/>
</svg>