<svg width="13" height="15" viewBox="0 0 13 15" fill="#566A7F" xmlns="http://www.w3.org/2000/svg">
<path d="M6.65319 0.967233C6.4998 0.934286 6.31435 0.929579 6.04397 0.97194C5.85053 0.998823 5.66449 1.06973 5.49799 1.18003C5.33149 1.29033 5.18828 1.43754 5.07773 1.61206C4.85588 1.95471 4.72069 2.42444 4.67909 2.97418C4.67736 3.15304 4.64876 3.79315 4.6063 4.6479H6.4998C6.61472 4.6479 6.72493 4.69748 6.80619 4.78575C6.88744 4.87402 6.93309 4.99374 6.93309 5.11857C6.93309 5.2434 6.88744 5.36312 6.80619 5.45139C6.72493 5.53965 6.61472 5.58924 6.4998 5.58924H4.55864C4.44945 7.70727 4.29866 10.4325 4.2458 11.179V11.1818L4.2406 11.2477C4.199 11.7861 4.15047 12.4262 3.97716 13.0165C3.79257 13.6443 3.4572 14.2496 2.82459 14.6525C1.93807 15.2503 0.977022 14.9773 0.239554 14.5772C0.136703 14.5213 0.0585162 14.4233 0.0221936 14.3047C-0.014129 14.1862 -0.00561197 14.0568 0.0458708 13.9451C0.0973536 13.8334 0.187585 13.7484 0.296715 13.709C0.405846 13.6695 0.524935 13.6788 0.627786 13.7347C1.27513 14.0868 1.87221 14.1894 2.3705 13.8505L2.38176 13.843C2.78473 13.5888 3.01178 13.2057 3.1513 12.7294C3.29428 12.2436 3.33588 11.6976 3.38008 11.1272L3.38181 11.1074V11.1055C3.4338 10.359 3.58199 7.67903 3.69031 5.58924H2.16685C2.05193 5.58924 1.94172 5.53965 1.86046 5.45139C1.77921 5.36312 1.73355 5.2434 1.73355 5.11857C1.73355 4.99374 1.77921 4.87402 1.86046 4.78575C1.94172 4.69748 2.05193 4.6479 2.16685 4.6479H3.73798C3.77011 4.07152 3.79582 3.49475 3.8151 2.9177C3.8619 2.24935 4.02915 1.59511 4.36885 1.07078C4.71549 0.534214 5.23025 0.154851 5.91398 0.0409485L5.91832 0.0400073C6.25282 -0.0117668 6.544 -0.0164736 6.82304 0.0447139C7.10381 0.105901 7.34646 0.226394 7.5891 0.38454C7.6877 0.448703 7.7588 0.552784 7.78675 0.673889C7.8147 0.794993 7.79722 0.923199 7.73816 1.0303C7.67909 1.13741 7.58327 1.21464 7.47179 1.245C7.3603 1.27537 7.24228 1.25638 7.14368 1.19221C6.99412 1.08548 6.8279 1.00925 6.65319 0.967233ZM12.8727 6.66802C12.9131 6.71175 12.9451 6.76369 12.9669 6.82087C12.9888 6.87805 13 6.93935 13 7.00126C13 7.06317 12.9888 7.12447 12.9669 7.18165C12.9451 7.23884 12.9131 7.29078 12.8727 7.3345L10.0823 10.3656C10.4788 11.1432 10.8815 11.917 11.2903 12.687L11.3258 12.7548C11.3822 12.863 11.422 12.9336 11.4593 12.9901C11.5113 13.0692 11.5607 13.1257 11.6707 13.1916C11.8579 13.2264 11.9134 13.184 11.9359 13.168C11.9773 13.1342 12.0138 13.094 12.0442 13.0485C12.077 13.0038 12.1087 12.9583 12.1396 12.912C12.1609 12.8787 12.1875 12.8392 12.2193 12.7934C12.2534 12.7439 12.2962 12.7023 12.3452 12.6708C12.3941 12.6393 12.4483 12.6186 12.5047 12.6098C12.561 12.6011 12.6183 12.6045 12.6735 12.6198C12.7286 12.6352 12.7804 12.6621 12.8259 12.6992C12.8714 12.7363 12.9098 12.7828 12.9388 12.836C12.9678 12.8891 12.9868 12.948 12.9949 13.0092C13.0029 13.0704 12.9998 13.1327 12.9857 13.1926C12.9715 13.2525 12.9467 13.3087 12.9126 13.3582L12.8632 13.4316C12.7652 13.5794 12.6205 13.7987 12.4299 13.9409C12.156 14.148 11.8302 14.1931 11.435 14.1009C11.399 14.0926 11.364 14.0793 11.331 14.0614C11.1002 13.9441 10.9014 13.7637 10.7539 13.538C10.689 13.4358 10.6289 13.3303 10.5736 13.2217L10.5346 13.1473C10.1654 12.4545 9.80233 11.7579 9.44534 11.0575L6.80657 13.9239C6.72533 14.0123 6.61509 14.062 6.50011 14.0621C6.38513 14.0622 6.27482 14.0126 6.19346 13.9244C6.1121 13.8361 6.06634 13.7164 6.06626 13.5915C6.06618 13.4666 6.11178 13.3468 6.19303 13.2584L9.00598 10.2028C8.68121 9.56492 8.35189 8.92981 8.01807 8.29749C7.9379 8.11644 7.84306 7.9435 7.73469 7.7807C7.65968 7.66055 7.56224 7.55888 7.44872 7.48229C7.39585 7.46346 7.34733 7.46911 7.27107 7.52088C7.16707 7.59054 7.05528 7.72139 6.93309 7.89836C6.89895 7.94781 6.85618 7.98947 6.80722 8.02096C6.75826 8.05245 6.70406 8.07316 6.64774 8.0819C6.59141 8.09064 6.53404 8.08725 6.47892 8.07191C6.4238 8.05657 6.372 8.02958 6.32648 7.9925C6.28096 7.95541 6.24261 7.90895 6.21362 7.85576C6.18463 7.80258 6.16557 7.74371 6.15752 7.68252C6.14947 7.62134 6.1526 7.55902 6.16672 7.49915C6.18084 7.43927 6.20568 7.383 6.23982 7.33356C6.37674 7.13493 6.56739 6.8883 6.81177 6.72262C7.07348 6.54471 7.41405 6.45246 7.78669 6.61437C7.79824 6.61876 7.80922 6.6241 7.81962 6.63037C8.07786 6.77157 8.27891 6.99938 8.42796 7.21589C8.57528 7.43051 8.69487 7.66397 8.78586 7.86071C8.90285 8.0744 9.25122 8.74934 9.64292 9.51089L12.26 6.66802C12.3413 6.57979 12.4515 6.53022 12.5664 6.53022C12.6813 6.53022 12.7914 6.57979 12.8727 6.66802Z" />
</svg>
