<svg width="23" height="39" viewBox="0 0 23 39" fill="none" xmlns="http://www.w3.org/2000/svg">
<path d="M7.70323 33.15H13.4806V39H7.70323V33.15ZM11.5548 0C21.8579 0.429 26.345 10.959 20.221 18.8565C18.6225 20.8065 16.042 22.0935 14.7709 23.7315C13.4806 25.35 13.4806 27.3 13.4806 29.25H7.70323C7.70323 25.9935 7.70323 23.244 8.99352 21.294C10.2645 19.344 12.8451 18.1935 14.4435 16.9065C19.104 12.5385 17.9485 6.357 11.5548 5.85C10.0226 5.85 8.55306 6.46634 7.46959 7.56343C6.38611 8.66051 5.77742 10.1485 5.77742 11.7H0C0 8.59697 1.21738 5.62103 3.38433 3.42685C5.55129 1.23267 8.4903 0 11.5548 0Z" fill="#FCE58A"/>
</svg>
