<svg width="15" height="16" viewBox="0 0 14 16" fill="none" xmlns="http://www.w3.org/2000/svg" stroke="#566A7F">
<path d="M3.5 8.00034V5.16817C3.50781 4.61146 3.61755 4.06188 3.82294 3.55093C4.02832 3.03997 4.32532 2.57768 4.6969 2.19054C5.06848 1.8034 5.50735 1.49902 5.98836 1.29484C6.46936 1.09066 6.98306 0.990699 7.5 1.00068C8.01694 0.990699 8.53064 1.09066 9.01164 1.29484C9.49265 1.49902 9.93152 1.8034 10.3031 2.19054C10.6747 2.57768 10.9717 3.03997 11.1771 3.55093C11.3824 4.06188 11.4922 4.61146 11.5 5.16817V8.00034M9.5 13.6539C10.0304 13.6539 10.5391 13.427 10.9142 13.0231C11.2893 12.6192 11.5 12.0714 11.5 11.5002V9.07721M9.5 13.6539C9.5 14.0109 9.3683 14.3533 9.13388 14.6057C8.89946 14.8582 8.58152 15 8.25 15H6.75C6.41848 15 6.10054 14.8582 5.86612 14.6057C5.6317 14.3533 5.5 14.0109 5.5 13.6539C5.5 13.2969 5.6317 12.9545 5.86612 12.7021C6.10054 12.4496 6.41848 12.3078 6.75 12.3078H8.25C8.58152 12.3078 8.89946 12.4496 9.13388 12.7021C9.3683 12.9545 9.5 13.2969 9.5 13.6539ZM2 6.38503H3C3.13261 6.38503 3.25979 6.44176 3.35355 6.54274C3.44732 6.64371 3.5 6.78067 3.5 6.92347V10.1541C3.5 10.2969 3.44732 10.4338 3.35355 10.5348C3.25979 10.6358 3.13261 10.6925 3 10.6925H2C1.73478 10.6925 1.48043 10.5791 1.29289 10.3771C1.10536 10.1752 1 9.90125 1 9.61565V7.4619C1 7.1763 1.10536 6.90239 1.29289 6.70044C1.48043 6.49849 1.73478 6.38503 2 6.38503ZM13 10.6925H12C11.8674 10.6925 11.7402 10.6358 11.6464 10.5348C11.5527 10.4338 11.5 10.2969 11.5 10.1541V6.92347C11.5 6.78067 11.5527 6.64371 11.6464 6.54274C11.7402 6.44176 11.8674 6.38503 12 6.38503H13C13.2652 6.38503 13.5196 6.49849 13.7071 6.70044C13.8946 6.90239 14 7.1763 14 7.4619V9.61565C14 9.90125 13.8946 10.1752 13.7071 10.3771C13.5196 10.5791 13.2652 10.6925 13 10.6925Z"  stroke-width="0.58" stroke-linecap="round" stroke-linejoin="round"/>
</svg>
