<svg width="184" height="184" viewBox="0 0 184 184" fill="#566A7F" fill-opacity="0.3" xmlns="http://www.w3.org/2000/svg">
<path d="M29.0526 0H154.947C162.653 0 170.042 3.06089 175.491 8.50932C180.939 13.9577 184 21.3474 184 29.0526V154.947C184 162.653 180.939 170.042 175.491 175.491C170.042 180.939 162.653 184 154.947 184H29.0526C21.3474 184 13.9577 180.939 8.50932 175.491C3.06089 170.042 0 162.653 0 154.947V29.0526C0 21.3474 3.06089 13.9577 8.50932 8.50932C13.9577 3.06089 21.3474 0 29.0526 0ZM29.0526 9.68421C23.9158 9.68421 18.9894 11.7248 15.3571 15.3571C11.7248 18.9894 9.68421 23.9158 9.68421 29.0526V141.293L51.2295 99.6505L75.44 123.861L123.861 75.44L174.316 125.895V29.0526C174.316 23.9158 172.275 18.9894 168.643 15.3571C165.011 11.7248 160.084 9.68421 154.947 9.68421H29.0526ZM75.44 137.613L51.2295 113.402L9.68421 154.947C9.68421 160.084 11.7248 165.011 15.3571 168.643C18.9894 172.275 23.9158 174.316 29.0526 174.316H154.947C160.084 174.316 165.011 172.275 168.643 168.643C172.275 165.011 174.316 160.084 174.316 154.947V139.549L123.861 89.1916L75.44 137.613ZM53.2632 29.0526C59.6842 29.0526 65.8422 31.6034 70.3826 36.1437C74.9229 40.6841 77.4737 46.8421 77.4737 53.2632C77.4737 59.6842 74.9229 65.8422 70.3826 70.3826C65.8422 74.9229 59.6842 77.4737 53.2632 77.4737C46.8421 77.4737 40.6841 74.9229 36.1437 70.3826C31.6034 65.8422 29.0526 59.6842 29.0526 53.2632C29.0526 46.8421 31.6034 40.6841 36.1437 36.1437C40.6841 31.6034 46.8421 29.0526 53.2632 29.0526ZM53.2632 38.7368C49.4105 38.7368 45.7157 40.2673 42.9915 42.9915C40.2673 45.7157 38.7368 49.4105 38.7368 53.2632C38.7368 57.1158 40.2673 60.8106 42.9915 63.5348C45.7157 66.259 49.4105 67.7895 53.2632 67.7895C57.1158 67.7895 60.8106 66.259 63.5348 63.5348C66.259 60.8106 67.7895 57.1158 67.7895 53.2632C67.7895 49.4105 66.259 45.7157 63.5348 42.9915C60.8106 40.2673 57.1158 38.7368 53.2632 38.7368Z" />
</svg>
