<svg width="23" height="23" viewBox="0 0 23 23" fill="none" xmlns="http://www.w3.org/2000/svg">
    <path fill-rule="evenodd" clip-rule="evenodd"
        d="M11.2914 8.49609C9.4572 8.49609 7.96484 9.97569 7.96484 11.7961C7.96484 13.6165 9.4572 15.0961 11.2914 15.0961C13.1257 15.0961 14.6168 13.6165 14.6168 11.7961C14.6168 9.97569 13.1257 8.49609 11.2914 8.49609Z"
        fill="black" />
    <path fill-rule="evenodd" clip-rule="evenodd"
        d="M17.3565 7.0908C16.6678 7.0908 16.1059 6.5364 16.1059 5.856C16.1059 5.1732 16.6678 4.6188 17.3565 4.6188C18.0453 4.6188 18.6059 5.1732 18.6059 5.856C18.6059 6.5364 18.0453 7.0908 17.3565 7.0908ZM11.2907 16.896C8.45833 16.896 6.15283 14.6088 6.15283 11.796C6.15283 8.98321 8.45833 6.696 11.2907 6.696C14.1242 6.696 16.4285 8.98321 16.4285 11.796C16.4285 14.6088 14.1242 16.896 11.2907 16.896ZM16.5747 0H6.38242C2.56529 0 0 2.6664 0 6.636V16.164C0 20.1324 2.56529 22.8 6.38242 22.8H16.5735C20.3918 22.8 22.9583 20.1324 22.9583 16.164V6.636C22.9583 2.6664 20.393 0 16.5747 0Z"
        fill="black" />
</svg>