<svg width="37" height="33" viewBox="0 0 37 33" fill="white" xmlns="http://www.w3.org/2000/svg">
<path fill-rule="evenodd" clip-rule="evenodd" d="M26.6421 0.875977C32.8377 0.875977 37.0003 4.62792 37.0003 10.2101V23.0973C37.0003 28.6795 32.8377 32.4314 26.6384 32.4314H10.7921C4.59835 32.4314 0.4375 28.6795 0.4375 23.0973V10.2101C0.4375 4.62792 4.59835 0.875977 10.7921 0.875977H26.6421ZM26.6421 3.24264H10.7921C6.16873 3.24264 3.17971 5.97691 3.17971 10.2101V23.0973C3.17971 27.3305 6.16873 30.0648 10.7921 30.0648H26.6384C31.2673 30.0648 34.2581 27.3305 34.2581 23.0973V10.2101C34.2581 5.97691 31.2673 3.24264 26.6421 3.24264ZM12.9361 12.549C15.0847 12.5503 16.9007 13.7822 17.4909 15.4687L27.8774 15.4696C28.6342 15.4696 29.2485 15.9997 29.2485 16.6529V19.5765C29.2485 20.2297 28.6342 20.7599 27.8774 20.7599C27.1205 20.7599 26.5063 20.2297 26.5063 19.5765V17.8362L24.0772 17.8355L24.0781 19.5765C24.0781 20.2297 23.4639 20.7599 22.707 20.7599C21.9502 20.7599 21.3359 20.2297 21.3359 19.5765L21.335 17.8355L17.4917 17.837C16.9019 19.5254 15.0831 20.7597 12.9361 20.7597C10.3128 20.7597 8.17932 18.9169 8.17932 16.6543C8.17932 14.3902 10.3128 12.549 12.9361 12.549ZM12.9398 14.9156C11.8246 14.9156 10.9215 15.695 10.9215 16.6543C10.9215 17.6136 11.8246 18.393 12.9361 18.393C14.0458 18.393 14.9508 17.6136 14.9508 16.6543C14.9508 15.6966 14.0477 14.9172 12.9398 14.9156Z" />
</svg>
