<svg width="13" height="13" viewBox="0 0 13 13" fill="#7557E9" xmlns="http://www.w3.org/2000/svg">
<path d="M12.5667 13H0.866667C0.636812 13 0.416372 12.9087 0.253841 12.7462C0.0913093 12.5836 0 12.3632 0 12.1333V0.433333C0 0.318406 0.0456546 0.208186 0.12692 0.12692C0.208186 0.0456546 0.318406 0 0.433333 0C0.548261 0 0.658481 0.0456546 0.739746 0.12692C0.821012 0.208186 0.866667 0.318406 0.866667 0.433333V12.1333H12.5667C12.6816 12.1333 12.7918 12.179 12.8731 12.2603C12.9543 12.3415 13 12.4517 13 12.5667C13 12.6816 12.9543 12.7918 12.8731 12.8731C12.7918 12.9543 12.6816 13 12.5667 13Z" />
<path d="M3.71154 11H2.81073C2.59571 11 2.3895 10.8984 2.23746 10.7176C2.08542 10.5367 2 10.2915 2 10.0357V5.96429C2 5.70854 2.08542 5.46327 2.23746 5.28243C2.3895 5.10159 2.59571 5 2.81073 5H3.71154C3.92656 5 4.13277 5.10159 4.28481 5.28243C4.43685 5.46327 4.52227 5.70854 4.52227 5.96429V10.0357C4.52227 10.2915 4.43685 10.5367 4.28481 10.7176C4.13277 10.8984 3.92656 11 3.71154 11ZM6.95446 11H6.05365C5.83863 11 5.63242 10.8984 5.48038 10.7176C5.32833 10.5367 5.24292 10.2915 5.24292 10.0357V4.67857C5.24292 4.42283 5.32833 4.17756 5.48038 3.99672C5.63242 3.81588 5.83863 3.71429 6.05365 3.71429H6.95446C7.16948 3.71429 7.37569 3.81588 7.52773 3.99672C7.67977 4.17756 7.76519 4.42283 7.76519 4.67857V10.0357C7.76519 10.2915 7.67977 10.5367 7.52773 10.7176C7.37569 10.8984 7.16948 11 6.95446 11ZM10.1893 11H9.28846C9.07344 11 8.86723 10.8984 8.71519 10.7176C8.56315 10.5367 8.47773 10.2915 8.47773 10.0357V2.96429C8.47773 2.70854 8.56315 2.46327 8.71519 2.28243C8.86723 2.10159 9.07344 2 9.28846 2H10.1893C10.4043 2 10.6105 2.10159 10.7625 2.28243C10.9146 2.46327 11 2.70854 11 2.96429V10.0357C11 10.2915 10.9146 10.5367 10.7625 10.7176C10.6105 10.8984 10.4043 11 10.1893 11Z" />
</svg>
