<svg width="23" height="23" viewBox="0 0 23 23" fill="none" xmlns="http://www.w3.org/2000/svg">
<path fill-rule="evenodd" clip-rule="evenodd" d="M17.0158 14.9748C17.0158 15.4716 16.6098 15.8748 16.1095 15.8748C15.6093 15.8748 15.2032 15.4716 15.2032 14.9748V11.2668C15.2032 10.2216 14.349 9.37081 13.2989 9.37081C12.2489 9.37081 11.3946 10.2216 11.3946 11.2668V14.9748C11.3946 15.4716 10.9886 15.8748 10.4883 15.8748C9.98808 15.8748 9.58208 15.4716 9.58208 14.9748V11.2668C9.58208 9.22921 11.2496 7.5708 13.2989 7.5708C15.3483 7.5708 17.0158 9.22921 17.0158 11.2668V14.9748ZM6.85125 8.78281C6.351 8.78281 5.90271 8.3448 5.90271 7.848C5.90271 7.35 6.351 6.9 6.85125 6.9C7.3515 6.9 7.801 7.35 7.801 7.848C7.801 8.3448 7.3515 8.78281 6.85125 8.78281ZM7.75508 14.9748C7.75508 15.4716 7.34908 15.8748 6.84883 15.8748C6.34858 15.8748 5.94258 15.4716 5.94258 14.9748V10.8828C5.94258 10.386 6.34858 9.98281 6.84883 9.98281C7.34908 9.98281 7.75508 10.386 7.75508 10.8828V14.9748ZM11.4792 0C5.14992 0 0 5.1132 0 11.4C0 17.6856 5.14992 22.8 11.4792 22.8C17.8084 22.8 22.9583 17.6856 22.9583 11.4C22.9583 5.1132 17.8084 0 11.4792 0Z" fill="black"/>
</svg>
