<svg width="28" height="28" viewBox="0 0 28 28" fill="none" xmlns="http://www.w3.org/2000/svg">
<rect width="28" height="28" rx="14" fill="#636366"/>
<path d="M11.876 22.554C11.0059 22.3557 10.1701 22.0292 9.396 21.585M15.876 5C17.8642 5.45407 19.6392 6.56969 20.9107 8.16421C22.1821 9.75872 22.8744 11.7377 22.8744 13.777C22.8744 15.8163 22.1821 17.7953 20.9107 19.3898C19.6392 20.9843 17.8642 22.0999 15.876 22.554M6.455 18.87C5.91009 18.0771 5.49583 17.202 5.228 16.278M5 12.277C5.16 11.327 5.468 10.427 5.9 9.602L6.069 9.297M8.783 6.356C9.7192 5.71288 10.7687 5.25278 11.876 5" stroke="white" stroke-width="2" stroke-linecap="round" stroke-linejoin="round"/>
</svg>
