<svg xmlns="http://www.w3.org/2000/svg" width="42" height="42" viewBox="0 0 42 43" fill="none">
  <path fill-rule="evenodd" clip-rule="evenodd" d="M14.4857 14.4957C14.4857 10.9082 17.4023 8 21 8C24.5977 8 27.5143 10.9082 27.5143 14.4957V16.2856C30.6233 16.7774 33 19.4624 33 22.7009V28.1709C33 31.7584 30.0835 34.6667 26.4857 34.6667H15.5143C11.9165 34.6667 9 31.7584 9 28.1709V22.7009C9 19.4624 11.3767 16.7774 14.4857 16.2856V14.4957ZM16.5429 16.2051H25.4571V14.4957C25.4571 12.0411 23.4616 10.0513 21 10.0513C18.5384 10.0513 16.5429 12.0411 16.5429 14.4957V16.2051ZM15.5143 18.2564C13.0527 18.2564 11.0571 20.2463 11.0571 22.7009V28.1709C11.0571 30.6255 13.0527 32.6154 15.5143 32.6154H26.4857C28.9473 32.6154 30.9429 30.6255 30.9429 28.1709V22.7009C30.9429 20.2463 28.9473 18.2564 26.4857 18.2564H15.5143ZM19.9714 26.8034V24.0684H22.0286V26.8034C22.0286 27.3699 21.5681 27.8291 21 27.8291C20.4319 27.8291 19.9714 27.3699 19.9714 26.8034Z" fill="black"/>
</svg>