<svg width="11" height="13" viewBox="0 0 11 13" fill="none" xmlns="http://www.w3.org/2000/svg">
<path fill-rule="evenodd" clip-rule="evenodd" d="M7.38594 0H0.0525937V7.33334H1.38594V1.33334H6.83259L9.38594 3.88666V7.33334H10.7192V3.33334L7.38594 0ZM0 12.6667V8.66753H0.900313V11.9611H2.61906V12.6667H0ZM4.78656 8.59697C5.415 8.59697 5.89667 8.79641 6.23156 9.19528C6.55331 9.57724 6.71418 10.0683 6.71416 10.6685C6.71416 11.3251 6.52413 11.8473 6.14406 12.2349C5.81669 12.5698 5.36419 12.7372 4.78656 12.7372C4.15812 12.7372 3.67646 12.5378 3.34156 12.1389C3.01983 11.7569 2.85897 11.2583 2.85897 10.6431C2.85897 9.99961 3.049 9.48408 3.42906 9.0965C3.75831 8.76348 4.21081 8.59697 4.78656 8.59697ZM4.78375 9.30253C4.45825 9.30253 4.20706 9.438 4.03019 9.70894C3.87027 9.95352 3.79031 10.2677 3.79031 10.6516C3.79031 11.0956 3.88532 11.4399 4.07534 11.6845C4.25409 11.9159 4.49117 12.0317 4.78656 12.0317C5.11019 12.0317 5.36231 11.8953 5.54294 11.6224C5.70285 11.3816 5.78281 11.0636 5.78281 10.6685C5.78281 10.2339 5.6878 9.89426 5.49778 9.64966C5.31903 9.41824 5.08101 9.30253 4.78372 9.30253M10.7472 10.4286V12.4691C10.5176 12.5463 10.3558 12.5971 10.2617 12.6215C9.97009 12.6986 9.65682 12.7372 9.32191 12.7372C8.66336 12.7372 8.16195 12.5716 7.81766 12.2405C7.4357 11.8755 7.24472 11.3666 7.24472 10.7137C7.24472 9.96293 7.48179 9.39659 7.95594 9.01466C8.30025 8.73622 8.76498 8.59699 9.35013 8.59697C9.85063 8.59697 10.3163 8.68822 10.7472 8.87072L10.4395 9.57347C10.2363 9.47189 10.0585 9.40085 9.90609 9.36038C9.7537 9.31994 9.58625 9.29972 9.40375 9.29972C8.96725 9.29972 8.64551 9.44177 8.43853 9.72587C8.26355 9.96669 8.17606 10.2837 8.17606 10.677C8.17606 11.1492 8.30777 11.5048 8.57119 11.7438C8.78192 11.9357 9.04345 12.0317 9.35578 12.0317C9.53828 12.0317 9.71138 12.0006 9.87506 11.9385V11.1342H9.18647V10.4286H10.7472Z" fill="#566A7F"/>
</svg>
