<svg xmlns="http://www.w3.org/2000/svg" width="29" height="35" viewBox="0 0 29 36" fill="black">
  <path
    d="M28.0765 11.9302C26.912 12.6307 25.9474 13.6099 25.2731 14.7763C24.5987 15.9427 24.2365 17.2582 24.2205 18.5995C24.2251 20.1092 24.6804 21.5844 25.53 22.8424C26.3795 24.1004 27.586 25.0859 29 25.6769C28.4425 27.444 27.6174 29.1187 26.5525 30.6446C25.0287 32.7997 23.4354 34.9545 21.0111 34.9545C18.5869 34.9545 17.9634 33.5708 15.1696 33.5708C12.4451 33.5708 11.4753 35 9.25867 35C7.04209 35 5.49529 33.0037 3.71733 30.5539C1.36878 27.1219 0.0780438 23.0971 0 18.9623C0 12.1571 4.50247 8.55046 8.93541 8.55046C11.2906 8.55046 13.2532 10.0701 14.7309 10.0701C16.1394 10.0701 18.3329 8.45953 21.0111 8.45953C22.3882 8.42463 23.7528 8.72292 24.9849 9.32815C26.217 9.93338 27.2787 10.827 28.0765 11.9302ZM19.7413 5.57877C20.9219 4.21431 21.5903 2.49316 21.6346 0.702837C21.6366 0.466821 21.6134 0.231251 21.5653 0C19.5373 0.194628 17.662 1.14425 16.324 2.65409C15.132 3.96419 14.4385 5.63937 14.3614 7.39495C14.3623 7.60845 14.3855 7.8213 14.4307 8.03014C14.5906 8.05983 14.7529 8.07505 14.9156 8.0756C15.8502 8.00254 16.76 7.74352 17.5896 7.3143C18.4192 6.88507 19.1512 6.2946 19.7413 5.57877Z" />
</svg>