<svg width="94" height="94" viewBox="0 0 94 94" fill="none" stroke="#F5F5F5" stroke-opacity="0.46" stroke-width="3" xmlns="http://www.w3.org/2000/svg">
<path d="M43.4799 2.69997C41.7863 3.39953 40.2722 4.91831 37.2395 7.94666C34.2067 10.9842 32.688 12.4984 31.9931 14.1875C31.5304 15.3044 31.2922 16.5016 31.2922 17.7106C31.2922 18.9196 31.5304 20.1167 31.9931 21.2337C32.688 22.9273 34.2021 24.4415 37.2395 27.4745C40.2676 30.5074 41.7863 32.0262 43.4799 32.7212C45.7342 33.6545 48.2668 33.6545 50.5211 32.7212C52.2146 32.0262 53.7287 30.512 56.7615 27.4745C59.7943 24.4369 61.3083 22.9273 62.0078 21.2337C62.9411 18.9792 62.9411 16.4465 62.0078 14.1921C61.3083 12.4984 59.7989 10.9842 56.7615 7.95126C53.7241 4.91831 52.2146 3.39953 50.5211 2.69997C48.2668 1.76668 45.7342 1.76668 43.4799 2.69997ZM14.1877 31.9894C12.4987 32.689 10.98 34.2031 7.95185 37.2361C4.91448 40.2737 3.40039 41.7878 2.70088 43.4769C2.23816 44.5938 2 45.791 2 47C2 48.209 2.23816 49.4062 2.70088 50.5231C3.40039 52.2168 4.91908 53.731 7.94725 56.7639C10.9846 59.7969 12.4987 61.311 14.1877 62.0106C15.3045 62.4733 16.5016 62.7115 17.7106 62.7115C18.9195 62.7115 20.1166 62.4733 21.2334 62.0106C22.927 61.311 24.4411 59.7969 27.4739 56.7639C30.5066 53.731 32.0207 52.2168 32.7202 50.5231C33.6535 48.2687 33.6535 45.7359 32.7202 43.4815C32.0207 41.7878 30.5112 40.269 27.4739 37.2361C24.4365 34.2031 22.927 32.689 21.2334 31.9894C18.9792 31.0561 16.442 31.0561 14.1877 31.9894ZM66.5271 37.2361C63.4943 40.2737 61.9802 41.7878 61.2807 43.4769C60.818 44.5938 60.5798 45.791 60.5798 47C60.5798 48.209 60.818 49.4062 61.2807 50.5231C61.9802 52.2168 63.4943 53.731 66.5271 56.7639C69.5599 59.7969 71.0785 61.311 72.7675 62.0106C75.0218 62.9439 77.5544 62.9439 79.8087 62.0106C81.5022 61.311 83.0209 59.7969 86.0537 56.7639C89.0865 53.731 90.596 52.2168 91.3001 50.5231C92.2333 48.2687 92.2333 45.7359 91.3001 43.4815C90.596 41.7878 89.0865 40.269 86.0537 37.2361C83.0163 34.2031 81.5022 32.689 79.8133 31.9894C78.6964 31.5267 77.4993 31.2885 76.2904 31.2885C75.0815 31.2885 73.8844 31.5267 72.7675 31.9894C71.0785 32.689 69.5599 34.2031 66.5271 37.2361ZM43.4799 61.2788C41.7863 61.9784 40.2722 63.4972 37.2395 66.5255C34.2067 69.5631 32.688 71.0773 31.9931 72.7709C31.0599 75.0254 31.0599 77.5581 31.9931 79.8125C32.688 81.5062 34.2021 83.0204 37.2395 86.0533C40.2676 89.0863 41.7863 90.6051 43.4799 91.3C45.7342 92.2333 48.2668 92.2333 50.5211 91.3C52.2146 90.6051 53.7287 89.0909 56.7615 86.0533C59.7943 83.0158 61.3083 81.5062 62.0078 79.8125C62.9421 77.5574 62.9421 75.0261 62.0078 72.7709C61.3083 71.0773 59.7989 69.5585 56.7615 66.5301C53.7287 63.4926 52.2146 61.9784 50.5211 61.2788C48.2668 60.3455 45.7342 60.3455 43.4799 61.2788Z"  stroke-linecap="round" stroke-linejoin="round"/>
</svg>
