<svg width="10" height="9" viewBox="0 0 10 9" fill="none" xmlns="http://www.w3.org/2000/svg">
<path d="M4.7287 7.07044C5.08369 7.07044 5.37146 6.78266 5.37146 6.42768C5.37146 6.07269 5.08369 5.78491 4.7287 5.78491C4.37371 5.78491 4.08594 6.07269 4.08594 6.42768C4.08594 6.78266 4.37371 7.07044 4.7287 7.07044Z" fill="currentColor"/>
<path d="M1.58644 1.83699e-08C1.40737 -3.49314e-05 1.23182 0.0498011 1.07948 0.143923C0.927144 0.238044 0.804027 0.372732 0.72393 0.532891L0.101252 1.77825C0.0404055 1.90071 0.00615678 2.03466 0.0007563 2.1713C-0.00464418 2.30794 0.0189258 2.44417 0.0699178 2.57105H5.65794C5.67155 2.57107 5.68493 2.56763 5.69684 2.56106C5.70875 2.55449 5.71879 2.54501 5.72604 2.53349L7.24256 0.123129C7.25019 0.110996 7.25444 0.0970402 7.25486 0.0827109C7.25528 0.0683817 7.25186 0.0542004 7.24496 0.0416381C7.23805 0.0290758 7.22791 0.0185901 7.21559 0.0112686C7.20326 0.00394701 7.1892 5.62874e-05 7.17487 1.83699e-08H1.58644Z" fill="currentColor"/>
<path d="M9.34963 1.77897L8.72696 0.533616C8.6628 0.404253 8.57024 0.291064 8.45619 0.202507C8.34214 0.113951 8.20955 0.0523187 8.06832 0.0222168L6.46383 2.57118L5.56998 3.99892C5.02358 3.80912 4.42913 3.80912 3.88273 3.99892L3.41431 3.2517C3.40709 3.24015 3.39706 3.23063 3.38515 3.22402C3.37324 3.21742 3.35984 3.21395 3.34622 3.21394H0.611462C0.59705 3.21396 0.582911 3.21786 0.570524 3.22523C0.558138 3.2326 0.547961 3.24316 0.541061 3.25581C0.53416 3.26846 0.530789 3.28274 0.531301 3.29714C0.531813 3.31154 0.536189 3.32554 0.543972 3.33767L2.20511 5.92339C2.13028 6.29647 2.13918 6.68152 2.23119 7.05074C2.3232 7.41997 2.49602 7.76417 2.73718 8.05851C2.97834 8.35284 3.28183 8.58998 3.62575 8.75281C3.96966 8.91564 4.34544 9.00011 4.72595 9.00011C5.10647 9.00011 5.48224 8.91564 5.82616 8.75281C6.17008 8.58998 6.47356 8.35284 6.71472 8.05851C6.95588 7.76417 7.1287 7.41997 7.22071 7.05074C7.31272 6.68152 7.32163 6.29647 7.24679 5.92339L9.29841 2.73187C9.38849 2.59097 9.44054 2.42915 9.44952 2.26216C9.4585 2.09518 9.42408 1.92871 9.34963 1.77897ZM4.81012 7.71067C4.54927 7.72772 4.28942 7.66484 4.06523 7.53042C3.84104 7.396 3.66315 7.19643 3.55529 6.95832C3.44743 6.72021 3.41472 6.45487 3.46153 6.19769C3.50834 5.94052 3.63243 5.70372 3.81727 5.51888C4.00211 5.33404 4.23891 5.20994 4.49609 5.16313C4.75327 5.11633 5.0186 5.14903 5.25672 5.25689C5.49483 5.36475 5.6944 5.54264 5.82882 5.76684C5.96324 5.99103 6.02612 6.25087 6.00907 6.51172C5.9884 6.82287 5.85547 7.11593 5.63499 7.33645C5.4145 7.55697 5.12146 7.68995 4.81032 7.71067H4.81012Z" fill="currentColor"/>
</svg>
