<svg width="15" height="14" viewBox="0 -3 13 19"  xmlns="http://www.w3.org/2000/svg" fill="#566A7F">
<path d="M11.6156 1.50677C12.3169 1.67727 12.9374 2.05778 13.38 2.58885C13.8227 3.11992 14.0627 3.77163 14.0625 4.44216V9.64369C14.6316 9.24837 15 8.61899 15 7.90984V4.44216C15 3.40751 14.5555 2.41524 13.7644 1.68363C12.9732 0.952028 11.9001 0.541016 10.7812 0.541016H4.21875C3.45187 0.541016 2.77125 0.881716 2.34375 1.40794H10.7812C11.0628 1.40764 11.3432 1.44086 11.6156 1.50677ZM2.34375 2.27486C1.72215 2.27486 1.12601 2.5032 0.686468 2.90965C0.24693 3.31609 0 3.86736 0 4.44216V9.64369C0 10.2185 0.24693 10.7698 0.686468 11.1762C1.12601 11.5826 1.72215 11.811 2.34375 11.811H2.8125V12.6736C2.8124 12.8337 2.86025 12.9907 2.95077 13.1272C3.04128 13.2637 3.17091 13.3744 3.32528 13.4469C3.47965 13.5195 3.65273 13.5511 3.82534 13.5382C3.99794 13.5253 4.16331 13.4685 4.30313 13.374L6.61594 11.811H10.7812C11.4029 11.811 11.999 11.5826 12.4385 11.1762C12.8781 10.7698 13.125 10.2185 13.125 9.64369V4.44216C13.125 3.86736 12.8781 3.31609 12.4385 2.90965C11.999 2.5032 11.4029 2.27486 10.7812 2.27486H2.34375ZM0.9375 4.44216C0.9375 4.09728 1.08566 3.76652 1.34938 3.52265C1.6131 3.27878 1.97079 3.14178 2.34375 3.14178H10.7812C11.1542 3.14178 11.5119 3.27878 11.7756 3.52265C12.0393 3.76652 12.1875 4.09728 12.1875 4.44216V9.64369C12.1875 9.98857 12.0393 10.3193 11.7756 10.5632C11.5119 10.8071 11.1542 10.9441 10.7812 10.9441H6.30937L3.75 12.6736V10.9441H2.34375C1.97079 10.9441 1.6131 10.8071 1.34938 10.5632C1.08566 10.3193 0.9375 9.98857 0.9375 9.64369V4.44216Z" />
</svg>
