<svg xmlns="http://www.w3.org/2000/svg" width="20" height="37" viewBox="0 0 20 38" fill="none">
  <path d="M14.5 0H5.5C4.04185 0.00174664 2.64391 0.58177 1.61284 1.61284C0.58177 2.64391 0.00174664 4.04185 0 5.5L0 31.5C0.00182586 32.9581 0.581875 34.356 1.61293 35.3871C2.64398 36.4181 4.04187 36.9982 5.5 37H14.5C15.9581 36.9982 17.356 36.4181 18.3871 35.3871C19.4181 34.356 19.9982 32.9581 20 31.5V5.5C19.9983 4.04185 19.4182 2.64391 18.3872 1.61284C17.3561 0.58177 15.9582 0.00174664 14.5 0ZM18 31.5C17.9989 32.4279 17.6298 33.3175 16.9736 33.9736C16.3175 34.6298 15.4279 34.9989 14.5 35H5.5C4.57208 34.9989 3.68249 34.6298 3.02635 33.9736C2.37022 33.3175 2.00111 32.4279 2 31.5V5.5C2.00111 4.57208 2.37022 3.68249 3.02635 3.02635C3.68249 2.37022 4.57208 2.00111 5.5 2H14.5C15.4279 2.00111 16.3175 2.37022 16.9736 3.02635C17.6298 3.68249 17.9989 4.57208 18 5.5V31.5Z" fill="#1D1D1F"/>
</svg>