<svg width="124" height="107" viewBox="0 0 124 107" fill="none" xmlns="http://www.w3.org/2000/svg">
<path d="M66.0746 96.7839C66.0746 97.6851 65.8073 98.5661 65.3066 99.3154C64.8059 100.065 64.0943 100.649 63.2616 100.994C62.429 101.339 61.5128 101.429 60.6289 101.253C59.745 101.077 58.933 100.643 58.2958 100.006C57.6585 99.3687 57.2245 98.5568 57.0487 97.6728C56.8729 96.7889 56.9631 95.8727 57.308 95.0401C57.6529 94.2075 58.2369 93.4958 58.9863 92.9951C59.7356 92.4944 60.6166 92.2271 61.5179 92.2271C62.7264 92.2271 63.8854 92.7072 64.74 93.5618C65.5945 94.4163 66.0746 95.5753 66.0746 96.7839ZM17.6595 1.83896C17.2531 1.38577 16.6833 1.11257 16.0755 1.07945C15.4677 1.04634 14.8717 1.25603 14.4185 1.66239C13.9653 2.06875 13.6921 2.6385 13.659 3.2463C13.6259 3.8541 13.8356 4.45016 14.2419 4.90336L25.4742 17.235C16.5691 20.8554 8.26195 25.8002 0.83378 31.9019C0.602275 32.0919 0.410459 32.3256 0.269283 32.5897C0.128107 32.8539 0.0403362 33.1432 0.0109816 33.4413C-0.0183731 33.7393 0.0112636 34.0402 0.0981993 34.3268C0.185135 34.6134 0.327668 34.88 0.517658 35.1115C0.707649 35.343 0.941377 35.5349 1.2055 35.676C1.46962 35.8172 1.75896 35.905 2.05701 35.9343C2.35505 35.9637 2.65595 35.9341 2.94254 35.8471C3.22913 35.7602 3.49579 35.6177 3.7273 35.4277C11.2333 29.2556 19.6815 24.3287 28.7494 20.8348L45.632 39.4091C35.9516 41.7253 26.8932 46.1262 19.0891 52.3046C18.6155 52.6823 18.3114 53.2326 18.2435 53.8345C18.1757 54.4364 18.3498 55.0407 18.7274 55.5142C19.1051 55.9878 19.6554 56.292 20.2573 56.3598C20.8593 56.4277 21.4635 56.2536 21.9371 55.8759C29.893 49.5777 39.2365 45.2682 49.1919 43.3051L69.4921 65.6672C66.8656 65.1496 64.1949 64.8882 61.5179 64.8868C52.8453 64.8655 44.3924 67.6133 37.39 72.7301C37.0019 73.0136 36.7134 73.4126 36.5657 73.8701C36.4181 74.3275 36.4189 74.8199 36.5681 75.2769C36.7172 75.7338 37.0071 76.1319 37.3962 76.4141C37.7852 76.6963 38.2536 76.8483 38.7343 76.8482C39.2165 76.8472 39.6864 76.6959 40.0785 76.4153C45.123 72.7465 51.0246 70.4335 57.2186 69.6975C63.4127 68.9615 69.6919 69.8272 75.4557 72.2118L105.376 105.151C105.576 105.377 105.819 105.56 106.091 105.691C106.362 105.822 106.657 105.898 106.958 105.914C107.259 105.93 107.561 105.887 107.845 105.786C108.129 105.685 108.39 105.528 108.613 105.325C108.836 105.122 109.017 104.877 109.144 104.604C109.272 104.331 109.344 104.035 109.357 103.734C109.37 103.433 109.322 103.132 109.218 102.849C109.113 102.567 108.954 102.307 108.748 102.087L17.6595 1.83896ZM122.202 31.9019C105.083 17.8848 83.6433 10.2197 61.5179 10.2062C57.4236 10.2068 53.3334 10.4655 49.2717 10.9809C48.672 11.0564 48.1268 11.3671 47.7561 11.8446C47.3855 12.322 47.2197 12.9272 47.2952 13.5269C47.3707 14.1267 47.6814 14.6718 48.1589 15.0425C48.6364 15.4132 49.2415 15.579 49.8413 15.5034C53.714 15.0114 57.614 14.764 61.5179 14.763C82.5894 14.7728 103.008 22.0742 119.308 35.4277C119.54 35.6177 119.807 35.7602 120.093 35.8471C120.38 35.9341 120.681 35.9637 120.979 35.9343C121.277 35.905 121.566 35.8172 121.83 35.676C122.094 35.5349 122.328 35.343 122.518 35.1115C122.708 34.88 122.851 34.6134 122.938 34.3268C123.024 34.0402 123.054 33.7393 123.025 33.4413C122.995 33.1432 122.908 32.8539 122.766 32.5897C122.625 32.3256 122.433 32.0919 122.202 31.9019ZM101.127 55.8759C101.601 56.2536 102.205 56.4277 102.807 56.3598C103.409 56.292 103.959 55.9878 104.337 55.5142C104.714 55.0407 104.888 54.4364 104.821 53.8345C104.753 53.2326 104.449 52.6823 103.975 52.3046C95.6357 45.7036 85.8731 41.1363 75.4614 38.9648C75.1645 38.8933 74.8563 38.8822 74.555 38.9322C74.2537 38.9822 73.9656 39.0923 73.7077 39.2559C73.4498 39.4194 73.2274 39.6332 73.0538 39.8844C72.8801 40.1356 72.7588 40.4192 72.6969 40.7183C72.635 41.0173 72.6339 41.3258 72.6936 41.6252C72.7533 41.9247 72.8726 42.2092 73.0444 42.4617C73.2162 42.7141 73.4371 42.9295 73.6937 43.0949C73.9504 43.2604 74.2378 43.3725 74.5387 43.4247C84.2437 45.4572 93.3426 49.72 101.116 55.8759H101.127Z" fill="black"/>
<path d="M13.4517 5.64782C12.2911 4.37675 12.3355 2.41771 13.5524 1.20047C14.8503 -0.0978135 16.9693 -0.0498181 18.2071 1.3059L109.553 101.353C110.713 102.624 110.669 104.583 109.452 105.8C108.154 107.097 106.036 107.049 104.799 105.694L13.4517 5.64782Z" fill="#0A77FD"/>
</svg>
