<svg width="535" height="399" viewBox="0 0 535 399" fill="none" xmlns="http://www.w3.org/2000/svg">
<path d="M535 350.318H0V350.585H535V350.318Z" fill="#EBEBEB"/>
<path d="M481.389 367.535H458.191V367.802H481.389V367.535Z" fill="#EBEBEB"/>
<path d="M368.798 361.992H332.301V362.259H368.798V361.992Z" fill="#EBEBEB"/>
<path d="M472.006 357.604H424.359V357.872H472.006V357.604Z" fill="#EBEBEB"/>
<path d="M185.135 362.998H173.215V363.265H185.135V362.998Z" fill="#EBEBEB"/>
<path d="M163.675 362.998H122.598V363.265H163.675V362.998Z" fill="#EBEBEB"/>
<path d="M100.596 358.482H70.957V358.749H100.596V358.482Z" fill="#EBEBEB"/>
<path d="M253.592 302.596H46.9857C45.3672 302.593 43.8159 301.948 42.6724 300.803C41.5289 299.657 40.8867 298.105 40.8867 296.486V6.0562C40.9008 4.44695 41.5493 2.90824 42.6912 1.77429C43.8332 0.64035 45.3764 0.00275673 46.9857 0H253.592C255.212 0 256.766 0.643699 257.912 1.78949C259.058 2.93528 259.702 4.48931 259.702 6.1097V296.486C259.702 298.107 259.058 299.661 257.912 300.807C256.766 301.952 255.212 302.596 253.592 302.596ZM46.9857 0.214001C45.4381 0.216835 43.9549 0.8336 42.8616 1.92892C41.7683 3.02424 41.1542 4.5086 41.1542 6.0562V296.486C41.1542 298.034 41.7683 299.518 42.8616 300.614C43.9549 301.709 45.4381 302.326 46.9857 302.328H253.592C255.141 302.326 256.625 301.709 257.72 300.614C258.815 299.519 259.431 298.035 259.434 296.486V6.0562C259.431 4.50762 258.815 3.02328 257.72 1.92826C256.625 0.833252 255.141 0.216829 253.592 0.214001H46.9857Z" fill="#EBEBEB"/>
<path d="M485.043 302.596H278.426C276.807 302.593 275.254 301.949 274.109 300.803C272.964 299.658 272.319 298.106 272.316 296.486V6.0562C272.333 4.44597 272.984 2.90727 274.128 1.77362C275.271 0.639976 276.816 0.00272667 278.426 0H485.043C486.651 0.00556881 488.191 0.644407 489.331 1.77805C490.47 2.91169 491.117 4.44879 491.131 6.0562V296.486C491.131 298.103 490.491 299.654 489.349 300.799C488.208 301.944 486.66 302.59 485.043 302.596ZM278.426 0.214001C276.878 0.216829 275.393 0.833252 274.298 1.92826C273.203 3.02328 272.587 4.50762 272.584 6.0562V296.486C272.587 298.035 273.203 299.519 274.298 300.614C275.393 301.709 276.878 302.326 278.426 302.328H485.043C486.592 302.326 488.076 301.709 489.171 300.614C490.266 299.519 490.882 298.035 490.885 296.486V6.0562C490.882 4.50762 490.266 3.02328 489.171 1.92826C488.076 0.833252 486.592 0.216829 485.043 0.214001H278.426Z" fill="#EBEBEB"/>
<path d="M231.193 156.091L231.675 142.032L223.051 139.207C222.68 134.442 221.907 129.717 220.74 125.083L228.058 119.733L223.094 106.529L214.041 107.257C211.895 103.003 209.389 98.9396 206.551 95.1121L211.238 87.2904L201.608 77.0077L193.519 81.1486C189.881 78.0393 185.995 75.2337 181.899 72.7598L183.204 63.7718L170.364 57.951L164.479 64.8418C159.939 63.3896 155.286 62.3159 150.569 61.6318L148.429 52.8257L134.326 52.3442L131.544 60.9791C126.784 61.3534 122.064 62.1229 117.431 63.2796L111.995 56.0036L98.7916 60.9363L99.5192 69.9885C95.2674 72.1674 91.2051 74.6979 87.3747 77.5534L79.4995 72.7598L69.174 82.3898L73.3149 90.5218C70.2048 94.1411 67.4125 98.0218 64.9689 102.121L55.9916 100.772L50.128 113.612L57.0616 119.487C55.599 124.024 54.5252 128.677 53.8516 133.397L44.9385 135.633L44.457 149.693L53.124 152.518C53.4825 157.28 54.2522 162.002 55.4245 166.631L48.1057 171.981L53.0812 185.195L62.1334 184.468C64.2742 188.725 66.7803 192.788 69.6234 196.612L64.9261 204.434L74.5561 214.717L82.6453 210.576C86.2733 213.684 90.1529 216.487 94.2441 218.954L92.8959 227.931L105.736 233.763L111.653 226.872C116.193 228.337 120.845 229.429 125.563 230.135L127.703 238.942L141.806 239.423L144.588 230.788C149.351 230.41 154.075 229.64 158.712 228.488L164.062 235.764L177.265 230.831L176.581 221.779C180.825 219.586 184.886 217.056 188.725 214.214L196.504 218.9L206.83 209.27L202.689 201.138C205.8 197.52 208.592 193.639 211.035 189.54L220.012 190.888L225.876 178.048L218.942 172.163C220.429 167.629 221.521 162.975 222.205 158.253L231.193 156.091ZM136.188 201.641C125.154 201.269 114.479 197.632 105.512 191.191C96.5454 184.75 89.6904 175.794 85.8143 165.457C81.9381 155.12 81.2149 143.865 83.7361 133.116C86.2573 122.368 91.9097 112.609 99.9783 105.073C108.047 97.5377 118.169 92.5644 129.064 90.7825C139.96 89.0006 151.139 90.4901 161.188 95.0627C171.237 99.6352 179.704 107.085 185.518 116.471C191.332 125.856 194.231 136.755 193.85 147.788C193.343 162.575 186.983 176.555 176.17 186.654C165.357 196.753 150.975 202.144 136.188 201.641Z" fill="#EBEBEB"/>
<path d="M471.871 109.589L475.413 106.283L474.011 103.49C475.081 102.239 476.043 100.9 476.89 99.4887L479.993 99.9488L481.993 95.519L479.618 93.4967C480.13 91.9304 480.506 90.3231 480.742 88.6924L483.791 87.9326L483.941 83.0749L480.966 82.1119C480.836 80.4666 480.571 78.8348 480.174 77.2327L482.689 75.3602L480.977 70.8127L477.863 71.0588C477.112 69.5921 476.243 68.1893 475.263 66.8644L476.879 64.1894L473.551 60.637L470.769 62.0601C469.516 60.9932 468.177 60.0306 466.767 59.1818L467.217 56.0788L462.798 54.0565L460.765 56.4426C459.195 55.9539 457.589 55.596 455.96 55.3726L455.201 52.3338L450.343 52.1519L449.369 55.1479C447.73 55.2731 446.105 55.538 444.511 55.9397L442.65 53.4252L438.091 55.1265L438.348 58.2509C436.877 58.9944 435.474 59.8644 434.154 60.851L431.457 59.2353L427.905 62.5416L429.285 65.2701C428.208 66.5178 427.242 67.8568 426.396 69.2719L423.304 68.8118L421.292 73.2416L423.678 75.2746C423.184 76.8385 422.826 78.4424 422.608 80.0682L419.548 80.8278L419.398 85.6857L422.384 86.6487C422.506 88.2942 422.767 89.9265 423.165 91.5278L420.64 93.3897L422.352 97.9372L425.476 97.7018C426.227 99.1684 427.097 100.571 428.076 101.896L426.46 104.571L429.788 108.124L432.57 106.7C433.821 107.771 435.159 108.734 436.572 109.579L436.112 112.671L440.542 114.693L442.575 112.318C444.145 112.802 445.752 113.159 447.379 113.388L448.139 116.427L452.996 116.609L453.97 113.613C455.609 113.488 457.234 113.223 458.828 112.821L460.69 115.335L465.248 113.634L465.002 110.51C466.469 109.765 467.868 108.895 469.186 107.91L471.871 109.589ZM446.598 89.1203C445.663 88.1191 445.047 86.8633 444.827 85.5116C444.606 84.16 444.791 82.7733 445.359 81.527C445.927 80.2808 446.851 79.2309 448.016 78.5102C449.181 77.7895 450.533 77.4304 451.901 77.4783C453.27 77.5263 454.594 77.979 455.705 78.7794C456.816 79.5798 457.665 80.6917 458.144 81.9747C458.624 83.2576 458.712 84.6538 458.397 85.9867C458.083 87.3196 457.38 88.5293 456.378 89.4628C455.713 90.0898 454.93 90.5788 454.074 90.9013C453.219 91.2238 452.308 91.3735 451.395 91.3416C450.481 91.3098 449.583 91.097 448.752 90.7158C447.922 90.3345 447.175 89.7922 446.555 89.1203H446.598Z" fill="#EBEBEB"/>
<path d="M342.401 253.954L331.338 246.303C330.253 242.319 328.761 238.458 326.886 234.779L329.722 223.651L313.672 206.467L302.373 208.532C298.828 206.408 295.074 204.655 291.17 203.3L284.3 191.733L260.76 190.931L253.121 201.994C249.142 203.078 245.284 204.566 241.607 206.435L230.479 203.599L213.295 219.649L215.36 230.927C213.238 234.479 211.489 238.241 210.139 242.152L198.572 249.021L197.77 272.561L208.844 280.201C209.91 284.206 211.399 288.087 213.285 291.778L210.417 302.81L226.467 319.994L237.691 317.94C241.263 320.066 245.041 321.823 248.969 323.183L255.828 334.728L279.368 335.541L286.997 324.477C291.012 323.393 294.905 321.902 298.617 320.026L309.681 322.851L326.876 306.801L324.811 295.523C326.939 291.971 328.689 288.205 330.032 284.288L341.599 277.419L342.401 253.954ZM269.16 289.681C263.934 289.502 258.879 287.778 254.633 284.727C250.387 281.675 247.141 277.433 245.305 272.537C243.47 267.64 243.128 262.31 244.322 257.219C245.516 252.128 248.193 247.506 252.014 243.936C255.835 240.367 260.628 238.01 265.788 237.165C270.948 236.319 276.243 237.023 281.003 239.187C285.764 241.35 289.776 244.877 292.532 249.32C295.288 253.764 296.665 258.925 296.488 264.151C296.242 271.16 293.225 277.785 288.1 282.571C282.974 287.358 276.158 289.915 269.149 289.681H269.16Z" fill="#EBEBEB"/>
<path d="M367.598 187.25H367.523L348.99 186.619C348.615 186.612 348.247 186.51 347.922 186.323C347.596 186.136 347.323 185.87 347.128 185.549L342.132 177.149C339.438 176.164 336.833 174.954 334.342 173.533L326.349 174.913C325.977 174.981 325.593 174.954 325.234 174.834C324.875 174.715 324.552 174.506 324.295 174.228L311.637 160.682C311.371 160.401 311.182 160.057 311.088 159.682C310.995 159.307 310.999 158.915 311.102 158.542L313.124 150.613C311.871 148.044 310.847 145.369 310.064 142.62L302.007 137.056C301.694 136.842 301.441 136.552 301.271 136.213C301.1 135.875 301.019 135.498 301.033 135.12L301.664 116.587C301.677 116.213 301.781 115.848 301.967 115.523C302.154 115.199 302.417 114.925 302.734 114.725L311.155 109.729C312.126 107.042 313.333 104.446 314.761 101.971L313.284 93.914C313.215 93.5399 313.242 93.1545 313.362 92.7935C313.481 92.4325 313.69 92.1075 313.969 91.8489L327.515 79.2015C327.795 78.9349 328.139 78.7446 328.514 78.6491C328.889 78.5535 329.282 78.5558 329.655 78.6558L337.616 80.6888C340.179 79.4352 342.846 78.4077 345.588 77.6179L351.152 69.5608C351.359 69.2407 351.647 68.9817 351.988 68.8106C352.328 68.6394 352.708 68.5622 353.088 68.5871L371.61 69.2291C371.987 69.2371 372.355 69.3391 372.682 69.526C373.009 69.7129 373.284 69.9787 373.483 70.2991L378.479 78.7093C381.154 79.691 383.738 80.901 386.205 82.3259L394.294 80.8386C394.666 80.7694 395.05 80.7959 395.41 80.9157C395.769 81.0355 396.092 81.2446 396.348 81.5234L409.007 95.0696C409.27 95.3513 409.458 95.6957 409.552 96.0702C409.645 96.4446 409.642 96.8368 409.542 97.2096L407.509 105.16C408.762 107.724 409.793 110.391 410.59 113.131L418.637 118.695C418.949 118.91 419.202 119.2 419.372 119.538C419.543 119.877 419.624 120.253 419.61 120.632L418.979 139.154C418.966 139.529 418.862 139.896 418.676 140.222C418.489 140.549 418.226 140.824 417.909 141.026L409.488 146.023C408.51 148.704 407.304 151.296 405.882 153.77L407.359 161.838C407.428 162.21 407.401 162.594 407.282 162.953C407.162 163.313 406.953 163.636 406.674 163.892L393.042 176.55C392.762 176.816 392.417 177.005 392.042 177.098C391.667 177.192 391.275 177.187 390.902 177.085L382.984 175.063C380.404 176.311 377.723 177.338 374.97 178.134L369.459 186.18C369.261 186.498 368.987 186.761 368.662 186.948C368.338 187.135 367.972 187.238 367.598 187.25ZM350.381 182.146L366.431 182.692L371.781 174.999C372.078 174.55 372.532 174.229 373.055 174.1C376.066 173.276 378.987 172.154 381.775 170.751C382.261 170.516 382.814 170.46 383.337 170.59L390.827 172.505L402.597 161.538L401.249 153.802C401.145 153.261 401.244 152.701 401.527 152.229C403.116 149.579 404.425 146.772 405.433 143.851C405.603 143.321 405.96 142.872 406.439 142.588L414.496 137.816L415.041 121.766L407.337 116.416C406.932 116.139 406.627 115.737 406.471 115.271C406.471 115.218 406.471 115.153 406.471 115.089C405.646 112.132 404.528 109.264 403.132 106.529C402.885 106.04 402.824 105.477 402.961 104.946L404.887 97.3701L393.92 85.6001L386.226 87.0125C385.689 87.1099 385.135 87.0111 384.664 86.7343C382.009 85.1419 379.198 83.826 376.275 82.8074C376.107 82.7536 375.946 82.6819 375.794 82.5934C375.485 82.4009 375.228 82.1366 375.045 81.823L370.219 73.7445L354.169 73.1881L348.819 80.9028C348.5 81.355 348.029 81.6778 347.492 81.8123C344.512 82.6266 341.623 83.7416 338.868 85.14C338.382 85.3878 337.823 85.4487 337.295 85.3112L329.72 83.3852L317.95 94.3527L319.362 102.025C319.446 102.509 319.375 103.007 319.159 103.448L319.052 103.63C317.46 106.289 316.151 109.108 315.146 112.04C314.969 112.542 314.62 112.967 314.162 113.238L306.105 118.021L305.559 134.071L313.274 139.421C313.713 139.722 314.032 140.17 314.172 140.684C314.975 143.688 316.09 146.6 317.5 149.372C317.577 149.53 317.637 149.695 317.682 149.864C317.763 150.216 317.763 150.582 317.682 150.934L315.756 158.424L326.724 170.194L334.363 168.793C334.897 168.695 335.448 168.794 335.915 169.071C338.59 170.66 341.418 171.976 344.357 172.998C344.887 173.155 345.336 173.512 345.609 173.993L350.381 182.146ZM360.3 161.848C359.904 161.848 359.508 161.848 359.112 161.848C350.218 161.692 341.745 158.028 335.538 151.655C329.331 145.282 325.892 136.715 325.97 127.819C326.049 118.924 329.638 110.419 335.956 104.156C342.274 97.8931 350.81 94.3793 359.706 94.3793C368.602 94.3793 377.139 97.8931 383.457 104.156C389.775 110.419 393.364 118.924 393.442 127.819C393.52 136.715 390.082 145.282 383.875 151.655C377.668 158.028 369.195 161.692 360.3 161.848ZM360.3 98.622C352.527 98.756 345.122 101.955 339.696 107.523C334.271 113.091 331.264 120.576 331.331 128.35C331.398 136.124 334.533 143.557 340.054 149.03C345.575 154.504 353.034 157.575 360.808 157.575C368.583 157.575 376.042 154.504 381.563 149.03C387.084 143.557 390.219 136.124 390.286 128.35C390.353 120.576 387.346 113.091 381.921 107.523C376.495 101.955 369.09 98.756 361.317 98.622H360.3Z" fill="#EBEBEB"/>
<path d="M410.288 53.8424L402.605 51.788L400.551 44.1054L403.557 41.1094L406.725 47.6685L413.294 50.8464L410.288 53.8424Z" fill="#E0E0E0"/>
<path d="M410.749 48.7065C411.081 48.3741 411.345 47.9796 411.524 47.5454C411.704 47.1112 411.797 46.6459 411.797 46.1759C411.797 45.7059 411.704 45.2406 411.524 44.8064C411.345 44.3722 411.081 43.9777 410.749 43.6454C410.416 43.313 410.022 43.0494 409.588 42.8696C409.153 42.6897 408.688 42.5972 408.218 42.5972C407.748 42.5972 407.283 42.6897 406.849 42.8696C406.414 43.0494 406.02 43.313 405.688 43.6454L409.507 37.9102L414.622 40.4996L415.745 45.8496L410.749 48.7065Z" fill="#E0E0E0"/>
<path d="M402.941 41.7303L408.57 36.1021L416.231 38.1458L418.296 45.8177L412.668 51.4459L404.996 49.3808L402.941 41.7303ZM413.16 46.3313C413.661 45.8298 414.002 45.1911 414.14 44.4959C414.278 43.8006 414.207 43.0801 413.935 42.4253C413.664 41.7706 413.204 41.211 412.615 40.8173C412.026 40.4235 411.333 40.2134 410.624 40.2134C409.915 40.2134 409.222 40.4235 408.633 40.8173C408.044 41.211 407.584 41.7706 407.313 42.4253C407.041 43.0801 406.97 43.8006 407.108 44.4959C407.246 45.1911 407.587 45.8298 408.088 46.3313C408.766 46.9962 409.679 47.3669 410.628 47.3629C411.578 47.3589 412.488 46.9805 413.16 46.3099V46.3313Z" fill="#F0F0F0"/>
<path d="M96.5376 258.63L100.657 257.517L101.759 253.397L100.154 251.792L98.4529 255.313L94.9219 257.014L96.5376 258.63Z" fill="#E0E0E0"/>
<path d="M96.2939 255.869C95.9719 255.502 95.8018 255.025 95.818 254.537C95.8342 254.048 96.0355 253.584 96.3811 253.239C96.7266 252.893 97.1907 252.692 97.6792 252.676C98.1676 252.659 98.644 252.83 99.0117 253.151L96.968 250.081L94.1539 251.45L93.5547 254.339L96.2939 255.869Z" fill="#E0E0E0"/>
<path d="M100.469 252.113L97.4512 249.096L93.3317 250.166L92.2617 254.285L95.2256 257.335L99.3451 256.265L100.469 252.113ZM94.9902 254.585C94.7918 254.411 94.6312 254.199 94.5184 253.96C94.4055 253.722 94.3427 253.463 94.334 253.2C94.3253 252.936 94.3707 252.674 94.4676 252.428C94.5645 252.183 94.7106 251.96 94.8971 251.774C95.0835 251.587 95.3062 251.441 95.5515 251.344C95.7967 251.248 96.0592 251.202 96.3227 251.211C96.5863 251.22 96.8452 251.282 97.0835 251.395C97.3218 251.508 97.5343 251.669 97.708 251.867C98.03 252.235 98.2001 252.711 98.1839 253.2C98.1677 253.688 97.9664 254.152 97.6208 254.498C97.2753 254.843 96.8112 255.045 96.3227 255.061C95.8343 255.077 95.3579 254.907 94.9902 254.585Z" fill="#F0F0F0"/>
<path d="M81.7047 32.8058L85.1287 36.2298C85.5569 36.6506 86.1333 36.8864 86.7337 36.8864C87.3341 36.8864 87.9105 36.6506 88.3387 36.2298C88.757 35.8002 88.9911 35.2244 88.9911 34.6248C88.9911 34.0252 88.757 33.4493 88.3387 33.0198L84.9254 29.6065C84.4958 29.1882 83.92 28.9541 83.3204 28.9541C82.7208 28.9541 82.1449 29.1882 81.7154 29.6065C81.2963 30.0328 81.0606 30.6061 81.0586 31.204C81.0566 31.8018 81.2885 32.3767 81.7047 32.8058Z" fill="#F0F0F0"/>
<path d="M79.2955 24.3C80.189 24.0516 81.1355 24.0695 82.019 24.3514C82.9025 24.6334 83.6843 25.1673 84.2686 25.8875C84.8529 26.6076 85.2142 27.4827 85.3081 28.4053C85.402 29.3279 85.2245 30.2579 84.7973 31.081C84.3701 31.9041 83.7118 32.5845 82.9032 33.0387C82.0947 33.493 81.1711 33.7012 80.2459 33.6379C79.3207 33.5745 78.4341 33.2424 77.6951 32.6822C76.956 32.1221 76.3965 31.3583 76.0855 30.4846C75.888 29.8678 75.8144 29.2181 75.8691 28.5728C75.9237 27.9274 76.1054 27.2993 76.4037 26.7245C76.7021 26.1497 77.1112 25.6395 77.6075 25.2234C78.1038 24.8074 78.6774 24.4935 79.2955 24.3Z" fill="#E0E0E0"/>
<path d="M75.5708 29.9114L76.0664 31.291L86.2371 27.6374L85.7415 26.2578L75.5708 29.9114Z" fill="#F0F0F0"/>
<path d="M267.501 398.639C382.08 398.639 474.964 393.216 474.964 386.526C474.964 379.837 382.08 374.414 267.501 374.414C152.923 374.414 60.0391 379.837 60.0391 386.526C60.0391 393.216 152.923 398.639 267.501 398.639Z" fill="#F5F5F5"/>
<path d="M92.7986 70.2451C91.7286 65.5264 92.1994 61.5674 94.2324 58.336C96.2654 55.1046 99.5824 52.986 104.301 51.916C109.02 50.846 113.096 51.274 116.285 53.2642C119.474 55.2544 121.635 58.6142 122.705 63.2152C123.46 66.055 123.523 69.0347 122.887 71.9036C122.265 74.2862 120.951 76.431 119.11 78.0668C116.924 79.9074 114.3 81.1531 111.491 81.6834C108.739 82.4143 105.856 82.5131 103.06 81.9723C100.629 81.3816 98.4306 80.0774 96.7469 78.2273C94.7353 75.9711 93.3711 73.2131 92.7986 70.2451ZM101.722 68.2549C102.386 71.1653 103.402 73.1341 104.772 74.1613C105.479 74.6327 106.274 74.9563 107.109 75.1126C107.944 75.2689 108.803 75.2546 109.632 75.0707C110.462 74.8868 111.246 74.537 111.937 74.0424C112.628 73.5478 113.211 72.9186 113.653 72.1925C114.423 70.7052 114.434 68.3405 113.706 65.1198C113.086 62.402 112.084 60.5402 110.7 59.5344C110.003 59.0343 109.203 58.6969 108.359 58.5469C107.514 58.3969 106.647 58.4382 105.82 58.6677C104.993 58.8226 104.212 59.1631 103.536 59.6635C102.859 60.1639 102.305 60.8112 101.915 61.5567C101.123 63.1296 101.048 65.2696 101.722 68.2549Z" fill="#263238"/>
<path d="M126.905 66.7141C126.524 65.2559 126.457 63.7339 126.706 62.2477C126.955 60.7615 127.515 59.3446 128.349 58.0899C129.285 56.7568 130.474 55.6216 131.849 54.7495C133.225 53.8773 134.759 53.2852 136.363 53.0074C140.551 52.0586 143.989 52.5544 146.678 54.4947C148.941 56.2491 150.48 58.7749 151.001 61.5907C151.522 64.4065 150.989 67.3156 149.503 69.7636C147.834 72.3102 145.116 74.0079 141.35 74.8568C138.448 75.668 135.352 75.4176 132.618 74.1506C131.157 73.4362 129.88 72.393 128.889 71.1029C127.897 69.8127 127.218 68.3105 126.905 66.7141ZM134.94 64.863C135.157 66.3582 135.887 67.7314 137.005 68.7471C137.449 69.0827 137.96 69.3177 138.503 69.4358C139.047 69.554 139.609 69.5524 140.152 69.4312C140.694 69.3101 141.204 69.0722 141.646 68.7342C142.087 68.3962 142.45 67.9661 142.708 67.4738C143.269 66.0365 143.322 64.4511 142.858 62.9798C142.633 61.5196 141.911 60.1818 140.815 59.192C140.389 58.8469 139.889 58.6047 139.355 58.484C138.821 58.3634 138.266 58.3677 137.733 58.4965C137.178 58.6115 136.656 58.8515 136.207 59.1982C135.759 59.5449 135.395 59.9892 135.144 60.4974C134.567 61.884 134.495 63.4288 134.94 64.863Z" fill="#263238"/>
<path d="M158.989 78.7196L152.43 49.8296L159.92 48.1176L160.626 51.2099C161.154 49.9767 161.922 48.8602 162.884 47.925C163.939 47.0289 165.2 46.4077 166.554 46.1167C167.805 45.7764 169.121 45.7569 170.382 46.0598C171.642 46.3628 172.806 46.9785 173.765 47.8501C175.88 49.827 177.315 52.4227 177.864 55.2652C178.655 58.7427 178.42 61.5889 177.179 63.8252C176.588 64.8944 175.773 65.8224 174.788 66.5449C173.803 67.2673 172.673 67.7668 171.476 68.0089C170.322 68.2824 169.127 68.3296 167.955 68.148C166.832 67.9512 165.761 67.525 164.81 66.8961L167.078 76.8792L158.989 78.7196ZM162.851 58.5394C163.048 59.8758 163.716 61.0978 164.735 61.9848C165.143 62.2976 165.617 62.5139 166.121 62.6177C166.625 62.7215 167.146 62.7099 167.645 62.584C168.108 62.4911 168.543 62.2907 168.915 61.9989C169.287 61.7071 169.585 61.3321 169.785 60.9041C170.24 59.5649 170.24 58.113 169.785 56.7739C169.589 55.4308 168.945 54.1937 167.955 53.2643C167.588 52.9595 167.156 52.7432 166.693 52.6319C166.229 52.5205 165.746 52.5173 165.28 52.6223C164.789 52.7284 164.327 52.9442 163.931 53.2537C163.534 53.5631 163.213 53.9581 162.991 54.4092C162.467 55.7282 162.418 57.1882 162.851 58.5394Z" fill="#263238"/>
<path d="M181.297 59.1701L189.087 56.6128C189.501 57.3659 190.146 57.966 190.927 58.3248C191.767 58.5682 192.657 58.5877 193.507 58.3812C194.357 58.1747 195.139 57.7496 195.774 57.1478C195.952 56.959 196.08 56.7298 196.149 56.4799C196.218 56.2301 196.225 55.9672 196.17 55.714C196.106 55.4244 195.956 55.1605 195.741 54.9565C195.525 54.7525 195.254 54.6176 194.961 54.5691C193.752 54.4364 192.532 54.4364 191.323 54.5691C189.294 54.7417 187.253 54.7417 185.224 54.5691C184.036 54.3967 182.922 53.8881 182.014 53.1032C181.045 52.2646 180.376 51.1332 180.107 49.8801C179.839 48.6271 179.986 47.3208 180.527 46.1589C181.151 44.9157 182.12 43.879 183.319 43.1736C185.026 42.204 186.88 41.5208 188.808 41.1513C190.649 40.6518 192.552 40.4212 194.458 40.4665C195.655 40.5436 196.816 40.9108 197.839 41.5365C198.93 42.2723 199.855 43.227 200.557 44.3399L193.067 46.8116C192.787 46.2541 192.322 45.8115 191.751 45.5597C190.97 45.2805 190.124 45.2432 189.322 45.4527C188.613 45.5515 187.956 45.8783 187.449 46.3836C187.289 46.5559 187.172 46.7649 187.111 46.9925C187.049 47.22 187.044 47.4591 187.096 47.689C187.154 47.942 187.288 48.1715 187.479 48.3473C187.67 48.523 187.909 48.6367 188.166 48.6734C189.363 48.8123 190.572 48.7871 191.762 48.5985C193.825 48.2995 195.918 48.2707 197.989 48.5129C199.292 48.6969 200.512 49.2586 201.499 50.1286C202.391 50.9377 203.011 52.0028 203.275 53.1781C203.549 54.4384 203.448 55.7513 202.986 56.9552C202.42 58.3806 201.435 59.6006 200.161 60.4541C198.284 61.681 196.182 62.5213 193.976 62.9258C190.16 63.7961 187.307 63.871 185.416 63.1505C183.575 62.415 182.095 60.9856 181.297 59.1701Z" fill="#263238"/>
<path d="M207.426 32.7095H216.21V39.4505L214.595 53.0074H209.159L207.426 39.4719V32.7095ZM207.854 55.0511H216.05V62.3057H207.854V55.0511Z" fill="#263238"/>
<path d="M137.676 124.741H137.484C132.669 122.869 129.79 121.05 128.292 118.856C127.12 119.078 125.907 118.913 124.836 118.385C123.582 117.772 122.542 116.795 121.851 115.582C121.488 115.861 121.06 116.043 120.607 116.113C120.155 116.182 119.692 116.135 119.262 115.978C117.943 115.485 116.818 114.581 116.052 113.399C115.572 113.756 114.977 113.92 114.382 113.859C111.172 113.603 106.892 107.268 106.582 100.527C106.579 100.385 106.63 100.247 106.726 100.141C106.822 100.036 106.954 99.971 107.096 99.96C107.166 99.9572 107.236 99.9682 107.302 99.9925C107.368 100.017 107.429 100.054 107.48 100.101C107.532 100.149 107.574 100.207 107.603 100.27C107.633 100.334 107.649 100.403 107.652 100.474C107.952 106.894 112.05 112.597 114.479 112.789C114.655 112.809 114.834 112.794 115.005 112.744C115.176 112.695 115.335 112.612 115.474 112.5C114.637 110.975 114.112 109.298 113.928 107.568C113.744 105.838 113.906 104.088 114.404 102.421C115.324 99.211 116.137 97.9484 117.122 98.141C118.962 98.6011 118.716 105.631 117.742 110.221C117.595 111.049 117.29 111.841 116.843 112.554C117.474 113.612 118.426 114.44 119.561 114.919C119.864 115.034 120.193 115.06 120.51 114.993C120.826 114.927 121.117 114.771 121.348 114.544C120.514 112.479 120.278 109.654 121.477 106.059C122.975 101.319 123.617 101.191 123.948 101.105C124.073 101.079 124.203 101.087 124.323 101.128C124.444 101.17 124.551 101.243 124.633 101.34C125.628 102.464 124.44 109.825 123.199 113.463C123.054 113.901 122.852 114.318 122.6 114.705C123.174 115.862 124.109 116.801 125.264 117.38C126.022 117.748 126.864 117.907 127.704 117.84C127.608 117.636 127.522 117.433 127.436 117.219C126.591 114.919 127.008 112.276 128.71 109.109C129.833 107.022 130.753 106.038 131.609 106.038C131.837 106.041 132.058 106.109 132.248 106.234C132.438 106.359 132.587 106.536 132.679 106.744C133.61 108.467 132.936 114.148 131.096 116.973C130.665 117.621 130.066 118.139 129.362 118.471C130.796 120.354 133.525 122.013 137.922 123.703C137.988 123.727 138.049 123.764 138.1 123.811C138.152 123.859 138.193 123.916 138.222 123.98C138.251 124.044 138.267 124.113 138.269 124.183C138.271 124.253 138.258 124.323 138.233 124.388C138.191 124.5 138.114 124.594 138.014 124.658C137.913 124.722 137.795 124.751 137.676 124.741ZM131.599 107.118C131.599 107.118 130.989 107.118 129.641 109.633C128.089 112.5 127.693 114.865 128.432 116.855C128.521 117.102 128.628 117.341 128.753 117.572C129.332 117.333 129.825 116.922 130.165 116.395C131.663 114.105 132.38 109.397 131.823 107.557C131.749 107.183 131.599 107.118 131.599 107.118ZM123.916 102.614C123.337 103.832 122.857 105.095 122.482 106.391C121.662 108.636 121.52 111.074 122.076 113.399L122.172 113.121C123.296 109.729 123.895 106.186 123.948 102.614H123.916ZM116.876 99.2431C116.694 99.4036 116.169 100.078 115.431 102.689C114.558 105.619 114.833 108.771 116.201 111.505C116.421 111.027 116.583 110.524 116.683 110.007C117.828 104.754 117.507 100.003 116.908 99.2431H116.876Z" fill="#263238"/>
<path d="M178.362 180.83C176.652 180.846 174.968 180.407 173.483 179.557C173.361 179.483 173.272 179.365 173.236 179.227C173.2 179.089 173.22 178.942 173.291 178.818C173.326 178.758 173.373 178.705 173.429 178.664C173.485 178.622 173.548 178.591 173.616 178.574C173.684 178.557 173.754 178.554 173.823 178.565C173.892 178.576 173.959 178.6 174.018 178.637C177.838 180.873 182.771 179.311 183.787 177.674C183.861 177.571 183.913 177.455 183.94 177.331C183.968 177.208 183.97 177.081 183.948 176.957C181.994 177.069 180.06 176.518 178.459 175.394C175.73 173.693 175.516 173.18 175.538 172.773C175.543 172.656 175.579 172.543 175.643 172.445C175.707 172.347 175.796 172.268 175.901 172.217C176.971 171.682 181.797 173.896 183.809 175.223C184.05 175.383 184.272 175.57 184.472 175.78C185.263 175.6 185.975 175.173 186.505 174.56C186.804 174.209 187.019 173.796 187.136 173.351H186.922C185.21 173.522 183.498 172.784 181.669 171.093C180.406 169.937 179.925 169.135 180.085 168.504C180.134 168.326 180.232 168.166 180.369 168.043C180.505 167.92 180.674 167.838 180.856 167.808C182.332 167.434 185.992 168.996 187.479 170.633C187.81 170.989 188.046 171.423 188.164 171.896C189.565 171.243 191.042 169.756 192.786 167.327C192.827 167.269 192.878 167.219 192.938 167.182C192.998 167.144 193.064 167.118 193.134 167.106C193.203 167.094 193.275 167.096 193.344 167.112C193.412 167.128 193.478 167.157 193.535 167.198C193.65 167.282 193.727 167.407 193.751 167.547C193.775 167.687 193.744 167.83 193.663 167.947C191.641 170.772 189.95 172.377 188.26 173.03C188.172 173.821 187.848 174.566 187.329 175.17C186.712 175.886 185.903 176.41 184.996 176.678C185.047 176.934 185.047 177.197 184.996 177.452C184.944 177.707 184.843 177.95 184.697 178.166C183.798 179.696 181.209 180.83 178.362 180.83ZM177.41 173.404C177.774 173.672 178.288 174.025 179.026 174.474C180.176 175.25 181.498 175.735 182.878 175.887C181.156 174.854 179.321 174.021 177.41 173.404ZM181.144 168.857C181.452 169.435 181.879 169.942 182.396 170.344C183.98 171.81 185.424 172.484 186.815 172.313H187.158C187.082 171.981 186.919 171.674 186.687 171.425C185.189 169.734 181.893 168.686 181.144 168.857Z" fill="#263238"/>
<path d="M192.53 179.364L175.86 182.392L160.719 99.7671L128.555 105.609L76.125 198.699L81.7532 229.419L149.003 217.21L153.604 242.334L185.768 236.47L181.167 211.347L197.838 208.319L192.53 179.364ZM108.161 194.74L135.981 145.98L143.738 188.288L108.161 194.74Z" fill="#7557E9"/>
<path d="M326.799 94.1603C326.293 88.9662 325.143 83.8552 323.375 78.9449C321.557 74.2414 319.031 69.8429 315.885 65.9016C312.161 61.3163 307.536 57.5435 302.296 54.8164C296.589 51.6849 289.021 49.5057 279.591 48.2787C260.01 45.725 244.751 49.1989 233.816 58.7005C222.881 68.2021 215.676 86.3921 212.202 113.271C210.815 123.316 210.456 133.476 211.132 143.594C211.845 152.868 213.55 160.333 216.247 165.989C219.678 173.618 225.091 180.187 231.922 185.014C238.677 189.758 247.951 192.893 259.742 194.419C280.7 197.151 296.24 193.125 306.362 182.339C316.484 171.553 323.19 153.328 326.478 127.662C327.94 116.549 328.048 105.299 326.799 94.1603Z" fill="#7557E9"/>
<path d="M269.387 183.431C266.809 183.345 264.037 183.11 261.245 182.746C251.443 181.473 243.868 178.99 238.71 175.374C233.567 171.742 229.5 166.788 226.94 161.036L226.887 160.918C224.832 156.638 223.484 150.485 222.896 142.728C222.272 133.41 222.602 124.052 223.88 114.801C227.7 85.1405 235.586 72.7606 241.524 67.6032C248.458 61.5898 257.821 58.872 270.126 59.3C272.651 59.3856 275.326 59.6103 278.076 59.9634C285.972 61.0334 292.232 62.7454 296.662 65.1636C300.489 67.1348 303.878 69.8611 306.623 73.1779C309.025 76.1735 310.956 79.5184 312.348 83.0968C313.769 87.0869 314.689 91.2382 315.087 95.4553C316.228 105.674 316.124 115.993 314.777 126.186C311.813 149.233 306.078 165.433 297.742 174.336C291.558 180.927 282.281 183.966 269.377 183.473L269.387 183.431Z" fill="#263238"/>
<path d="M290.322 94.4704L290.461 90.4151L287.968 89.6019C287.862 88.2303 287.64 86.8701 287.305 85.5359L289.445 83.9737L288.011 80.1645L285.4 80.3785C284.786 79.1542 284.07 77.9838 283.26 76.8796L284.608 74.6219L281.826 71.658L279.494 72.8564C278.45 71.959 277.333 71.1502 276.155 70.4382L276.53 67.8488L272.828 66.1689L271.137 68.1591C269.828 67.7348 268.486 67.4199 267.125 67.2175L266.493 64.6816L262.427 64.5425L261.625 67.0249C260.254 67.1346 258.894 67.3565 257.559 67.6883L255.986 65.5483L252.177 66.9714L252.391 69.5822C251.167 70.1967 249.996 70.9125 248.892 71.7222L246.645 70.3633L243.67 73.1346L244.869 75.4779C243.969 76.5209 243.163 77.6417 242.461 78.827L239.872 78.4311L238.181 82.1333L240.182 83.8239C239.748 85.1339 239.433 86.4804 239.24 87.8471L236.694 88.4891L236.555 92.5337L239.048 93.3469C239.152 94.7222 239.374 96.0861 239.711 97.4236L237.571 98.9751L239.005 102.784L241.616 102.57C242.224 103.798 242.94 104.969 243.756 106.069L242.397 108.327L245.179 111.291L247.511 110.103C248.555 110.997 249.672 111.802 250.85 112.511L250.465 115.1L254.167 116.78L255.868 114.8C257.181 115.222 258.527 115.534 259.891 115.731L260.523 118.278L264.578 118.417L265.38 115.924C266.756 115.819 268.12 115.597 269.457 115.26L271.009 117.4L274.818 115.977L274.615 113.377C275.834 112.755 277.004 112.039 278.113 111.237L280.36 112.585L283.335 109.814L282.147 107.471C283.044 106.431 283.846 105.314 284.544 104.132L287.134 104.518L288.824 100.815L286.834 99.1249C287.26 97.8168 287.571 96.4743 287.765 95.1124L290.322 94.4704ZM262.93 107.599C259.761 107.483 256.697 106.431 254.125 104.576C251.554 102.72 249.589 100.145 248.48 97.1735C247.371 94.2025 247.167 90.9695 247.893 87.8825C248.62 84.7956 250.245 81.9931 252.563 79.8288C254.881 77.6645 257.788 76.2354 260.917 75.7218C264.047 75.2083 267.258 75.6333 270.146 76.9433C273.034 78.2533 275.469 80.3896 277.145 83.0824C278.82 85.7752 279.659 88.9039 279.558 92.0736C279.49 94.1863 279.006 96.2649 278.133 98.1899C277.26 100.115 276.015 101.849 274.47 103.291C272.925 104.734 271.11 105.857 269.13 106.596C267.149 107.336 265.043 107.676 262.93 107.599Z" fill="#7557E9"/>
<path opacity="0.3" d="M307.215 168.921L307.514 166.182L305.866 165.519C305.864 164.587 305.785 163.656 305.631 162.737L307.118 161.785L306.359 159.142H304.582C304.231 158.282 303.805 157.455 303.309 156.67L304.315 155.215L302.603 153.075L300.966 153.76C300.302 153.103 299.587 152.502 298.826 151.962L299.222 150.229L296.814 148.902L295.552 150.175C294.692 149.821 293.804 149.538 292.898 149.33L292.598 147.586L289.87 147.275L289.196 148.923C288.266 148.928 287.339 149.013 286.424 149.18L285.472 147.661L282.829 148.442V150.218C281.969 150.573 281.142 151.003 280.358 151.502L278.902 150.432L276.762 152.144L277.447 153.781C276.795 154.445 276.197 155.161 275.66 155.921L273.927 155.536L272.611 157.943L273.873 159.195C273.515 160.057 273.232 160.949 273.028 161.859L271.273 162.148L270.984 164.877L272.621 165.562C272.622 166.487 272.705 167.411 272.868 168.322L271.359 169.275L272.129 171.917H273.916C274.273 172.773 274.703 173.596 275.2 174.378L274.13 175.834L275.842 177.974L277.501 177.278C278.159 177.937 278.875 178.535 279.641 179.065L279.266 180.831L281.674 182.147L282.926 180.895C283.787 181.24 284.674 181.516 285.579 181.719L285.889 183.473L288.618 183.773L289.281 182.136C290.228 182.135 291.173 182.056 292.106 181.901L293.058 183.409L295.691 182.639V180.863C296.551 180.501 297.381 180.072 298.173 179.579L299.607 180.649L301.747 178.926L301.051 177.289C301.711 176.625 302.315 175.91 302.86 175.149L304.582 175.534L305.909 173.127L304.647 171.885C304.991 171.024 305.266 170.137 305.47 169.232L307.215 168.921ZM293.444 167.851C292.991 168.68 292.303 169.355 291.466 169.793C290.629 170.23 289.681 170.409 288.743 170.307C287.804 170.206 286.917 169.828 286.193 169.222C285.469 168.616 284.941 167.809 284.676 166.903C284.411 165.997 284.42 165.032 284.704 164.132C284.987 163.231 285.531 162.435 286.266 161.843C287.002 161.252 287.897 160.892 288.838 160.809C289.778 160.726 290.722 160.924 291.55 161.378C292.657 161.988 293.477 163.011 293.832 164.224C294.187 165.437 294.047 166.741 293.444 167.851Z" fill="#7557E9"/>
<path d="M322.372 122.676L319.162 120.472C318.846 119.326 318.416 118.215 317.878 117.155L318.691 113.945L314.069 108.991L310.859 109.59C309.84 108.984 308.765 108.478 307.649 108.081L305.669 104.743L298.896 104.518L296.692 107.728C295.545 108.039 294.433 108.47 293.375 109.012L290.165 108.188L285.211 112.821L285.81 116.031C285.195 117.045 284.689 118.121 284.301 119.241L280.974 121.221L280.738 127.994L283.948 130.198C284.259 131.352 284.69 132.471 285.232 133.536L284.419 136.746L289.041 141.701L292.251 141.112C293.27 141.717 294.345 142.223 295.461 142.621L297.43 145.948L304.214 146.184L306.408 142.974C307.564 142.66 308.686 142.23 309.757 141.69L312.967 142.503L317.921 137.881L317.332 134.671C317.94 133.653 318.446 132.578 318.841 131.461L322.169 129.481L322.372 122.676ZM301.261 132.969C299.755 132.918 298.298 132.421 297.075 131.541C295.851 130.661 294.916 129.438 294.388 128.027C293.859 126.616 293.761 125.08 294.106 123.613C294.45 122.146 295.222 120.814 296.324 119.786C297.425 118.758 298.807 118.08 300.294 117.837C301.781 117.594 303.307 117.797 304.679 118.422C306.05 119.046 307.205 120.063 307.999 121.344C308.792 122.625 309.188 124.113 309.136 125.618C309.064 127.637 308.194 129.544 306.718 130.921C305.241 132.299 303.279 133.036 301.261 132.969Z" fill="white"/>
<path d="M345.606 68.6088L346.162 67.2713C346.541 67.0581 346.899 66.811 347.232 66.533H348.474L349.929 64.393L349.458 63.2481C349.638 62.8667 349.782 62.469 349.886 62.0604L350.956 61.076L350.507 58.5615L349.158 58.0051C348.947 57.6256 348.7 57.2673 348.42 56.9351V55.6939L346.334 54.2387L345.178 54.7202C344.756 54.5714 344.318 54.4709 343.873 54.4206L342.888 53.3506L340.384 53.8L339.817 55.1482C339.42 55.354 339.044 55.5977 338.694 55.8758H337.463L336.008 58.0158L336.479 59.1607C336.335 59.5846 336.235 60.0219 336.179 60.4661L335.109 61.4612L335.559 63.965L336.907 64.5214C337.111 64.9027 337.355 65.2614 337.635 65.5914V66.8219L339.775 68.2771L340.919 67.8063C341.348 67.9454 341.788 68.0422 342.236 68.0952L343.22 69.1652L345.606 68.6088ZM340.256 61.6752C340.155 61.1169 340.222 60.5411 340.448 60.0208C340.674 59.5004 341.049 59.0588 341.527 58.7519C342.004 58.445 342.561 58.2866 343.129 58.2966C343.696 58.3067 344.247 58.4849 344.714 58.8085C345.18 59.1322 345.539 59.5868 345.747 60.1149C345.954 60.643 346 61.2207 345.879 61.7751C345.758 62.3294 345.476 62.8354 345.067 63.2291C344.658 63.6227 344.142 63.8863 343.584 63.9864C342.836 64.1175 342.068 63.9483 341.444 63.5154C340.821 63.0826 340.394 62.4213 340.256 61.6752Z" fill="#7557E9"/>
<path d="M316.293 61.5147L315.469 60.8192C317.234 58.6293 319.416 56.811 321.889 55.4692L322.392 56.4108C320.04 57.691 317.967 59.4259 316.293 61.5147Z" fill="#7557E9"/>
<path d="M324.835 55.4264L324.418 54.442C328.369 52.7249 332.69 52.033 336.98 52.4304L336.873 53.5004C332.762 53.1129 328.62 53.7756 324.835 55.4264Z" fill="#7557E9"/>
<path d="M322.811 62.8305L321.934 62.2313C324.511 58.7503 328.263 56.3212 332.494 55.394L332.698 56.464C328.744 57.3276 325.233 59.588 322.811 62.8305Z" fill="#7557E9"/>
<path d="M251.81 165.85C251.665 165.846 251.526 165.785 251.425 165.679L249.189 163.368C248.049 163.265 246.921 163.057 245.818 162.747L242.32 164.288C242.242 164.33 242.156 164.352 242.068 164.352C241.98 164.352 241.894 164.33 241.817 164.288L235.953 160.404C235.877 160.354 235.816 160.286 235.775 160.205C235.733 160.124 235.714 160.035 235.718 159.944V156.135C235.002 155.24 234.372 154.28 233.834 153.267L230.828 152.112C230.744 152.079 230.669 152.026 230.611 151.956C230.553 151.887 230.513 151.804 230.496 151.716L229.105 144.825C229.087 144.737 229.091 144.646 229.117 144.56C229.143 144.474 229.191 144.396 229.255 144.333L231.566 142.096C231.677 140.957 231.884 139.83 232.187 138.726L230.646 135.227C230.604 135.15 230.582 135.063 230.582 134.976C230.582 134.888 230.604 134.801 230.646 134.724L234.53 128.861C234.578 128.783 234.646 128.721 234.727 128.679C234.809 128.638 234.899 128.619 234.99 128.625L238.799 128.679C239.692 127.959 240.652 127.329 241.667 126.795L242.833 123.789C242.864 123.705 242.916 123.631 242.983 123.573C243.05 123.515 243.131 123.475 243.218 123.457L250.109 122.066C250.197 122.047 250.289 122.05 250.375 122.076C250.461 122.103 250.539 122.151 250.601 122.216L252.838 124.527C253.981 124.631 255.113 124.839 256.219 125.148L259.707 123.607C259.786 123.565 259.874 123.543 259.964 123.543C260.053 123.543 260.142 123.565 260.221 123.607L266.074 127.491C266.148 127.543 266.209 127.612 266.252 127.692C266.294 127.772 266.318 127.86 266.32 127.951L266.255 131.76C266.975 132.655 267.609 133.615 268.149 134.628L271.145 135.794C271.229 135.825 271.303 135.876 271.361 135.944C271.419 136.011 271.459 136.092 271.477 136.179L272.879 143.07C272.895 143.158 272.89 143.249 272.864 143.335C272.838 143.42 272.792 143.498 272.729 143.562L270.407 145.809C270.3 146.945 270.092 148.07 269.786 149.169L271.327 152.668C271.369 152.747 271.391 152.835 271.391 152.925C271.391 153.014 271.369 153.103 271.327 153.182L267.497 158.992C267.446 159.064 267.379 159.124 267.301 159.165C267.223 159.206 267.136 159.227 267.047 159.227L263.227 159.174C262.332 159.883 261.376 160.513 260.37 161.057L259.204 164.064C259.172 164.148 259.119 164.223 259.05 164.282C258.981 164.34 258.897 164.379 258.808 164.395L251.917 165.85H251.81ZM245.786 161.57C245.836 161.561 245.887 161.561 245.936 161.57C247.092 161.907 248.278 162.126 249.478 162.223C249.606 162.238 249.726 162.295 249.82 162.384L251.96 164.631L258.273 163.357L259.407 160.426C259.46 160.307 259.55 160.209 259.664 160.147C260.733 159.595 261.741 158.931 262.671 158.168C262.769 158.085 262.896 158.043 263.024 158.05L266.737 158.104L270.289 152.754L268.791 149.351C268.749 149.234 268.749 149.105 268.791 148.987C269.122 147.83 269.341 146.644 269.444 145.446C269.455 145.316 269.512 145.195 269.605 145.103L271.852 142.963L270.578 136.65L267.657 135.516C267.532 135.47 267.428 135.378 267.368 135.259C266.813 134.192 266.15 133.184 265.389 132.252C265.312 132.155 265.271 132.034 265.271 131.91V128.186L259.921 124.634L256.529 126.132C256.408 126.175 256.276 126.175 256.155 126.132C254.995 125.797 253.805 125.579 252.602 125.479C252.474 125.464 252.354 125.408 252.26 125.319L250.12 123.072L243.807 124.356L242.683 127.33C242.639 127.453 242.551 127.556 242.437 127.619C241.364 128.171 240.353 128.834 239.42 129.599C239.374 129.641 239.32 129.673 239.261 129.693C239.202 129.713 239.14 129.721 239.077 129.717L235.365 129.663L231.801 135.013L233.299 138.416C233.334 138.488 233.351 138.566 233.351 138.646C233.351 138.725 233.334 138.804 233.299 138.876C232.982 140.005 232.775 141.163 232.679 142.332C232.669 142.462 232.612 142.583 232.518 142.674L230.271 144.814L231.555 151.127L234.466 152.261C234.596 152.315 234.702 152.414 234.765 152.54C235.317 153.6 235.977 154.6 236.734 155.525C236.814 155.621 236.856 155.743 236.852 155.867V159.591L242.202 163.143L245.604 161.645C245.66 161.61 245.722 161.584 245.786 161.57ZM251.04 158.104C248.465 158.101 245.938 157.401 243.729 156.078C241.519 154.754 239.71 152.857 238.493 150.587C237.275 148.317 236.696 145.76 236.816 143.187C236.936 140.615 237.751 138.123 239.174 135.976C240.535 133.917 242.407 132.246 244.608 131.127C246.808 130.008 249.261 129.479 251.727 129.593C254.193 129.706 256.587 130.457 258.676 131.773C260.765 133.089 262.476 134.924 263.642 137.1C264.809 139.275 265.391 141.716 265.332 144.184C265.272 146.652 264.573 149.062 263.303 151.179C262.033 153.296 260.235 155.047 258.086 156.26C255.936 157.474 253.509 158.109 251.04 158.104ZM240.073 136.565C238.632 138.738 237.869 141.289 237.878 143.896C237.888 146.503 238.67 149.048 240.127 151.211C241.583 153.373 243.647 155.055 246.06 156.044C248.472 157.033 251.123 157.285 253.678 156.767C256.233 156.25 258.577 154.986 260.414 153.136C262.251 151.286 263.499 148.933 263.998 146.375C264.498 143.816 264.228 141.167 263.223 138.762C262.217 136.357 260.521 134.304 258.348 132.862C256.907 131.898 255.29 131.229 253.589 130.893C251.889 130.557 250.138 130.561 248.439 130.905C246.74 131.25 245.126 131.927 243.69 132.898C242.254 133.87 241.024 135.116 240.073 136.565Z" fill="white"/>
<path d="M455.638 189.016L438.839 186.747L449.946 103.491L417.546 99.125L338.954 171.478L334.824 202.434L402.545 211.571L399.163 236.898L431.563 241.264L434.944 215.948L451.743 218.216L455.638 189.016ZM370.659 177.545L412.132 139.742L406.439 182.371L370.659 177.545Z" fill="#7557E9"/>
<path d="M421.716 240.472H421.577C421.438 240.446 421.315 240.366 421.235 240.25C421.155 240.134 421.124 239.991 421.149 239.852L446.187 102.956C446.216 102.818 446.296 102.697 446.412 102.617C446.527 102.538 446.669 102.506 446.808 102.528C446.946 102.554 447.069 102.634 447.15 102.75C447.23 102.866 447.261 103.009 447.236 103.148L422.251 240.034C422.226 240.157 422.16 240.269 422.062 240.349C421.965 240.428 421.842 240.472 421.716 240.472Z" fill="#263238"/>
<path d="M443.861 105.256C443.852 105.488 443.752 105.708 443.581 105.867C443.411 106.025 443.184 106.11 442.951 106.101C442.719 106.093 442.499 105.992 442.34 105.821C442.182 105.651 442.098 105.424 442.106 105.192C442.115 104.959 442.215 104.739 442.386 104.581C442.556 104.422 442.783 104.338 443.016 104.346C443.248 104.355 443.468 104.455 443.627 104.626C443.785 104.797 443.869 105.023 443.861 105.256Z" fill="#263238"/>
<path d="M440.301 123.767C440.295 123.941 440.237 124.108 440.135 124.249C440.034 124.39 439.893 124.497 439.73 124.557C439.567 124.618 439.39 124.629 439.222 124.588C439.053 124.548 438.9 124.459 438.782 124.332C438.663 124.205 438.586 124.046 438.558 123.875C438.53 123.703 438.554 123.528 438.626 123.37C438.699 123.212 438.816 123.079 438.963 122.988C439.111 122.897 439.282 122.852 439.456 122.858C439.571 122.862 439.684 122.889 439.789 122.937C439.894 122.985 439.988 123.053 440.067 123.138C440.145 123.222 440.207 123.321 440.247 123.429C440.287 123.537 440.305 123.652 440.301 123.767Z" fill="#263238"/>
<path d="M436.74 142.31C436.736 142.425 436.709 142.539 436.661 142.643C436.613 142.748 436.545 142.843 436.46 142.921C436.376 143 436.277 143.061 436.169 143.101C436.06 143.141 435.946 143.16 435.83 143.155C435.716 143.153 435.602 143.127 435.498 143.08C435.393 143.033 435.298 142.966 435.22 142.883C435.141 142.799 435.08 142.701 435.04 142.593C434.999 142.486 434.981 142.371 434.985 142.257C434.988 142.14 435.014 142.026 435.061 141.92C435.108 141.814 435.176 141.718 435.261 141.638C435.345 141.559 435.445 141.497 435.554 141.456C435.663 141.415 435.778 141.396 435.894 141.4C436.126 141.412 436.345 141.513 436.502 141.683C436.66 141.853 436.746 142.078 436.74 142.31Z" fill="#263238"/>
<path d="M429.722 161.57C429.698 161.785 429.596 161.983 429.435 162.127C429.274 162.271 429.066 162.351 428.85 162.351C428.634 162.351 428.426 162.271 428.265 162.127C428.104 161.983 428.002 161.785 427.978 161.57C427.964 161.448 427.977 161.324 428.014 161.206C428.052 161.089 428.114 160.98 428.196 160.888C428.279 160.796 428.379 160.723 428.492 160.673C428.605 160.622 428.727 160.596 428.85 160.596C428.973 160.596 429.095 160.622 429.208 160.673C429.321 160.723 429.421 160.796 429.504 160.888C429.586 160.98 429.648 161.089 429.686 161.206C429.723 161.324 429.736 161.448 429.722 161.57Z" fill="#263238"/>
<path d="M429.602 179.3C429.599 179.416 429.573 179.53 429.526 179.635C429.478 179.741 429.41 179.836 429.325 179.915C429.241 179.993 429.141 180.054 429.032 180.094C428.924 180.134 428.808 180.151 428.692 180.145C428.519 180.139 428.351 180.081 428.211 179.979C428.07 179.878 427.963 179.737 427.903 179.574C427.842 179.412 427.831 179.235 427.871 179.066C427.911 178.897 428.001 178.744 428.128 178.626C428.255 178.508 428.414 178.43 428.585 178.402C428.757 178.375 428.932 178.398 429.09 178.471C429.248 178.543 429.381 178.66 429.472 178.808C429.563 178.955 429.608 179.127 429.602 179.3Z" fill="#263238"/>
<path d="M426.04 197.811C426.035 197.985 425.979 198.154 425.879 198.296C425.779 198.438 425.638 198.547 425.476 198.609C425.313 198.671 425.136 198.684 424.966 198.645C424.797 198.606 424.643 198.517 424.523 198.391C424.404 198.264 424.325 198.105 424.297 197.933C424.269 197.761 424.292 197.585 424.364 197.427C424.436 197.268 424.553 197.135 424.701 197.043C424.849 196.952 425.021 196.906 425.194 196.913C425.425 196.921 425.643 197.02 425.802 197.188C425.96 197.357 426.045 197.581 426.04 197.811Z" fill="#263238"/>
<path d="M422.47 216.322C422.462 216.556 422.362 216.777 422.191 216.937C422.021 217.097 421.794 217.184 421.561 217.178C421.445 217.174 421.332 217.147 421.227 217.099C421.122 217.051 421.028 216.983 420.95 216.899C420.871 216.814 420.81 216.715 420.77 216.607C420.73 216.499 420.711 216.384 420.715 216.269C420.719 216.153 420.745 216.04 420.792 215.935C420.84 215.83 420.907 215.735 420.991 215.656C421.075 215.577 421.174 215.515 421.282 215.474C421.39 215.434 421.504 215.414 421.62 215.418C421.735 215.421 421.848 215.448 421.953 215.495C422.058 215.542 422.153 215.61 422.232 215.694C422.311 215.778 422.373 215.876 422.414 215.984C422.455 216.092 422.474 216.207 422.47 216.322Z" fill="#263238"/>
<path d="M418.899 234.844C418.892 235.018 418.835 235.185 418.733 235.326C418.631 235.466 418.49 235.573 418.328 235.634C418.165 235.694 417.988 235.705 417.819 235.665C417.65 235.625 417.497 235.536 417.379 235.409C417.261 235.282 417.183 235.122 417.156 234.951C417.128 234.78 417.152 234.604 417.224 234.447C417.296 234.289 417.413 234.156 417.561 234.065C417.709 233.974 417.88 233.928 418.053 233.935C418.169 233.937 418.283 233.963 418.389 234.011C418.494 234.058 418.589 234.126 418.668 234.211C418.747 234.296 418.808 234.396 418.847 234.504C418.887 234.613 418.904 234.729 418.899 234.844Z" fill="#263238"/>
<path d="M428.844 162.052C428.723 162.052 428.606 162.011 428.513 161.935C428.419 161.859 428.355 161.753 428.33 161.635C428.314 161.566 428.312 161.495 428.324 161.425C428.336 161.355 428.362 161.289 428.399 161.229C428.437 161.169 428.486 161.118 428.544 161.077C428.602 161.037 428.668 161.008 428.737 160.993L431.39 160.426C431.46 160.41 431.532 160.408 431.602 160.421C431.672 160.434 431.739 160.46 431.799 160.499C431.859 160.538 431.91 160.588 431.95 160.647C431.99 160.706 432.018 160.773 432.032 160.843C432.046 160.912 432.047 160.983 432.033 161.052C432.02 161.121 431.993 161.186 431.954 161.245C431.915 161.304 431.866 161.354 431.807 161.393C431.749 161.433 431.684 161.46 431.615 161.474L428.961 162.041L428.844 162.052Z" fill="#263238"/>
<path d="M437.712 152.197C436.449 155.471 435.378 158.815 434.502 162.212C433.699 165.99 433.656 174.443 433.656 174.443" fill="#263238"/>
<path d="M433.652 174.977C433.51 174.972 433.376 174.912 433.276 174.811C433.177 174.709 433.12 174.574 433.117 174.432C433.117 174.089 433.181 165.872 433.984 162.105C434.855 158.678 435.927 155.305 437.194 152.004C437.215 151.934 437.251 151.869 437.299 151.813C437.347 151.757 437.405 151.711 437.472 151.679C437.538 151.647 437.61 151.629 437.683 151.625C437.757 151.622 437.83 151.635 437.899 151.661C437.968 151.688 438.03 151.728 438.082 151.78C438.135 151.832 438.176 151.894 438.203 151.962C438.23 152.03 438.243 152.104 438.24 152.177C438.238 152.251 438.221 152.323 438.189 152.39C436.928 155.638 435.856 158.957 434.979 162.33C434.198 166.011 434.144 174.357 434.134 174.442C434.134 174.575 434.085 174.704 433.996 174.803C433.907 174.902 433.785 174.964 433.652 174.977Z" fill="#263238"/>
<path d="M238.023 267.329C239.511 243.361 236.782 199.78 281.84 205.558C330.129 211.732 316.315 268.206 316.315 268.206L238.023 267.329Z" fill="#263238"/>
<path d="M269.116 252.927C279.977 252.927 288.782 244.122 288.782 233.26C288.782 222.399 279.977 213.594 269.116 213.594C258.254 213.594 249.449 222.399 249.449 233.26C249.449 244.122 258.254 252.927 269.116 252.927Z" fill="white"/>
<path d="M271.708 213.625C262.389 212.042 252.448 218.9 251.453 225.855L288.379 229.258C287.073 221.329 279.091 214.888 271.708 213.625Z" fill="#263238"/>
<path d="M284.166 232.768C283.898 237.915 281.095 241.949 277.906 241.777C274.718 241.606 272.342 237.316 272.556 232.147C272.77 226.979 275.627 222.967 278.816 223.138C282.004 223.309 284.423 227.632 284.166 232.768Z" fill="#263238"/>
<path d="M269.112 253.997C265.01 253.997 261.001 252.78 257.591 250.502C254.181 248.223 251.523 244.985 249.953 241.196C248.384 237.406 247.973 233.237 248.773 229.215C249.574 225.192 251.549 221.497 254.449 218.597C257.349 215.697 261.044 213.722 265.066 212.922C269.089 212.122 273.258 212.532 277.047 214.102C280.836 215.671 284.075 218.329 286.353 221.739C288.632 225.15 289.848 229.159 289.848 233.26C289.843 238.758 287.656 244.029 283.768 247.917C279.881 251.804 274.61 253.991 269.112 253.997ZM269.112 214.674C265.433 214.674 261.837 215.765 258.779 217.809C255.72 219.853 253.337 222.758 251.93 226.157C250.522 229.555 250.155 233.295 250.873 236.903C251.592 240.51 253.364 243.824 255.966 246.424C258.567 249.025 261.882 250.795 265.49 251.511C269.098 252.228 272.838 251.858 276.236 250.449C279.634 249.04 282.537 246.654 284.579 243.595C286.621 240.535 287.71 236.939 287.708 233.26C287.703 228.331 285.741 223.605 282.254 220.12C278.768 216.636 274.041 214.677 269.112 214.674Z" fill="#7557E9"/>
<path opacity="0.3" d="M310.819 266.73H310.691C310.622 266.715 310.557 266.686 310.5 266.645C310.442 266.605 310.394 266.553 310.357 266.493C310.32 266.433 310.295 266.366 310.285 266.297C310.274 266.227 310.278 266.156 310.295 266.088C310.295 265.949 313.74 251.44 310.199 236.77C310.165 236.628 310.188 236.478 310.265 236.354C310.341 236.23 310.464 236.141 310.605 236.107C310.747 236.072 310.897 236.096 311.021 236.172C311.146 236.249 311.235 236.371 311.269 236.513C314.875 251.493 311.397 266.195 311.365 266.334C311.333 266.453 311.262 266.557 311.162 266.629C311.063 266.701 310.942 266.737 310.819 266.73Z" fill="white"/>
<path opacity="0.3" d="M307.836 228.723C307.733 228.722 307.633 228.692 307.546 228.638C307.459 228.583 307.389 228.505 307.343 228.413C306.014 225.473 304.309 222.718 302.272 220.217C302.183 220.107 302.141 219.967 302.155 219.827C302.169 219.687 302.238 219.558 302.346 219.468C302.401 219.422 302.464 219.388 302.532 219.367C302.6 219.346 302.671 219.339 302.742 219.346C302.813 219.353 302.881 219.374 302.944 219.408C303.006 219.441 303.062 219.487 303.106 219.543C305.194 222.117 306.945 224.947 308.317 227.964C308.348 228.027 308.365 228.095 308.369 228.165C308.372 228.235 308.362 228.305 308.338 228.371C308.314 228.437 308.277 228.497 308.229 228.548C308.182 228.6 308.124 228.641 308.06 228.67C307.99 228.702 307.913 228.721 307.836 228.723Z" fill="white"/>
<path d="M137.739 379.765H137.343C135.924 379.725 134.579 379.123 133.604 378.092C132.629 377.06 132.103 375.684 132.143 374.265C132.182 372.846 132.784 371.501 133.816 370.526C134.847 369.55 136.224 369.025 137.643 369.065H137.739C140.831 369.065 148.268 365.309 163.825 340.784C164.238 340.133 164.787 339.579 165.435 339.159C166.082 338.74 166.812 338.466 167.575 338.355C168.338 338.244 169.117 338.3 169.856 338.518C170.596 338.736 171.28 339.111 171.861 339.618C184.079 350.121 197.404 359.263 211.601 366.882C212.258 367.181 212.848 367.609 213.335 368.142C213.822 368.675 214.196 369.3 214.435 369.981C214.673 370.663 214.772 371.385 214.724 372.105C214.677 372.825 214.484 373.528 214.157 374.172C213.831 374.816 213.377 375.387 212.824 375.851C212.271 376.314 211.63 376.662 210.94 376.871C210.249 377.081 209.523 377.148 208.805 377.07C208.088 376.992 207.394 376.769 206.765 376.415C193.57 369.404 181.098 361.111 169.529 351.656C156.485 371.29 146.812 379.765 137.739 379.765Z" fill="#263238"/>
<path d="M170.849 338.655H170.389C169.548 338.533 168.789 338.083 168.28 337.403C167.771 336.723 167.551 335.869 167.671 335.028C168.43 329.678 167.489 309.744 160.737 294.229C160.438 293.543 160.387 292.774 160.594 292.055C160.801 291.336 161.253 290.712 161.871 290.291C176.53 280.308 207.753 279.11 209.08 279.067C209.501 279.053 209.921 279.122 210.316 279.27C210.711 279.418 211.073 279.643 211.381 279.931C211.689 280.219 211.937 280.565 212.111 280.949C212.286 281.334 212.383 281.748 212.397 282.17C212.411 282.591 212.342 283.011 212.193 283.406C212.045 283.801 211.82 284.163 211.532 284.471C211.244 284.779 210.898 285.027 210.514 285.201C210.13 285.376 209.715 285.473 209.294 285.487C209.005 285.487 181.709 286.557 167.692 294.261C173.663 309.712 175.022 328.961 174.027 335.927C173.911 336.686 173.527 337.38 172.944 337.881C172.361 338.381 171.617 338.656 170.849 338.655Z" fill="#263238"/>
<path d="M176.241 334.504C174.101 329.464 164.471 330.031 158.832 334.354C155.814 336.654 151.727 343.599 151.342 346.124C151.213 346.724 151.233 347.346 151.398 347.937C151.563 348.528 151.869 349.07 152.29 349.516C152.711 349.962 153.235 350.3 153.815 350.499C154.395 350.699 155.015 350.754 155.622 350.661C159.313 350.34 164.374 344.979 164.374 344.979C161.004 348.285 165.359 350.618 171.864 345.835C175.417 343.171 178.627 340.142 176.241 334.504Z" fill="#7557E9"/>
<path d="M360.28 268.741C360.231 268.752 360.179 268.752 360.13 268.741C360.062 268.723 359.998 268.691 359.942 268.647C359.887 268.604 359.841 268.549 359.807 268.487C359.773 268.425 359.752 268.357 359.745 268.287C359.738 268.216 359.745 268.145 359.766 268.078C361.189 263.113 362.741 260.085 364.785 258.448C364.464 257.297 364.524 256.074 364.956 254.96C365.454 253.659 366.335 252.54 367.481 251.75C367.169 251.413 366.948 251.003 366.838 250.558C366.727 250.112 366.731 249.646 366.85 249.203C367.237 247.863 368.039 246.679 369.139 245.822C368.742 245.378 368.525 244.802 368.53 244.206C368.53 240.996 374.425 236.16 381.113 235.24C381.255 235.22 381.399 235.257 381.513 235.343C381.627 235.43 381.703 235.558 381.723 235.7C381.743 235.842 381.705 235.986 381.619 236.1C381.533 236.214 381.405 236.29 381.263 236.31C374.907 237.176 369.578 241.777 369.6 244.206C369.597 244.568 369.735 244.917 369.985 245.18C371.424 244.204 373.044 243.524 374.748 243.181C376.453 242.837 378.209 242.837 379.914 243.179C383.199 243.81 384.537 244.506 384.387 245.501C384.087 247.373 377.1 247.769 372.414 247.213C371.574 247.137 370.757 246.901 370.006 246.517C368.997 247.236 368.247 248.26 367.866 249.438C367.774 249.75 367.775 250.082 367.868 250.394C367.961 250.705 368.143 250.983 368.391 251.193C370.381 250.123 373.173 249.738 376.865 250.551C381.712 251.621 381.894 252.21 382.012 252.563C382.049 252.688 382.052 252.82 382.02 252.947C381.988 253.073 381.922 253.188 381.83 253.28C380.813 254.35 373.377 253.847 369.642 252.927C369.192 252.824 368.756 252.662 368.348 252.445C367.242 253.117 366.392 254.137 365.929 255.345C365.621 256.126 365.535 256.979 365.683 257.806C365.874 257.692 366.07 257.588 366.272 257.496C368.487 256.426 371.162 256.618 374.468 258.031C376.608 258.961 377.678 259.796 377.785 260.641C377.79 260.858 377.736 261.072 377.628 261.261C377.521 261.449 377.364 261.605 377.175 261.711C375.538 262.781 369.824 262.632 366.85 261.048C366.166 260.676 365.596 260.125 365.202 259.454C363.458 261.059 362.045 263.916 360.761 268.399C360.722 268.496 360.656 268.58 360.571 268.641C360.486 268.702 360.385 268.736 360.28 268.741ZM366.079 258.758C366.377 259.312 366.831 259.766 367.385 260.064C369.803 261.348 374.554 261.636 376.33 260.92C376.694 260.77 376.747 260.652 376.747 260.652C376.747 260.652 376.694 260.053 374.072 258.929C371.076 257.645 368.722 257.463 366.764 258.373C366.528 258.487 366.299 258.615 366.079 258.758ZM369.653 251.728L369.921 251.803C373.405 252.606 376.991 252.877 380.556 252.606C379.292 252.137 377.988 251.779 376.662 251.536C374.357 250.911 371.92 250.978 369.653 251.728ZM371.001 245.715C371.495 245.892 372.009 246.007 372.531 246.057C377.881 246.689 382.579 245.95 383.231 245.276C383.05 245.116 382.333 244.656 379.679 244.153C376.693 243.557 373.592 244.115 371.001 245.715Z" fill="#263238"/>
<path d="M220.991 377.977C221.697 377.753 221.462 377.068 220.67 377.068H206.182C178.597 374.147 159.327 378.063 171.471 378.983C183.616 379.903 170.615 379.711 161.745 383.07C152.875 386.43 227.71 387.276 234.505 383.07C240.754 379.197 211.211 381.112 220.991 377.977Z" fill="#263238"/>
<path d="M324.712 382.247L198.666 378.063L193.434 255.848L342.281 259.175L324.712 382.247Z" fill="#7557E9"/>
<path d="M238.028 379.903C237.893 379.904 237.763 379.853 237.664 379.762C237.564 379.671 237.503 379.546 237.493 379.411L227.392 256.661C227.383 256.52 227.429 256.38 227.521 256.272C227.613 256.165 227.743 256.097 227.884 256.083C228.025 256.077 228.163 256.124 228.27 256.215C228.377 256.307 228.446 256.435 228.462 256.575L238.616 379.326C238.622 379.396 238.614 379.467 238.592 379.534C238.571 379.601 238.536 379.663 238.49 379.717C238.444 379.771 238.388 379.815 238.326 379.847C238.263 379.879 238.194 379.898 238.124 379.903H238.028Z" fill="#263238"/>
<path d="M324.719 382.247L358.595 377.089L369.263 263.445L342.288 259.175L324.719 382.247Z" fill="#7557E9"/>
<path opacity="0.2" d="M324.719 382.247L358.595 377.089L369.263 263.445L342.288 259.175L324.719 382.247Z" fill="black"/>
<path d="M209.424 354.512L206.321 281.891C206.244 280.097 206.536 278.306 207.179 276.63C207.822 274.953 208.803 273.427 210.059 272.144C211.316 270.861 212.822 269.85 214.485 269.172C216.148 268.495 217.932 268.166 219.728 268.206L313.952 270.346C315.807 270.388 317.633 270.823 319.308 271.621C320.983 272.42 322.469 273.565 323.669 274.981C324.87 276.396 325.756 278.05 326.27 279.834C326.785 281.617 326.915 283.489 326.653 285.326L316.21 358.45C315.758 361.652 314.14 364.575 311.665 366.659C309.191 368.742 306.035 369.838 302.802 369.738L222.135 367.063C218.824 366.961 215.673 365.611 213.316 363.283C210.958 360.955 209.568 357.822 209.424 354.512Z" fill="#263238"/>
<path d="M219.622 290.494L234.195 290.954L234.077 294.71L224.95 294.421L224.865 297.224L233.328 297.492L233.211 301.087L224.747 300.809L224.64 304.286L234.024 304.586L233.896 308.566L219.055 308.096L219.622 290.494Z" fill="white"/>
<path d="M236.898 308.663L237.455 291.062L246.528 291.35C247.829 291.344 249.124 291.531 250.37 291.907C251.253 292.202 252.008 292.792 252.51 293.576C252.882 294.147 253.132 294.789 253.245 295.461C253.358 296.134 253.331 296.822 253.167 297.484C253.002 298.145 252.703 298.766 252.288 299.306C251.873 299.847 251.351 300.297 250.755 300.627C250.147 300.941 249.493 301.157 248.818 301.269C249.316 301.43 249.788 301.66 250.22 301.954C250.532 302.244 250.812 302.567 251.055 302.917C251.33 303.25 251.574 303.608 251.782 303.987L254.254 309.177L248.112 308.973L245.373 303.506C245.155 302.983 244.835 302.51 244.431 302.115C244.047 301.837 243.589 301.68 243.115 301.665H242.634L242.409 308.802L236.898 308.663ZM242.698 298.37L244.988 298.445C245.474 298.415 245.957 298.347 246.432 298.241C246.79 298.187 247.115 298 247.342 297.717C247.573 297.432 247.705 297.078 247.716 296.711C247.736 296.466 247.702 296.22 247.615 295.991C247.528 295.761 247.391 295.554 247.213 295.384C246.616 294.999 245.911 294.815 245.202 294.86L242.805 294.785L242.698 298.37Z" fill="white"/>
<path d="M256.023 309.23L256.58 291.628L265.643 291.917C266.944 291.91 268.239 292.097 269.484 292.474C270.369 292.766 271.125 293.356 271.624 294.143C272.167 295 272.422 296.009 272.352 297.021C272.355 297.875 272.127 298.714 271.691 299.449C271.256 300.183 270.63 300.787 269.88 301.194C269.271 301.506 268.618 301.722 267.943 301.836C268.438 301.996 268.906 302.226 269.334 302.521C269.654 302.802 269.938 303.122 270.18 303.473C270.453 303.808 270.697 304.166 270.907 304.543L273.379 309.722L267.237 309.53L264.498 304.062C264.279 303.541 263.959 303.068 263.556 302.671C263.174 302.382 262.709 302.225 262.229 302.221H261.759L261.523 309.369L256.023 309.23ZM261.812 298.937L264.113 299.001C264.599 298.982 265.083 298.918 265.557 298.808C265.913 298.755 266.235 298.567 266.456 298.284C266.696 298.003 266.828 297.647 266.83 297.278C266.854 297.034 266.821 296.788 266.736 296.558C266.651 296.329 266.515 296.121 266.338 295.951C265.741 295.556 265.03 295.371 264.316 295.427L261.93 295.352L261.812 298.937Z" fill="white"/>
<path d="M274.266 301.055C274.183 299.827 274.374 298.595 274.824 297.449C275.274 296.304 275.972 295.272 276.868 294.428C277.764 293.584 278.836 292.949 280.007 292.568C281.178 292.188 282.418 292.071 283.639 292.227C284.871 292.187 286.099 292.394 287.25 292.837C288.401 293.28 289.451 293.949 290.337 294.806C291.129 295.717 291.727 296.78 292.095 297.93C292.462 299.08 292.593 300.292 292.477 301.494C292.486 303.242 292.075 304.966 291.279 306.523C290.557 307.796 289.479 308.83 288.176 309.497C286.64 310.231 284.941 310.556 283.243 310.439C281.55 310.453 279.876 310.087 278.343 309.369C277.038 308.661 275.972 307.581 275.282 306.266C274.473 304.655 274.122 302.852 274.266 301.055ZM279.702 301.248C279.541 302.596 279.847 303.959 280.568 305.11C280.906 305.487 281.315 305.792 281.773 306.006C282.231 306.221 282.727 306.342 283.232 306.361C283.737 306.38 284.241 306.297 284.714 306.117C285.186 305.937 285.618 305.664 285.982 305.314C286.776 304.112 287.152 302.684 287.052 301.248C287.196 299.958 286.882 298.659 286.164 297.577C285.84 297.204 285.439 296.904 284.988 296.699C284.538 296.494 284.049 296.389 283.554 296.39C283.054 296.354 282.553 296.431 282.088 296.617C281.623 296.802 281.206 297.09 280.868 297.46C280.058 298.552 279.646 299.889 279.702 301.248Z" fill="white"/>
<path d="M295.219 310.525L295.775 292.913L304.838 293.201C306.139 293.199 307.433 293.387 308.679 293.758C309.56 294.058 310.314 294.646 310.819 295.427C311.36 296.286 311.614 297.293 311.547 298.305C311.552 299.161 311.325 300.002 310.89 300.739C310.454 301.476 309.827 302.081 309.075 302.489C308.464 302.792 307.811 303.005 307.139 303.12C307.634 303.283 308.102 303.518 308.53 303.816C308.849 304.097 309.133 304.417 309.375 304.768C309.65 305.101 309.894 305.459 310.102 305.838L312.574 311.028L306.432 310.835L303.693 305.357C303.475 304.838 303.155 304.368 302.752 303.976C302.368 303.689 301.904 303.528 301.425 303.516H300.954L300.719 310.664L295.219 310.525ZM301.007 300.221L303.308 300.296C303.794 300.277 304.278 300.213 304.752 300.103C305.107 300.046 305.427 299.859 305.651 299.579C305.904 299.28 306.037 298.899 306.026 298.509C306.049 298.266 306.017 298.022 305.931 297.794C305.846 297.566 305.71 297.36 305.534 297.193C304.937 296.797 304.225 296.613 303.511 296.668L301.125 296.593L301.007 300.221Z" fill="white"/>
<path d="M303.877 340.431C303.677 340.435 303.477 340.396 303.293 340.316C303.108 340.237 302.943 340.119 302.807 339.971L293.648 329.945L283.761 338.976C283.488 339.227 283.125 339.359 282.754 339.343C282.383 339.327 282.033 339.164 281.782 338.89L272.623 328.864L262.736 337.895C262.462 338.146 262.1 338.278 261.728 338.262C261.357 338.246 261.008 338.083 260.756 337.809L251.587 327.784L241.71 336.814C241.566 336.945 241.397 337.044 241.213 337.107C241.029 337.17 240.834 337.194 240.64 337.178C240.269 337.156 239.92 336.991 239.667 336.718L230.508 326.703L220.631 335.723C220.356 335.975 219.992 336.107 219.619 336.091C219.246 336.075 218.894 335.912 218.641 335.637C218.516 335.502 218.42 335.343 218.357 335.169C218.294 334.996 218.266 334.812 218.275 334.627C218.284 334.443 218.33 334.263 218.409 334.096C218.488 333.93 218.6 333.781 218.738 333.658L229.652 323.675C229.927 323.423 230.291 323.291 230.664 323.307C231.037 323.323 231.389 323.486 231.642 323.76L240.801 333.786L250.677 324.755C250.957 324.509 251.321 324.379 251.694 324.392C252.066 324.412 252.415 324.577 252.667 324.852L261.826 334.878L271.713 325.847C271.848 325.721 272.007 325.624 272.18 325.56C272.353 325.496 272.537 325.468 272.721 325.476C272.905 325.483 273.086 325.528 273.253 325.606C273.42 325.685 273.569 325.796 273.693 325.932L282.852 335.958L292.739 326.928C293.013 326.677 293.375 326.545 293.746 326.561C294.117 326.577 294.467 326.739 294.718 327.013L304.947 338.12C305.13 338.324 305.25 338.577 305.291 338.848C305.332 339.119 305.294 339.396 305.181 339.646C305.067 339.896 304.884 340.107 304.652 340.254C304.421 340.401 304.152 340.477 303.877 340.474V340.431Z" fill="white"/>
<path d="M134.552 384.848L127.853 381.648L121.883 352.576L125.125 349.013L134.552 384.848Z" fill="#7557E9"/>
<path d="M134.552 384.848L143.443 379.647L135.825 355.701L125.125 349.013L134.552 384.848Z" fill="#7557E9"/>
<path opacity="0.2" d="M134.552 384.848L143.443 379.647L135.825 355.701L125.125 349.013L134.552 384.848Z" fill="black"/>
<path d="M280.336 390.133H279.598C278.179 390.094 276.834 389.494 275.857 388.463C274.881 387.433 274.354 386.057 274.393 384.638C274.431 383.219 275.031 381.874 276.062 380.897C277.092 379.921 278.468 379.394 279.887 379.433C288.126 379.7 305.567 374.639 315.539 364.966C316.142 364.375 316.875 363.935 317.679 363.682C334.575 358.61 340.856 368.85 341.112 369.289L331.91 374.735C331.943 374.803 331.982 374.868 332.028 374.928C331.932 374.789 329.535 371.718 321.917 373.601C309.408 385.007 290.213 390.133 280.336 390.133Z" fill="#263238"/>
<path d="M279.691 397.237L260.206 396.018L258.676 360.087L284.859 361.061L279.691 397.237Z" fill="#7557E9"/>
<path d="M279.684 397.238L284.242 392.701L287.067 370.306L284.852 361.061L279.684 397.238Z" fill="#7557E9"/>
<path opacity="0.2" d="M279.684 397.238L284.242 392.701L287.067 370.306L284.852 361.061L279.684 397.238Z" fill="black"/>
<path d="M392.592 383.638C391.892 383.637 391.212 383.408 390.655 382.985C379.527 374.532 364.494 359.52 358.726 345.043C358.64 344.833 358.579 344.614 358.544 344.39C355.73 327.655 353.045 292.442 352.927 290.954C352.895 290.533 352.947 290.109 353.079 289.708C353.211 289.306 353.421 288.935 353.697 288.614C354.254 287.967 355.045 287.568 355.896 287.504C356.748 287.44 357.589 287.717 358.237 288.274C358.884 288.83 359.283 289.622 359.347 290.473C359.347 290.826 362.097 326.382 364.836 342.978C370.593 357.059 386.236 371.515 394.561 377.87C395.097 378.277 395.491 378.842 395.689 379.485C395.887 380.128 395.877 380.817 395.662 381.455C395.447 382.092 395.036 382.646 394.489 383.038C393.942 383.429 393.286 383.639 392.613 383.638H392.592Z" fill="#263238"/>
<path d="M407.437 385.253C404.954 385.253 402.14 384.13 399.069 381.915C398.38 381.416 397.917 380.663 397.782 379.822C397.648 378.981 397.853 378.121 398.353 377.432C398.852 376.742 399.605 376.279 400.446 376.145C401.287 376.01 402.146 376.215 402.836 376.715C405.489 378.63 406.934 378.855 407.437 378.855C408.288 378.855 409.105 379.193 409.707 379.795C410.309 380.397 410.647 381.214 410.647 382.065C410.647 382.916 410.309 383.733 409.707 384.335C409.105 384.937 408.288 385.275 407.437 385.275V385.253Z" fill="#263238"/>
<path d="M399.967 381.819C403.401 371.622 417.483 373.633 422.34 375.153C426.49 376.357 430.47 378.083 434.185 380.289C436.807 382.001 436.85 384.879 433.351 386.516C429.071 388.528 418.199 386.741 418.199 386.741C423.806 389.191 418.2 393.161 408.345 389.266C405.146 388.004 398.758 385.564 399.967 381.819Z" fill="#7557E9"/>
<path d="M365.794 295.32C364.521 303.987 357.341 310.375 351.499 309.519C345.656 308.663 345.421 300.959 346.694 292.249C347.968 283.539 350.279 277.269 356.121 278.125C361.963 278.981 367.067 286.685 365.794 295.32Z" fill="#263238"/>
<path d="M224.573 260.759C225.057 260.759 225.45 260.366 225.45 259.882C225.45 259.397 225.057 259.004 224.573 259.004C224.088 259.004 223.695 259.397 223.695 259.882C223.695 260.366 224.088 260.759 224.573 260.759Z" fill="#263238"/>
<path d="M233.481 266.195C233.481 266.368 233.43 266.538 233.333 266.682C233.237 266.827 233.1 266.939 232.94 267.005C232.779 267.072 232.603 267.089 232.433 267.055C232.263 267.021 232.106 266.938 231.984 266.815C231.861 266.693 231.777 266.536 231.743 266.366C231.71 266.196 231.727 266.019 231.793 265.859C231.86 265.699 231.972 265.562 232.117 265.465C232.261 265.369 232.43 265.317 232.604 265.317C232.837 265.317 233.06 265.41 233.224 265.574C233.389 265.739 233.481 265.962 233.481 266.195Z" fill="#263238"/>
<path d="M234.466 369.877C234.466 370.051 234.414 370.221 234.318 370.365C234.221 370.509 234.084 370.622 233.924 370.688C233.764 370.754 233.587 370.772 233.417 370.738C233.247 370.704 233.091 370.621 232.968 370.498C232.845 370.375 232.762 370.219 232.728 370.049C232.694 369.878 232.711 369.702 232.778 369.542C232.844 369.381 232.957 369.244 233.101 369.148C233.245 369.051 233.415 369 233.588 369C233.821 369 234.044 369.092 234.209 369.257C234.373 369.422 234.466 369.645 234.466 369.877Z" fill="#263238"/>
<path d="M242.505 376.202C242.505 376.375 242.453 376.545 242.357 376.689C242.261 376.833 242.123 376.946 241.963 377.012C241.803 377.079 241.626 377.096 241.456 377.062C241.286 377.028 241.13 376.945 241.007 376.822C240.884 376.699 240.801 376.543 240.767 376.373C240.733 376.203 240.75 376.026 240.817 375.866C240.883 375.706 240.996 375.569 241.14 375.472C241.284 375.376 241.454 375.324 241.627 375.324C241.86 375.324 242.083 375.417 242.248 375.581C242.412 375.746 242.505 375.969 242.505 376.202Z" fill="#263238"/>
<path d="M88.2912 386.72C86.7508 386.648 85.2462 386.23 83.8887 385.499C82.5312 384.767 81.3553 383.74 80.4481 382.493C80.4036 382.436 80.3713 382.37 80.3531 382.3C80.3348 382.229 80.3311 382.156 80.3421 382.084C80.3531 382.012 80.3786 381.944 80.417 381.882C80.4554 381.821 80.506 381.767 80.5656 381.726C80.6252 381.685 80.6926 381.656 80.7637 381.641C80.8349 381.627 80.9082 381.627 80.9793 381.641C81.0504 381.656 81.1177 381.685 81.1773 381.727C81.2368 381.768 81.2872 381.821 81.3255 381.883C83.3264 384.772 87.7455 386.302 89.6715 385.393C89.8644 385.311 90.0363 385.187 90.1744 385.029C89.2012 384.601 88.3485 383.939 87.6916 383.103C87.0347 382.267 86.5939 381.282 86.408 380.235C86.1619 378.876 85.9693 377.025 87.0821 376.79C88.6229 376.448 90.6345 380.16 91.3621 382.975C91.4939 383.44 91.541 383.926 91.5012 384.408C92.1184 384.592 92.7675 384.643 93.4058 384.558C93.6934 384.536 93.9733 384.454 94.2275 384.318C94.4818 384.181 94.7048 383.994 94.8824 383.766C94.1782 383.235 93.5941 382.561 93.1682 381.788C92.7422 381.016 92.4841 380.162 92.4107 379.283C92.0041 376.351 92.3144 375.848 92.6354 375.592C92.7394 375.512 92.8635 375.462 92.9939 375.449C93.1243 375.436 93.2558 375.459 93.3737 375.517C94.5186 375.998 95.8989 380.15 96.1664 382.504C96.1985 382.749 96.1985 382.997 96.1664 383.242C96.6277 383.419 97.1168 383.514 97.6109 383.52C98.5182 383.556 99.4156 383.321 100.19 382.846C100.04 382.75 99.9007 382.643 99.7616 382.536C98.6916 381.584 98.1994 380.064 98.392 377.903C98.5418 376.223 98.9163 375.303 99.5904 375.014C99.8079 374.926 100.046 374.904 100.276 374.95C100.506 374.995 100.717 375.107 100.885 375.271C101.607 376.068 102.147 377.013 102.467 378.041C102.787 379.068 102.878 380.153 102.736 381.22C102.643 381.664 102.457 382.083 102.191 382.45C104.159 382.793 106.92 382.236 109.306 381.648C109.376 381.631 109.449 381.628 109.521 381.639C109.592 381.651 109.66 381.676 109.722 381.714C109.784 381.751 109.837 381.801 109.88 381.859C109.922 381.918 109.953 381.984 109.969 382.054C109.986 382.125 109.989 382.197 109.978 382.269C109.967 382.34 109.941 382.409 109.903 382.47C109.866 382.532 109.816 382.585 109.758 382.628C109.699 382.67 109.633 382.701 109.563 382.718C106.663 383.435 103.539 384.023 101.335 383.381C100.259 384.199 98.941 384.636 97.5895 384.622C96.9898 384.614 96.396 384.502 95.8347 384.291C95.5858 384.676 95.2518 384.998 94.8585 385.234C94.4653 385.469 94.0232 385.612 93.5663 385.65C92.762 385.753 91.9449 385.684 91.1695 385.446C90.9199 385.867 90.546 386.199 90.0995 386.399C89.5256 386.63 88.9097 386.739 88.2912 386.72ZM87.371 377.86C87.223 378.587 87.2524 379.34 87.4566 380.053C87.6075 380.909 87.9626 381.716 88.4916 382.405C89.0205 383.094 89.7079 383.645 90.4954 384.012C90.4804 383.759 90.4374 383.508 90.367 383.263C89.5324 380.203 87.9274 378.095 87.371 377.86ZM93.3309 376.929C93.3379 377.667 93.3987 378.404 93.5128 379.133C93.6308 380.438 94.207 381.658 95.1392 382.579C94.8759 380.603 94.2636 378.69 93.3309 376.929ZM100.061 375.998C100.061 375.998 99.6546 376.201 99.5048 377.988C99.355 379.775 99.6653 381.006 100.5 381.723C100.697 381.883 100.913 382.019 101.142 382.129C101.423 381.828 101.622 381.46 101.72 381.059C101.91 379.375 101.455 377.681 100.446 376.319C100.222 376.041 100.093 375.998 100.061 375.998Z" fill="#263238"/>
<path d="M244.904 394.809L247.803 389.78L244.904 384.751H241.801L243.556 389.78L241.801 394.809H244.904Z" fill="#263238"/>
<path d="M241.996 392.401C241.638 392.424 241.28 392.373 240.942 392.252C240.605 392.131 240.296 391.942 240.035 391.697C239.774 391.452 239.565 391.156 239.423 390.827C239.28 390.498 239.207 390.143 239.207 389.785C239.207 389.427 239.28 389.072 239.423 388.743C239.565 388.415 239.774 388.118 240.035 387.873C240.296 387.628 240.605 387.439 240.942 387.318C241.28 387.197 241.638 387.146 241.996 387.169L237.074 386.185L235.758 390.165L237.962 393.525L241.996 392.401Z" fill="#263238"/>
<path d="M242.425 384.751H236.615L233.715 389.78L236.615 394.809H242.425L245.324 389.78L242.425 384.751ZM239.525 392.402C239.006 392.404 238.498 392.252 238.066 391.965C237.633 391.678 237.295 391.269 237.095 390.791C236.895 390.312 236.842 389.784 236.942 389.275C237.042 388.766 237.291 388.298 237.657 387.93C238.023 387.562 238.49 387.312 238.999 387.21C239.508 387.108 240.035 387.159 240.515 387.357C240.995 387.555 241.405 387.891 241.693 388.322C241.982 388.754 242.136 389.261 242.136 389.78C242.136 390.473 241.861 391.139 241.372 391.63C240.882 392.121 240.218 392.399 239.525 392.402Z" fill="#7557E9"/>
<path d="M447.147 384.409L444.996 380.674L447.147 376.94H449.447L448.153 380.674L449.447 384.409H447.147Z" fill="#7557E9"/>
<path d="M449.301 382.621C449.568 382.641 449.836 382.606 450.089 382.517C450.342 382.429 450.574 382.289 450.77 382.107C450.966 381.924 451.123 381.703 451.23 381.458C451.337 381.212 451.392 380.947 451.392 380.679C451.392 380.412 451.337 380.147 451.23 379.901C451.123 379.655 450.966 379.435 450.77 379.252C450.574 379.07 450.342 378.93 450.089 378.842C449.836 378.753 449.568 378.718 449.301 378.737L452.96 378.01L453.934 380.963L452.307 383.456L449.301 382.621Z" fill="#7557E9"/>
<path d="M448.984 376.94H453.264L455.404 380.674L453.264 384.409H448.984L446.844 380.674L448.984 376.94ZM451.124 382.622C451.509 382.624 451.887 382.511 452.209 382.299C452.53 382.086 452.782 381.783 452.931 381.427C453.08 381.071 453.12 380.679 453.046 380.301C452.972 379.922 452.787 379.574 452.515 379.301C452.243 379.028 451.896 378.841 451.518 378.765C451.14 378.689 450.748 378.727 450.392 378.874C450.035 379.021 449.73 379.271 449.516 379.591C449.302 379.912 449.187 380.289 449.187 380.674C449.186 380.93 449.235 381.184 449.332 381.421C449.43 381.658 449.573 381.873 449.754 382.054C449.935 382.236 450.151 382.379 450.388 382.476C450.624 382.574 450.878 382.623 451.134 382.622H451.124Z" fill="#263238"/>
<path d="M367.012 389.373H371.849C372.454 389.37 373.034 389.128 373.461 388.699C373.888 388.27 374.128 387.689 374.128 387.083C374.128 386.478 373.888 385.897 373.461 385.468C373.034 385.039 372.454 384.796 371.849 384.793H367.012C366.405 384.793 365.823 385.035 365.393 385.464C364.964 385.894 364.723 386.476 364.723 387.083C364.723 387.691 364.964 388.273 365.393 388.702C365.823 389.132 366.405 389.373 367.012 389.373Z" fill="#263238"/>
<path d="M359.235 385.05C359.684 384.234 360.362 383.567 361.185 383.131C362.009 382.695 362.942 382.51 363.869 382.599C364.796 382.687 365.678 383.045 366.404 383.628C367.131 384.211 367.67 384.994 367.957 385.88C368.244 386.766 368.265 387.717 368.018 388.615C367.771 389.513 367.267 390.32 366.567 390.935C365.867 391.549 365.002 391.946 364.08 392.075C363.157 392.205 362.217 392.061 361.375 391.663C360.218 391.066 359.344 390.036 358.943 388.797C358.542 387.559 358.647 386.212 359.235 385.05Z" fill="#7557E9"/>
<path d="M360.549 391.662L361.875 392.287L366.483 382.511L365.157 381.886L360.549 391.662Z" fill="#263238"/>
</svg>
