<svg width="11" height="11" viewBox="0 0 11 11" fill="#7557E9" xmlns="http://www.w3.org/2000/svg">
<path d="M0.913949 4.024L8.61353 0.172897C8.91739 0.0216091 9.26051 -0.0322505 9.59609 0.0186617C9.93167 0.0695739 10.2434 0.22278 10.4887 0.457393C10.7341 0.692005 10.9012 0.996605 10.9671 1.32966C11.0331 1.66272 10.9948 2.00803 10.8574 2.31851L9.53748 5.27286C9.50753 5.34429 9.49211 5.42097 9.49211 5.49842C9.49211 5.57588 9.50753 5.65256 9.53748 5.72399L10.8574 8.67834C10.9692 8.9296 11.0165 9.20483 10.9949 9.47902C10.9733 9.7532 10.8836 10.0176 10.7339 10.2483C10.5842 10.479 10.3792 10.6686 10.1376 10.7999C9.896 10.9311 9.62543 10.9999 9.35049 11C9.09298 10.9974 8.8393 10.9373 8.60803 10.8239L0.908449 6.97285C0.635336 6.83541 0.405766 6.62476 0.245356 6.36442C0.0849447 6.10407 0 5.80425 0 5.49842C0 5.1926 0.0849447 4.89278 0.245356 4.63243C0.405766 4.37208 0.635336 4.16144 0.908449 4.024H0.913949ZM1.40342 5.98806L9.103 9.83917C9.20411 9.88773 9.31764 9.90421 9.42837 9.8864C9.53911 9.86858 9.64175 9.81733 9.72254 9.73951C9.80333 9.66168 9.8584 9.56101 9.88037 9.45099C9.90234 9.34097 9.89016 9.22686 9.84546 9.12396L8.53104 6.16962C8.51402 6.13017 8.49933 6.08975 8.48704 6.04858H4.69774C4.55188 6.04858 4.412 5.99062 4.30886 5.88744C4.20572 5.78427 4.14777 5.64433 4.14777 5.49842C4.14777 5.35251 4.20572 5.21258 4.30886 5.1094C4.412 5.00623 4.55188 4.94827 4.69774 4.94827H8.48704C8.49933 4.9071 8.51402 4.86668 8.53104 4.82723L9.84546 1.87288C9.89016 1.76998 9.90234 1.65587 9.88037 1.54585C9.8584 1.43583 9.80333 1.33516 9.72254 1.25734C9.64175 1.17952 9.53911 1.12826 9.42837 1.11045C9.31764 1.09264 9.20411 1.10912 9.103 1.15768L1.40342 5.00878C1.31334 5.05495 1.23773 5.12509 1.18494 5.21149C1.13215 5.29788 1.10422 5.39717 1.10422 5.49842C1.10422 5.59968 1.13215 5.69897 1.18494 5.78536C1.23773 5.87175 1.31334 5.9419 1.40342 5.98806Z" />
</svg>
