<svg width="19" height="14" viewBox="0 0 19 14" fill="#566A7F" xmlns="http://www.w3.org/2000/svg">
<path d="M3.15461 0H15.4704C16.2242 0 16.9471 0.260293 17.4801 0.723619C18.0131 1.18694 18.3125 1.81535 18.3125 2.47059V8.23529C18.3125 8.89054 18.0131 9.51894 17.4801 9.98226C16.9471 10.4456 16.2242 10.7059 15.4704 10.7059H11.2072L11.6809 13.1765H12.6283V14H5.99671V13.1765H6.94408L7.41776 10.7059H3.15461C2.40083 10.7059 1.67793 10.4456 1.14493 9.98226C0.611935 9.51894 0.3125 8.89054 0.3125 8.23529V2.47059C0.3125 1.81535 0.611935 1.18694 1.14493 0.723619C1.67793 0.260293 2.40083 0 3.15461 0ZM8.36513 10.7059L7.89145 13.1765H10.7336L10.2599 10.7059H8.36513ZM3.15461 0.823529C2.65209 0.823529 2.17016 0.997058 1.81482 1.30594C1.45949 1.61483 1.25987 2.03376 1.25987 2.47059V8.23529C1.25987 8.67212 1.45949 9.09106 1.81482 9.39994C2.17016 9.70882 2.65209 9.88235 3.15461 9.88235H15.4704C15.9729 9.88235 16.4548 9.70882 16.8102 9.39994C17.1655 9.09106 17.3651 8.67212 17.3651 8.23529V2.47059C17.3651 2.03376 17.1655 1.61483 16.8102 1.30594C16.4548 0.997058 15.9729 0.823529 15.4704 0.823529H3.15461Z" />
</svg>
