<svg width="13" height="18" viewBox="0 0 13 18" fill="#566A7F" xmlns="http://www.w3.org/2000/svg">
<path d="M6.5 8.77478C5.97628 8.77478 5.53583 8.58726 5.17864 8.21222C4.82145 7.83718 4.64286 7.37472 4.64286 6.82483C4.64286 6.27494 4.82145 5.81248 5.17864 5.43744C5.53583 5.0624 5.97628 4.87488 6.5 4.87488C7.02371 4.87488 7.46417 5.0624 7.82136 5.43744C8.17855 5.81248 8.35714 6.27494 8.35714 6.82483C8.35714 7.37472 8.17855 7.83718 7.82136 8.21222C7.46417 8.58726 7.02371 8.77478 6.5 8.77478ZM1.85714 18V11.5749C1.26905 10.9672 0.8125 10.2545 0.4875 9.43679C0.1625 8.61911 0 7.74846 0 6.82483C0 4.91973 0.629571 3.30582 1.88871 1.9831C3.14724 0.661033 4.6834 0 6.49721 0C8.31102 0 9.84843 0.661033 11.1094 1.9831C12.3704 3.30517 13.0006 4.91908 13 6.82483C13 7.74846 12.8375 8.61911 12.5125 9.43679C12.1875 10.2545 11.731 10.9665 11.1429 11.573V17.998L6.5 16.5356L1.85714 18ZM6.5 12.6747C8.04762 12.6747 9.36309 12.1059 10.4464 10.9685C11.5298 9.831 12.0714 8.44979 12.0714 6.82483C12.0714 5.19987 11.5298 3.81865 10.4464 2.68118C9.36309 1.54371 8.04762 0.974976 6.5 0.974976C4.95238 0.974976 3.6369 1.54371 2.55357 2.68118C1.47024 3.81865 0.928571 5.19987 0.928571 6.82483C0.928571 8.44979 1.47024 9.831 2.55357 10.9685C3.6369 12.1059 4.95238 12.6747 6.5 12.6747ZM2.78571 16.6175L6.5 15.5245L10.2143 16.6175V12.3958C9.69676 12.7956 9.12012 13.1043 8.48436 13.3221C7.84921 13.5405 7.18652 13.6497 6.49629 13.6497C5.80605 13.6497 5.1446 13.5408 4.51193 13.323C3.87926 13.1053 3.30386 12.7962 2.78571 12.3958V16.6175Z" />
</svg>
