<svg stroke-width="0.58" width="15" height="15" viewBox="0 0 15 16" fill="none" stroke="#566A7F" xmlns="http://www.w3.org/2000/svg">
<path d="M13.8906 2.81311C13.7819 5.05774 12.9427 7.30473 11.4609 9.31908C9.979 11.3334 7.90889 13.0411 5.46706 14.2635C3.58737 15.2011 1.53174 14.286 1.09182 12.6442L0.892766 11.9013C0.782886 11.4913 1.11165 11.0504 1.61052 10.873C2.43791 10.5792 3.22499 10.1971 3.94973 9.73739L5.6638 10.4884C7.72585 8.9912 9.18185 7.01201 9.79093 4.87823L8.07686 4.12724C8.21729 3.41132 8.23937 2.69383 8.14248 1.99487C8.08314 1.57284 8.40534 1.12979 8.91794 0.992441L9.84656 0.743619C11.8988 0.19372 13.9705 1.08696 13.8906 2.81311Z"   stroke-linecap="round" stroke-linejoin="round"/>
</svg>
