<svg width="78" height="79" viewBox="0 0 78 79" stroke="#F5F5F5" stroke-opacity="0.46" stroke-width="3" fill="none" xmlns="http://www.w3.org/2000/svg">
<path d="M2 2H9.27033C12.5182 2 14.1421 2 15.3647 2.88196C16.5873 3.76392 19.9734 10.4201 21 13.5" stroke-linecap="round"/>
<path d="M67.3303 62.6638H23.2323C22.5557 62.6638 22.215 62.6638 21.9537 62.6358C21.3058 62.5635 20.6802 62.3563 20.1173 62.0274C19.5544 61.6986 19.0666 61.2554 18.6854 60.7265C18.3042 60.1976 18.0381 59.5947 17.9042 58.9567C17.7703 58.3186 17.7715 57.6596 17.9079 57.0221C18.0152 56.609 18.1413 56.201 18.2859 55.7995C18.5285 55.0808 18.6452 54.7215 18.7805 54.3995C19.4448 52.8085 21.8337 49.5082 23.2323 48.5"  stroke-linecap="round" stroke-linejoin="round"/>
<path d="M36.4992 48.6642L37.6415 48.6647C31.6684 48.6647 28.6819 48.6647 26.3486 47.1247C24.0108 45.5848 22.8348 42.8409 20.4829 37.3532L19.6943 35.5146C15.9145 26.695 14.0292 22.2946 16.1011 19.1447C18.1824 15.9995 22.9795 15.9995 32.5644 15.9995H57.2032C67.9361 15.9995 73.2978 15.9995 75.323 19.4853C77.3436 22.9712 74.6837 27.6283 69.3593 36.9425L68.0387 39.2618C65.4162 43.8489 64.1049 46.1448 61.9303 47.4047C59.7558 48.6647 41.7816 48.6642 36.4992 48.6642Z"  stroke-linecap="round"/>
<path d="M64.998 71.1636C66.7467 71.1636 68.1648 72.581 68.165 74.3296C68.165 76.0784 66.7468 77.4966 64.998 77.4966C63.2495 77.4963 61.832 76.0782 61.832 74.3296C61.8323 72.5812 63.2496 71.1638 64.998 71.1636Z" />
<path d="M27.666 71.1636C29.4147 71.1636 30.8328 72.581 30.833 74.3296C30.833 76.0784 29.4148 77.4966 27.666 77.4966C25.9174 77.4963 24.5 76.0782 24.5 74.3296C24.5002 72.5812 25.9176 71.1638 27.666 71.1636Z" />
</svg>
