<svg width="36" height="32" viewBox="0 0 36 32"  fill="white"  xmlns="http://www.w3.org/2000/svg">
<path fill-rule="evenodd" clip-rule="evenodd" d="M13.125 30.2673C13.125 29.6138 13.7402 29.084 14.4992 29.084H21.7601C22.519 29.084 23.1342 29.6138 23.1342 30.2673C23.1342 30.9208 22.519 31.4507 21.7601 31.4507H14.4992C13.7402 31.4507 13.125 30.9208 13.125 30.2673Z" />
<path fill-rule="evenodd" clip-rule="evenodd" d="M13.0938 1.79271C13.0938 1.13918 13.709 0.609375 14.4679 0.609375H21.7288C22.4877 0.609375 23.103 1.13918 23.103 1.79271C23.103 2.44624 22.4877 2.97604 21.7288 2.97604H14.4679C13.709 2.97604 13.0938 2.44624 13.0938 1.79271Z" />
<path fill-rule="evenodd" clip-rule="evenodd" d="M1.63978 11.7031C2.3987 11.7031 3.01394 12.2329 3.01394 12.8864V19.1376C3.01394 19.7911 2.3987 20.3209 1.63978 20.3209C0.880863 20.3209 0.265625 19.7911 0.265625 19.1376V12.8864C0.265625 12.2329 0.880863 11.7031 1.63978 11.7031Z" />
<path fill-rule="evenodd" clip-rule="evenodd" d="M34.6242 11.7031C35.3831 11.7031 35.9983 12.2329 35.9983 12.8864V19.1376C35.9983 19.7911 35.3831 20.3209 34.6242 20.3209C33.8653 20.3209 33.25 19.7911 33.25 19.1376V12.8864C33.25 12.2329 33.8653 11.7031 34.6242 11.7031Z" />
<path fill-rule="evenodd" clip-rule="evenodd" d="M17.6476 22.0527C18.4065 22.0527 19.0218 22.5826 19.0218 23.2361V23.3052C19.0218 23.9587 18.4065 24.4885 17.6476 24.4885C16.8887 24.4885 16.2734 23.9587 16.2734 23.3052V23.2361C16.2734 22.5826 16.8887 22.0527 17.6476 22.0527Z" />
<path fill-rule="evenodd" clip-rule="evenodd" d="M12.0156 12.9035C12.0156 9.98412 14.7416 7.63672 18.1317 7.63672C21.5013 7.63672 24.2462 9.9818 24.2462 12.9035C24.2462 14.9573 22.8823 16.4096 21.0981 17.2593C20.9892 17.3126 20.8846 17.3633 20.7838 17.412C20.2556 17.6675 19.838 17.8694 19.4976 18.1332C19.1568 18.3973 19.0141 18.6351 19.019 18.9672C19.0291 19.6206 18.4219 20.1573 17.663 20.1659C16.9041 20.1744 16.281 19.6517 16.2711 18.9982C16.253 17.8072 16.9025 16.9606 17.659 16.3741C18.2499 15.9161 18.9833 15.5649 19.5033 15.3159C19.5909 15.274 19.6724 15.2348 19.7462 15.1987L19.7626 15.1907C20.8906 14.6552 21.4978 13.9046 21.4978 12.9035C21.4978 11.2935 19.989 10.0034 18.1317 10.0034C16.2594 10.0034 14.7639 11.2912 14.7639 12.9035C14.7639 13.557 14.1487 14.0868 13.3898 14.0868C12.6309 14.0868 12.0156 13.557 12.0156 12.9035Z" />
<path fill-rule="evenodd" clip-rule="evenodd" d="M1.50429 22.578C2.2559 22.4874 2.95042 22.9386 3.05555 23.586C3.54801 26.618 5.81015 28.6425 9.26804 28.9899C10.0218 29.0655 10.5617 29.6532 10.4737 30.3023C10.3858 30.9514 9.70347 31.4162 8.94966 31.3406C4.15369 30.8589 0.985741 27.928 0.333731 23.9137C0.228599 23.2665 0.752684 22.6685 1.50429 22.578Z" />
<path fill-rule="evenodd" clip-rule="evenodd" d="M34.6798 22.578C35.4314 22.6685 35.9554 23.2665 35.8503 23.9137C35.1987 27.9249 32.0517 30.8568 27.2528 31.3405C26.499 31.4166 25.8163 30.9519 25.7282 30.3028C25.6399 29.6537 26.1795 29.066 26.9333 28.9899C30.3881 28.6417 32.6355 26.6212 33.1285 23.586C33.2337 22.9387 33.9281 22.4874 34.6798 22.578Z" />
<path fill-rule="evenodd" clip-rule="evenodd" d="M10.4737 1.65523C10.5619 2.30434 10.0224 2.89214 9.26861 2.96813C5.81365 3.31641 3.54852 5.35232 3.05555 8.38741C2.95042 9.03465 2.2559 9.48594 1.50429 9.39542C0.752684 9.30489 0.228599 8.70681 0.333731 8.05958C0.985246 4.0484 4.15017 1.10128 8.94907 0.617514C9.70284 0.541528 10.3854 1.00614 10.4737 1.65523Z" />
<path fill-rule="evenodd" clip-rule="evenodd" d="M25.7282 1.65523C25.8163 1.00614 26.499 0.541528 27.2528 0.617514C32.0556 1.10167 35.1995 4.05198 35.8503 8.05958C35.9554 8.70681 35.4314 9.30489 34.6798 9.39542C33.9281 9.48594 33.2337 9.03465 33.1285 8.38741C32.6349 5.34874 30.3842 3.31601 26.9333 2.96813C26.1795 2.89214 25.6399 2.30434 25.7282 1.65523Z"/>
</svg>
