<svg width="17" height="20" viewBox="0 0 17 20" fill="#7557E9" xmlns="http://www.w3.org/2000/svg">
<path d="M9.75874 4.919C10.733 4.919 11.6571 5.10882 12.5308 5.48846C13.4045 5.86811 14.1871 6.41466 14.8785 7.12813C15.5637 7.8416 16.0886 8.65325 16.4531 9.56308C16.8177 10.4729 17 11.4384 17 12.4595C17 13.1533 16.9151 13.821 16.7454 14.4624C16.5757 15.1039 16.3306 15.7028 16.01 16.2592C15.6894 16.8156 15.3123 17.3261 14.8785 17.7909C14.4448 18.2556 13.9577 18.6483 13.4171 18.9691C12.8765 19.2898 12.2982 19.5418 11.6822 19.7251C11.0662 19.9084 10.425 20 9.75874 20H1.31059V18.7432H9.75874C10.3119 18.7432 10.8462 18.668 11.3616 18.5174C11.8771 18.3669 12.3579 18.1574 12.8042 17.8891C13.2505 17.6207 13.6559 17.2934 14.0205 16.9072C14.3851 16.521 14.6994 16.0956 14.9634 15.6308C15.2274 15.1661 15.4317 14.6654 15.5763 14.1286C15.7208 13.5919 15.7931 13.0355 15.7931 12.4595C15.7931 11.8835 15.7208 11.3271 15.5763 10.7904C15.4317 10.2536 15.2305 9.7529 14.9728 9.28817C14.7151 8.82343 14.4008 8.40124 14.0299 8.0216C13.6591 7.64196 13.2505 7.31468 12.8042 7.03976C12.3579 6.76485 11.8771 6.55212 11.3616 6.40157C10.8462 6.25102 10.3119 6.17575 9.75874 6.17575H2.01775L6.03439 10.3682L5.33666 11.0947L0 5.54737L5.33666 0L6.03439 0.726559L2.01775 4.919H9.75874Z"/>
</svg>
