<svg width="13" height="15" viewBox="0 0 13 15" fill="#7557E9" xmlns="http://www.w3.org/2000/svg">
<path d="M4.50264 7.13848L6.18633 5.19054L4.67292 3.43824L3.81854 4.42327L3.29663 3.82103L4.14658 2.836L2.70763 1.17557L1.01951 3.12351L4.50264 7.13848ZM10.2776 13.8074L11.9657 11.8595L10.5275 10.199L9.67389 11.179L9.15271 10.5767L10.0012 9.5917L8.49736 7.86152L6.81293 9.80435L10.2776 13.8074ZM3.06147 14.1494H0.73717V11.4665L3.9763 7.72882L0 3.12436L2.70763 0L6.7171 4.60956L10.01 0.804695C10.0911 0.710559 10.1766 0.642792 10.2666 0.601395C10.3565 0.559998 10.4523 0.539299 10.5541 0.539299C10.6558 0.539299 10.7516 0.559998 10.8416 0.601395C10.9315 0.642792 11.0173 0.710559 11.0988 0.804695L12.3019 2.24736C12.3835 2.34093 12.44 2.43961 12.4714 2.54338C12.5029 2.64716 12.5184 2.75774 12.5179 2.87513C12.5174 2.99251 12.5017 3.09969 12.4707 3.19667C12.4398 3.29364 12.3837 3.38891 12.3026 3.48248L9.03697 7.27118L13 11.8756L10.2909 15L6.3006 10.4117L3.06147 14.1494ZM1.47434 13.2987H2.74743L9.98645 4.95066L8.70819 3.47737L1.47434 11.8297V13.2987ZM9.35617 4.20891L8.70893 3.47737L9.98571 4.95151L9.35617 4.20891Z" />
</svg>
