<svg width="22" height="22" viewBox="0 0 22 22" fill="none" xmlns="http://www.w3.org/2000/svg">
<path d="M7.384 10.541V6.806C7.384 6.58333 7.46267 6.39333 7.62 6.236C7.77667 6.07867 7.96733 6 8.192 6C8.41667 6 8.60733 6.07867 8.764 6.236C8.92133 6.39333 9 6.58333 9 6.806V10.541C9 10.7637 8.92133 10.9537 8.764 11.111C8.60667 11.2683 8.416 11.347 8.192 11.347C7.968 11.347 7.77733 11.2683 7.62 11.111C7.46267 10.9537 7.384 10.7637 7.384 10.541ZM11.731 11.852V2.808C11.731 2.584 11.8093 2.39333 11.966 2.236C12.1233 2.07867 12.314 2 12.538 2C12.7627 2 12.9533 2.07867 13.11 2.236C13.2673 2.39333 13.346 2.584 13.346 2.808V11.852C13.346 12.1213 13.2633 12.3233 13.098 12.458C12.932 12.5927 12.7463 12.66 12.541 12.66C12.3357 12.66 12.149 12.5927 11.981 12.458C11.813 12.3233 11.7297 12.1213 11.731 11.852ZM3 13.994V10.808C3 10.584 3.07833 10.3933 3.235 10.236C3.39233 10.0787 3.58333 10 3.808 10C4.03267 10 4.22333 10.0787 4.38 10.236C4.53667 10.3933 4.615 10.584 4.615 10.808V13.995C4.615 14.2643 4.53233 14.466 4.367 14.6C4.20167 14.7347 4.016 14.802 3.81 14.802C3.60467 14.802 3.418 14.7347 3.25 14.6C3.08333 14.466 3 14.2643 3 13.995M4.085 19.858C3.86167 19.858 3.70733 19.7563 3.622 19.553C3.53667 19.3503 3.57533 19.1673 3.738 19.004L7.646 15.097C7.79067 14.9517 7.969 14.8707 8.181 14.854C8.393 14.8373 8.58133 14.9017 8.746 15.047L11.731 17.612L18.484 10.858H16.692C16.55 10.858 16.4313 10.81 16.336 10.714C16.2407 10.618 16.1927 10.499 16.192 10.357C16.1913 10.215 16.2393 10.0963 16.336 10.001C16.4327 9.90567 16.5513 9.858 16.692 9.858H19.384C19.6133 9.858 19.8053 9.93533 19.96 10.09C20.1147 10.2447 20.192 10.4367 20.192 10.666V13.358C20.192 13.5 20.144 13.6187 20.048 13.714C19.952 13.8093 19.833 13.8573 19.691 13.858C19.549 13.8587 19.4303 13.8107 19.335 13.714C19.2397 13.6173 19.192 13.4987 19.192 13.358V11.566L12.288 18.47C12.1433 18.6147 11.965 18.6953 11.753 18.712C11.541 18.7287 11.3527 18.6643 11.188 18.519L8.203 15.954L4.446 19.712C4.40333 19.752 4.34967 19.7863 4.285 19.815C4.22033 19.8437 4.15367 19.858 4.085 19.858Z" fill="#566A7F"/>
<rect x="0.5" y="0.5" width="21" height="21" rx="1.5" stroke="#566A7F"/>
</svg>
