<svg width="12" height="11" viewBox="0 0 12 11" fill="#7557E9" xmlns="http://www.w3.org/2000/svg">
<path d="M2.07692 11C1.52609 11 0.997815 10.7994 0.608317 10.4424C0.218818 10.0853 0 9.60109 0 9.09615V1.90385C0 1.39891 0.218818 0.914664 0.608317 0.557624C0.997815 0.200583 1.52609 0 2.07692 0H8.466C8.48446 0 8.50262 0.000282091 8.52046 0.000846193C8.53862 -0.000563348 8.55691 4.6922e-06 8.57492 0.00253848C9.0874 0.0272263 9.57176 0.22496 9.93462 0.557615L11.3917 1.89327C11.5846 2.07006 11.7375 2.27994 11.8419 2.51093C11.9463 2.74191 12 2.98948 12 3.2395V9.09615C12 9.60109 11.7812 10.0853 11.3917 10.4424C11.0022 10.7994 10.4739 11 9.92308 11H2.07692ZM2.07692 0.423077C1.6485 0.423077 1.23762 0.579086 0.934674 0.856784C0.63173 1.13448 0.461538 1.51112 0.461538 1.90385V9.09615C0.461439 9.45229 0.601366 9.79654 0.855671 10.0658C1.10998 10.335 1.46162 10.5112 1.84615 10.5621V6.55769C1.84615 6.27717 1.96772 6.00815 2.18411 5.80979C2.4005 5.61144 2.69398 5.5 3 5.5H9C9.30602 5.5 9.5995 5.61144 9.81589 5.80979C10.0323 6.00815 10.1538 6.27717 10.1538 6.55769V10.5621C10.5384 10.5112 10.89 10.335 11.1443 10.0658C11.3986 9.79654 11.5386 9.45229 11.5385 9.09615V3.2395C11.5385 3.04504 11.4967 2.85248 11.4155 2.67281C11.3344 2.49315 11.2154 2.3299 11.0654 2.19238L9.60831 0.856731C9.37946 0.646937 9.08713 0.504996 8.76923 0.449308V2.75C8.76923 2.8889 8.73939 3.02644 8.6814 3.15476C8.62341 3.28309 8.53842 3.39969 8.43128 3.4979C8.32413 3.59612 8.19693 3.67403 8.05694 3.72718C7.91695 3.78033 7.76691 3.80769 7.61538 3.80769H3.92308C3.61706 3.80769 3.32357 3.69626 3.10718 3.4979C2.8908 3.29955 2.76923 3.03052 2.76923 2.75V0.423077H2.07692ZM9.69231 10.5769V6.55769C9.69231 6.38938 9.61937 6.22797 9.48954 6.10895C9.3597 5.98994 9.18361 5.92308 9 5.92308H3C2.81639 5.92308 2.6403 5.98994 2.51046 6.10895C2.38063 6.22797 2.30769 6.38938 2.30769 6.55769V10.5769H9.69231ZM8.30769 0.423077H3.23077V2.75C3.23077 2.91831 3.30371 3.07973 3.43354 3.19874C3.56337 3.31775 3.73947 3.38462 3.92308 3.38462H7.61538C7.799 3.38462 7.97509 3.31775 8.10492 3.19874C8.23475 3.07973 8.30769 2.91831 8.30769 2.75V0.423077Z" />
</svg>
