<svg width="14" height="15" viewBox="0 0 14 15"  fill="#566A7F" stroke="#566A7F" xmlns="http://www.w3.org/2000/svg">
<path d="M11.7854 14.9998L7.96412 10.3094C7.65901 10.6285 7.30812 10.8754 6.91147 11.0502C6.51481 11.225 6.11613 11.3123 5.7154 11.3123C4.73821 11.3123 3.91114 10.8971 3.23418 10.0667C2.55723 9.2363 2.21875 8.22138 2.21875 7.02194C2.21875 5.82251 2.55682 4.80709 3.23296 3.97567C3.9091 3.14426 4.73577 2.72805 5.71296 2.72705C6.69015 2.72605 7.51763 3.14151 8.1954 3.97343C8.87317 4.80534 9.21206 5.82076 9.21206 7.0197C9.21206 7.54002 9.137 8.04361 8.98688 8.53048C8.83676 9.01734 8.63945 9.4338 8.39495 9.77984L12.2162 14.4695L11.7854 14.9998ZM5.71601 10.5626C6.52559 10.5626 7.20906 10.2205 7.76641 9.53641C8.32376 8.8523 8.60243 8.01315 8.60243 7.01895C8.60243 6.02475 8.32376 5.18584 7.76641 4.50223C7.20906 3.81863 6.52559 3.47657 5.71601 3.47607C4.90643 3.47558 4.22277 3.81763 3.66501 4.50223C3.10725 5.18684 2.82858 6.02575 2.82899 7.01895C2.82939 8.01215 3.10807 8.85106 3.66501 9.53566C4.22195 10.2203 4.90542 10.5623 5.7154 10.5618" />
<rect x="0.4" y="0.4" width="12.53" height="14.2" rx="0.6" fill="none" stroke-width="0.8"/>
</svg>
