<svg xmlns="http://www.w3.org/2000/svg" width="16" height="17" viewBox="0 0 16 18" fill="black">
  <path
    d="M6.75293 13.3767C8.13916 13.3767 9.41748 12.9285 10.4634 12.1814L14.3979 16.116C14.5806 16.2986 14.8213 16.3899 15.0786 16.3899C15.6182 16.3899 16 15.9749 16 15.4436C16 15.1946 15.917 14.9539 15.7344 14.7795L11.8247 10.8616C12.6465 9.78247 13.1362 8.44604 13.1362 6.99341C13.1362 3.48218 10.2642 0.610107 6.75293 0.610107C3.25 0.610107 0.369629 3.47388 0.369629 6.99341C0.369629 10.5046 3.2417 13.3767 6.75293 13.3767ZM6.75293 11.9988C4.01367 11.9988 1.74756 9.73267 1.74756 6.99341C1.74756 4.25415 4.01367 1.98804 6.75293 1.98804C9.49219 1.98804 11.7583 4.25415 11.7583 6.99341C11.7583 9.73267 9.49219 11.9988 6.75293 11.9988Z" />
</svg>