<svg width="32" height="21" viewBox="0 0 32 21" fill="none" xmlns="http://www.w3.org/2000/svg">
<rect x="0.5" y="0.5" width="30.1379" height="20" rx="1.5" stroke="#566A7F" stroke-opacity="0.5"/>
<line x1="0.726562" y1="7.61533" x2="30.4162" y2="7.61533" stroke="#566A7F" stroke-opacity="0.5" stroke-width="0.7"/>
<line x1="28.2422" y1="3.97061" x2="19.5525" y2="3.9706" stroke="#566A7F" stroke-opacity="0.5" stroke-width="0.7"/>
<line x1="28.2422" y1="16.2812" x2="19.5525" y2="16.2812" stroke="#566A7F" stroke-opacity="0.5" stroke-width="0.7"/>
<line x1="28.2422" y1="12.6605" x2="19.5525" y2="12.6605" stroke="#566A7F" stroke-opacity="0.5" stroke-width="0.7"/>
<path d="M5.73692 3.32105L4.54104 4.95187C4.51334 4.98964 4.48356 5.01868 4.45169 5.03899C4.41983 5.05929 4.38483 5.06924 4.34671 5.06884C4.30859 5.06843 4.2736 5.05828 4.24173 5.03838C4.20987 5.01848 4.18009 4.98944 4.15239 4.95126L2.95651 3.32044C2.94013 3.29769 2.92628 3.2715 2.91497 3.24185C2.90395 3.2122 2.89844 3.18032 2.89844 3.14621C2.89844 3.07798 2.91482 3.01929 2.94758 2.97015C2.98093 2.92101 3.02456 2.89643 3.07847 2.89643L5.61451 2.89643C5.66872 2.89643 5.71235 2.92161 5.7454 2.97197C5.77846 3.02234 5.79499 3.08082 5.79499 3.14742C5.79499 3.16448 5.77563 3.22215 5.73692 3.32044" fill="#566A7F" fill-opacity="0.5"/>
</svg>
