<svg width="16" height="14" viewBox="0 0 16 15" fill="none" xmlns="http://www.w3.org/2000/svg" stroke="#566A7F">
<path d="M7.96364 9.00195C8.2215 9.00195 8.47685 8.95022 8.71509 8.84971C8.95333 8.7492 9.1698 8.60188 9.35214 8.41617C9.53448 8.23045 9.67912 8.00997 9.7778 7.76732C9.87648 7.52467 9.92727 7.2646 9.92727 7.00195C9.92727 6.73931 9.87648 6.47924 9.7778 6.23659C9.67912 5.99394 9.53448 5.77346 9.35214 5.58774C9.1698 5.40202 8.95333 5.2547 8.71509 5.15419C8.47685 5.05368 8.2215 5.00195 7.96364 5.00195C7.44285 5.00195 6.94339 5.21267 6.57514 5.58774C6.20688 5.96281 6 6.47152 6 7.00195C6 7.53239 6.20688 8.04109 6.57514 8.41617C6.94339 8.79124 7.44285 9.00195 7.96364 9.00195Z"  stroke-width="0.58" stroke-linejoin="round"/>
<path d="M6.14224 13.1025C4.95142 12.7942 3.87292 12.2239 3.01168 11.4471C3.28877 11.1622 3.46149 10.8121 3.50776 10.4416C3.55403 10.0711 3.47173 9.69701 3.2714 9.36728C3.07107 9.03755 2.76182 8.76714 2.38323 8.59065C2.00463 8.41416 1.5739 8.33962 1.14616 8.37657C1.0485 7.96277 0.999527 7.54145 1 7.11908C1 6.46677 1.1152 5.83756 1.32976 5.24642H1.36C1.72712 5.24652 2.0882 5.1655 2.40916 5.01101C2.73013 4.85652 3.00038 4.63366 3.19439 4.36346C3.38841 4.09326 3.4998 3.78466 3.51803 3.46677C3.53626 3.14889 3.46074 2.83222 3.2986 2.54667C4.14292 1.8656 5.1636 1.37033 6.27472 1.10254C6.45558 1.4104 6.73115 1.66889 7.07094 1.8494C7.41073 2.02991 7.80149 2.12541 8.2 2.12532C8.59851 2.12541 8.98927 2.02991 9.32907 1.8494C9.66886 1.66889 9.94442 1.4104 10.1253 1.10254C11.2364 1.37033 12.2571 1.8656 13.1014 2.54667C12.9381 2.83422 12.8626 3.1533 12.8822 3.47337C12.9019 3.79344 13.0159 4.10379 13.2135 4.37471C13.4111 4.64562 13.6855 4.86804 14.0106 5.02067C14.3357 5.1733 14.7006 5.25103 15.0702 5.24642C15.2894 5.85246 15.4006 6.48395 15.4 7.11908C15.4 7.54979 15.3496 7.97052 15.2538 8.37688C14.8261 8.33994 14.3954 8.41448 14.0168 8.59096C13.6382 8.76745 13.3289 9.03786 13.1286 9.36759C12.9283 9.69732 12.846 10.0714 12.8922 10.4419C12.9385 10.8124 13.1112 11.1625 13.3883 11.4474C12.527 12.2241 11.4485 12.7943 10.2578 13.1025C10.1179 12.7247 9.8433 12.395 9.47348 12.1612C9.10366 11.9273 8.65774 11.8013 8.2 11.8013C7.74226 11.8013 7.29635 11.9273 6.92653 12.1612C6.55671 12.395 6.28208 12.7247 6.14224 13.1025Z"  stroke-width="0.58" stroke-linejoin="round"/>
</svg>
