<svg xmlns="http://www.w3.org/2000/svg" width="27" height="23" viewBox="0 0 27 24" fill="black">
  <path d="M10.9206 13.8385H11.2221C13.9355 13.8385 15.3089 12.6469 15.3089 10.2041V1.05829C15.3089 0.373107 14.9404 0.0454102 14.17 0.0454102C13.433 0.0454102 13.031 0.373107 13.031 1.05829V10.4722C13.031 11.2765 12.294 11.783 11.5571 11.783H10.4181C9.78164 11.783 9.31265 12.2 9.31265 12.7661C9.31265 13.481 9.81514 13.8385 10.9206 13.8385ZM1.60794 6.98666C2.6129 6.98666 3.24938 6.42063 3.24938 5.52691V1.56474C3.24938 0.641224 2.6129 0.0751999 1.60794 0.0751999C0.636477 0.0751999 0 0.671015 0 1.56474V5.52691C0 6.42063 0.636477 6.98666 1.60794 6.98666ZM25.3921 6.98666C26.3635 6.98666 27 6.42063 27 5.52691V1.56474C27 0.671015 26.3635 0.0751999 25.3921 0.0751999C24.3871 0.0751999 23.7171 0.641224 23.7171 1.56474V5.52691C23.7171 6.42063 24.3871 6.98666 25.3921 6.98666ZM13.366 22.9545C17.0509 22.9545 20.7357 21.5841 23.4491 19.1711C23.6501 19.0221 23.8511 18.754 23.8511 18.3667C23.8511 17.7709 23.3486 17.3836 22.7457 17.3836C22.3772 17.3836 22.0757 17.473 21.6402 17.8901C19.6303 19.6775 16.5149 20.9585 13.366 20.9585C10.2171 20.9585 7.13523 19.6775 5.09181 17.8901C4.68983 17.5028 4.38834 17.3836 3.98635 17.3836C3.38337 17.3836 2.88089 17.7709 2.88089 18.3667C2.88089 18.7242 3.08189 18.9923 3.28288 19.1711C5.92928 21.6139 9.68114 22.9545 13.366 22.9545Z" />
</svg>