<svg xmlns="http://www.w3.org/2000/svg" width="53" height="53" viewBox="0 0 53 54" fill="black">
    <path
        d="M1.05714 16.5429C1.74286 16.5429 2.11429 16.1429 2.11429 15.4571V7.77143C2.11429 4.05714 4.05714 2.11429 7.77143 2.11429H15.4857C16.1714 2.11429 16.5714 1.74286 16.5714 1.05714C16.5714 0.371429 16.1714 0 15.4857 0H7.71429C2.65714 0 0 2.62857 0 7.65714V15.4571C0 16.1429 0.371429 16.5429 1.05714 16.5429ZM51.9429 16.5429C52.6286 16.5429 53 16.1429 53 15.4571V7.65714C53 2.68571 50.3714 0 45.3143 0H37.5143C36.8286 0 36.4286 0.371429 36.4286 1.05714C36.4286 1.74286 36.8286 2.11429 37.5143 2.11429H45.2286C48.8286 2.11429 50.8857 4.05714 50.8857 7.77143V15.4571C50.8857 16.1429 51.2571 16.5429 51.9429 16.5429ZM24.1714 30.3429H24.4286C26.7429 30.3429 27.9143 29.2 27.9143 26.8571V18.0857C27.9143 17.4286 27.6 17.1143 26.9429 17.1143C26.3143 17.1143 25.9714 17.4286 25.9714 18.0857V27.1143C25.9714 27.8857 25.3429 28.3714 24.7143 28.3714H23.7429C23.2 28.3714 22.8 28.7714 22.8 29.3143C22.8 30 23.2286 30.3429 24.1714 30.3429ZM16.2286 23.7714C17.0857 23.7714 17.6286 23.2286 17.6286 22.3714V18.5714C17.6286 17.6857 17.0857 17.1429 16.2286 17.1429C15.4 17.1429 14.8571 17.7143 14.8571 18.5714V22.3714C14.8571 23.2286 15.4 23.7714 16.2286 23.7714ZM36.5143 23.7714C37.3429 23.7714 37.8857 23.2286 37.8857 22.3714V18.5714C37.8857 17.7143 37.3429 17.1429 36.5143 17.1429C35.6571 17.1429 35.0857 17.6857 35.0857 18.5714V22.3714C35.0857 23.2286 35.6571 23.7714 36.5143 23.7714ZM26.2571 39.0857C29.4 39.0857 32.5429 37.7714 34.8571 35.4571C35.0286 35.3143 35.2 35.0571 35.2 34.6857C35.2 34.1143 34.7714 33.7429 34.2571 33.7429C33.9429 33.7429 33.6857 33.8286 33.3143 34.2286C31.6 35.9429 28.9429 37.1714 26.2571 37.1714C23.5714 37.1714 20.9429 35.9429 19.2 34.2286C18.8571 33.8571 18.6 33.7429 18.2571 33.7429C17.7429 33.7429 17.3143 34.1143 17.3143 34.6857C17.3143 35.0286 17.4857 35.2857 17.6571 35.4571C19.9143 37.8 23.1143 39.0857 26.2571 39.0857ZM7.71429 53H15.4857C16.1714 53 16.5714 52.6286 16.5714 51.9429C16.5714 51.2571 16.1714 50.8857 15.4857 50.8857H7.77143C4.05714 50.8857 2.11429 48.9429 2.11429 45.2V37.5429C2.11429 36.8571 1.74286 36.4286 1.05714 36.4286C0.371429 36.4286 0 36.8571 0 37.5429V45.3143C0 50.3714 2.65714 53 7.71429 53ZM37.5143 53H45.3143C50.3714 53 53 50.2857 53 45.3143V37.5429C53 36.8571 52.6286 36.4286 51.9429 36.4286C51.2571 36.4286 50.8857 36.8571 50.8857 37.5429V45.2C50.8857 48.9429 48.8286 50.8857 45.2286 50.8857H37.5143C36.8286 50.8857 36.4286 51.2571 36.4286 51.9429C36.4286 52.6286 36.8286 53 37.5143 53Z"
        />
</svg>