<svg width="16" height="14" viewBox="0 0 16 14"  stroke="white" stroke-width="0.8" xmlns="http://www.w3.org/2000/svg">
<path d="M8.00195 0.400391C12.2813 0.400535 15.6016 3.20399 15.6016 6.5C15.6016 9.796 12.2813 12.5995 8.00195 12.5996H7.83594C6.78369 12.5815 5.78721 12.3937 4.88477 12.0674L4.68457 11.9951L4.5127 12.1211C4.20766 12.3441 3.72209 12.6448 3.14453 12.918L2.8916 13.0332C2.16693 13.3471 1.32165 13.6034 0.501953 13.6035C0.46176 13.6035 0.424785 13.5798 0.408203 13.54C0.395783 13.5102 0.397952 13.4806 0.411133 13.4561L0.427734 13.4326L0.4375 13.4238L0.469727 13.3887C0.474528 13.3833 0.476963 13.3814 0.478516 13.3799L0.483398 13.374L0.489258 13.3682C0.534589 13.3191 0.591212 13.2509 0.654297 13.1758L0.348633 12.9189L0.655273 13.1758L0.658203 13.1729C0.795449 13.0055 0.982592 12.7577 1.16699 12.4492L1.16602 12.4482C1.49809 11.8967 1.82494 11.1556 1.89062 10.3086L1.9043 10.1406L1.79297 10.0137C0.911326 9.01154 0.401367 7.80013 0.401367 6.5C0.401367 3.20391 3.72249 0.400391 8.00195 0.400391ZM7.125 4.35156C6.88754 4.12439 6.53857 4.03659 6.21387 4.14648C5.91448 4.24791 5.69641 4.49688 5.62695 4.79688C5.53441 4.39858 5.17778 4.09976 4.75195 4.09961H4.15137C3.2962 4.09975 2.60156 4.79519 2.60156 5.65039C2.60168 6.1068 2.80166 6.53303 3.1377 6.82617L3.29004 6.94336L3.29199 6.94531L3.52344 7.09961H3.50195C3.00604 7.09961 2.60156 7.50409 2.60156 8C2.60156 8.46505 2.95696 8.84947 3.41016 8.89551L3.50195 8.90039H3.50293L4.35352 8.89648L4.35254 8.89551C4.88311 8.8952 5.35064 8.62813 5.62988 8.2207C5.72872 8.61032 6.08222 8.90039 6.50195 8.90039C6.99772 8.90021 7.40137 8.4958 7.40137 8V7.66797C7.56512 7.8147 7.77885 7.90039 8.00195 7.90039C8.22486 7.90031 8.43792 7.81453 8.60156 7.66797V8C8.60156 8.49591 9.00604 8.90039 9.50195 8.90039C9.81459 8.90028 10.0906 8.73914 10.252 8.49609C10.3974 8.71507 10.6356 8.86762 10.9102 8.89551L11.002 8.90039H11.0029L11.8535 8.89648L11.8525 8.89551C12.7074 8.89501 13.4014 8.20166 13.4014 7.34668C13.4013 6.89051 13.2021 6.46266 12.8643 6.1709L12.7109 6.05469L12.4453 5.87793C12.8485 5.78891 13.1514 5.42937 13.1514 5C13.1514 4.5042 12.7477 4.09979 12.252 4.09961H11.252V4.15723C10.8892 4.25409 10.5777 4.47732 10.3711 4.7793C10.2981 4.48849 10.0862 4.24521 9.78711 4.14551C9.46297 4.03761 9.11229 4.12282 8.875 4.35352L8.78125 4.45996L8.00098 5.49902L7.22168 4.45996L7.21973 4.45703L7.125 4.35156ZM10.4014 6.56836C10.4705 6.6631 10.5489 6.75154 10.6387 6.8291L10.792 6.94531L11.0234 7.09961H11.002C10.7714 7.09961 10.5608 7.18779 10.4014 7.33105V6.56836ZM5.60156 6.42871C5.49558 6.28398 5.36467 6.1559 5.20996 6.05371H5.20898L4.94531 5.87793C5.25182 5.81025 5.49999 5.58643 5.60156 5.29395V6.42871Z"/>
</svg>
