<svg width="13" height="15" viewBox="0 0 13 15" fill="#566A7F" xmlns="http://www.w3.org/2000/svg">
<path d="M6.5 11.25C6.03311 11.2501 5.58331 11.0923 5.24018 10.8082C4.89706 10.524 4.68578 10.1343 4.64843 9.71667C3.40989 9.32323 2.36605 8.54976 1.70116 7.5328C1.03628 6.51584 0.793113 5.32077 1.01458 4.15856C1.23605 2.99634 1.90791 1.9417 2.91157 1.18082C3.91524 0.419931 5.18616 0.00171704 6.5 5.25783e-08C7.8974 -0.00018171 9.24386 0.470906 10.2724 1.31985C11.3009 2.1688 11.9364 3.33362 12.0529 4.58333C12.0567 4.63754 12.048 4.69188 12.0272 4.7429C12.0065 4.79392 11.9741 4.8405 11.9322 4.87968C11.8902 4.91887 11.8397 4.9498 11.7837 4.97051C11.7278 4.99123 11.6677 5.00127 11.6071 5C11.4828 4.9972 11.364 4.95301 11.2739 4.876C11.1838 4.799 11.1288 4.69469 11.1196 4.58333C11.0369 3.84653 10.7369 3.14282 10.2505 2.54464C9.76404 1.94647 9.10875 1.47545 8.35206 1.18007C7.59538 0.884696 6.76465 0.775636 5.9454 0.86412C5.12614 0.952605 4.34797 1.23544 3.69099 1.6835C3.034 2.13156 2.52195 2.72866 2.20754 3.41333C1.89313 4.098 1.78773 4.8455 1.90219 5.57888C2.01664 6.31225 2.34682 7.005 2.85873 7.58581C3.37063 8.16662 4.04577 8.61449 4.81464 8.88333C4.95454 8.61204 5.17317 8.37951 5.44763 8.21011C5.72208 8.04071 6.04224 7.94067 6.37458 7.92047C6.70692 7.90028 7.03919 7.96067 7.33658 8.09532C7.63397 8.22998 7.88554 8.43393 8.06491 8.68582C8.24429 8.93771 8.34487 9.22826 8.35613 9.52702C8.36738 9.82579 8.28889 10.1218 8.12888 10.384C7.96887 10.6461 7.73323 10.8649 7.44665 11.0172C7.16007 11.1696 6.8331 11.25 6.5 11.25ZM1.8655 9.16667H1.95C2.31214 9.48417 2.71421 9.76417 3.14971 10H1.8655C1.34457 10 0.928571 10.3725 0.928571 10.8333C0.928571 11.9242 1.50614 12.7367 2.48207 13.2942C3.47564 13.8633 4.88893 14.1667 6.5 14.1667C8.11107 14.1667 9.52436 13.8633 10.5179 13.2942C11.4929 12.7358 12.0714 11.925 12.0714 10.8333C12.0714 10.6123 11.9736 10.4004 11.7995 10.2441C11.6253 10.0878 11.3891 10 11.1429 10H9.24764C9.29959 9.72418 9.29959 9.44249 9.24764 9.16667H11.1429C11.6354 9.16667 12.1078 9.34226 12.4561 9.65482C12.8043 9.96738 13 10.3913 13 10.8333C13 12.2425 12.2265 13.305 11.0175 13.9975C9.82707 14.6783 8.2225 15 6.5 15C4.7775 15 3.17293 14.6783 1.9825 13.9975C0.7735 13.3058 0 12.2417 0 10.8333C0 9.90583 0.8385 9.16667 1.8655 9.16667ZM10.2143 5C10.2145 5.56387 10.0553 6.11856 9.75161 6.61219C9.44793 7.10582 9.00968 7.52224 8.47786 7.8225C8.22996 7.59818 7.93693 7.41805 7.61429 7.29167C8.20085 7.06193 8.68137 6.65794 8.97507 6.14764C9.26876 5.63733 9.35771 5.05184 9.22695 4.4896C9.0962 3.92737 8.75371 3.42268 8.25709 3.06041C7.76046 2.69814 7.13999 2.50038 6.5 2.50038C5.86001 2.50038 5.23954 2.69814 4.74291 3.06041C4.24629 3.42268 3.9038 3.92737 3.77305 4.4896C3.64229 5.05184 3.73124 5.63733 4.02493 6.14764C4.31862 6.65794 4.79915 7.06193 5.38571 7.29167C5.06071 7.41917 4.76821 7.6 4.52214 7.8225C3.81682 7.42443 3.28112 6.8251 3.00114 6.12083C2.85831 5.76106 2.78544 5.38193 2.78571 5C2.78571 4.11594 3.17704 3.2681 3.8736 2.64298C4.57017 2.01786 5.51491 1.66667 6.5 1.66667C7.48509 1.66667 8.42983 2.01786 9.1264 2.64298C9.82296 3.2681 10.2143 4.11594 10.2143 5Z" />
</svg>
