<svg width="16" height="20" viewBox="0 0 16 20" fill="#566A7F" xmlns="http://www.w3.org/2000/svg">
<path d="M0 0H16V7.8375H14.5455V1.9H1.45455V13.3H7.63636V15.2H0V0ZM1.45455 17.1H7.63636V19H1.45455V17.1Z" />
<path d="M13.1935 10V11.3105C13.6893 11.4857 14.1311 11.8438 14.4792 12.3314L15.3065 11.6752L16 13.3248L15.1734 13.98C15.3084 14.6474 15.3084 15.3526 15.1734 16.02L16 16.6752L15.3065 18.3248L14.4792 17.6686C14.1262 18.1631 13.6817 18.516 13.1935 18.6895V20H11.8065V18.6895C11.3183 18.516 10.8738 18.1631 10.5208 17.6686L9.69348 18.3248L9 16.6752L9.82663 16.02C9.69159 15.3526 9.69159 14.6474 9.82663 13.98L9 13.3248L9.69348 11.6752L10.5208 12.3305C10.8739 11.8363 11.3184 11.4837 11.8065 11.3105V10H13.1935ZM11.2857 14.079C11.1721 14.361 11.1125 14.6778 11.1123 15C11.1123 15.3333 11.1755 15.6476 11.2857 15.921L11.3107 15.981C11.4339 16.263 11.6082 16.4964 11.8166 16.6585C12.0251 16.8206 12.2605 16.9057 12.5 16.9057C12.7395 16.9057 12.9749 16.8206 13.1834 16.6585C13.3918 16.4964 13.5661 16.263 13.6893 15.981L13.7143 15.921C13.8245 15.6476 13.887 15.3343 13.887 15C13.887 14.6667 13.8245 14.3524 13.7143 14.079L13.6893 14.019C13.5661 13.737 13.3918 13.5036 13.1834 13.3415C12.9749 13.1794 12.7395 13.0943 12.5 13.0943C12.2605 13.0943 12.0251 13.1794 11.8166 13.3415C11.6082 13.5036 11.4339 13.737 11.3107 14.019L11.2857 14.079Z"/>
</svg>
