<svg xmlns="http://www.w3.org/2000/svg" width="24" height="24" viewBox="0 0 24 25" fill="black">
  <path fill-rule="evenodd" clip-rule="evenodd" d="M10.4138 4.17157C11.164 3.42143 12.1814 3 13.2423 3H17.9996C19.6565 3 20.9996 4.34315 20.9996 6V10.7574C20.9996 11.8182 20.5782 12.8356 19.828 13.5858L13.2909 20.1229C12.1194 21.2945 10.2199 21.2945 9.04829 20.1229L3.87673 14.9513C2.70516 13.7797 2.70515 11.8803 3.87673 10.7087L10.4138 4.17157ZM13.2423 5C12.7118 5 12.2031 5.21071 11.828 5.58579L5.29094 12.1229C4.90042 12.5134 4.90042 13.1466 5.29094 13.5371L10.4625 18.7087C10.853 19.0992 11.4862 19.0992 11.8767 18.7087L18.4138 12.1716C18.7889 11.7965 18.9996 11.2878 18.9996 10.7574V6C18.9996 5.44772 18.5519 5 17.9996 5H13.2423Z" />
  <path d="M4.58594 10.0002L6.00015 8.58594L15.4144 18.0001L14.0001 19.4144L4.58594 10.0002Z" />
  <path d="M17 8C17 8.55228 16.5523 9 16 9C15.4477 9 15 8.55228 15 8C15 7.44772 15.4477 7 16 7C16.5523 7 17 7.44772 17 8Z" />
</svg>