<svg width="23" height="23" viewBox="0 0 23 23" fill="none" xmlns="http://www.w3.org/2000/svg">
<path d="M11.48 0C5.14304 0 0 5.1072 0 11.4C0 17.6928 5.14304 22.8 11.48 22.8C17.817 22.8 22.96 17.6928 22.96 11.4C22.96 5.1072 17.817 0 11.48 0ZM16.8067 7.752C16.6345 9.5532 15.8883 13.9308 15.5095 15.9486C15.3488 16.8036 15.0273 17.0886 14.7288 17.1228C14.063 17.1798 13.5579 16.6896 12.915 16.2678C11.9048 15.6066 11.3308 15.1962 10.355 14.5578C9.21844 13.8168 9.95316 13.4064 10.6075 12.7452C10.7797 12.5742 13.7186 9.918 13.776 9.6786C13.784 9.64234 13.7829 9.6047 13.7729 9.56894C13.7629 9.53318 13.7443 9.50038 13.7186 9.4734C13.6497 9.4164 13.5579 9.4392 13.4775 9.4506C13.3742 9.4734 11.767 10.5336 8.63296 12.6312C8.17376 12.939 7.76048 13.0986 7.39312 13.0872C6.97984 13.0758 6.1992 12.8592 5.61372 12.6654C4.89048 12.4374 4.32796 12.312 4.37388 11.913C4.39684 11.7078 4.68384 11.5026 5.2234 11.286C8.57556 9.8382 10.8027 8.8806 11.9162 8.4246C15.1077 7.1022 15.762 6.8742 16.1983 6.8742C16.2901 6.8742 16.5082 6.897 16.646 7.011C16.7608 7.1022 16.7952 7.2276 16.8067 7.3188C16.7952 7.3872 16.8182 7.5924 16.8067 7.752Z" fill="black"/>
</svg>
