<svg width="34" height="18" viewBox="0 0 34 18" fill="none" stroke="#566A7F" xmlns="http://www.w3.org/2000/svg">
<path d="M5.8 4.33333H8.2M8.2 4.33333H10.6M8.2 4.33333V13.6667M8.2 13.6667H5.8M8.2 13.6667H10.6M4.2 1H29.8C30.6487 1 31.4626 1.28095 32.0627 1.78105C32.6629 2.28115 33 2.95942 33 3.66667V14.3333C33 15.0406 32.6629 15.7189 32.0627 16.219C31.4626 16.719 30.6487 17 29.8 17H4.2C3.35131 17 2.53737 16.719 1.93726 16.219C1.33714 15.7189 1 15.0406 1 14.3333V3.66667C1 2.95942 1.33714 2.28115 1.93726 1.78105C2.53737 1.28095 3.35131 1 4.2 1Z" fill="none"  stroke-opacity="0.5" stroke-linecap="round" stroke-linejoin="round"/>
</svg>
