<svg width="20" height="20" viewBox="0 0 20 20" fill="none" xmlns="http://www.w3.org/2000/svg">
<path fill-rule="evenodd" clip-rule="evenodd" d="M0 10.0024C0 4.47959 4.47715 0.00244141 10 0.00244141C15.5228 0.00244141 20 4.47959 20 10.0024C20 15.5253 15.5228 20.0024 10 20.0024C4.47715 20.0024 0 15.5253 0 10.0024ZM13.7071 8.70955C14.0976 8.31902 14.0976 7.68586 13.7071 7.29533C13.3166 6.90481 12.6834 6.90481 12.2929 7.29533L9 10.5882L7.70711 9.29533C7.31658 8.90481 6.68342 8.90481 6.29289 9.29533C5.90237 9.68586 5.90237 10.319 6.29289 10.7095L8.29289 12.7095C8.68342 13.1001 9.31658 13.1001 9.70711 12.7095L13.7071 8.70955Z" fill=""/>
</svg>
