<svg width="16" height="12" viewBox="0 0 16 12" fill="none" xmlns="http://www.w3.org/2000/svg">
<path d="M14.737 0.232472C14.455 0.114682 14.1448 0.0397961 13.8242 0.0120909C13.5036 -0.0156143 13.1789 0.00440429 12.8686 0.0710034C12.5584 0.137603 12.2686 0.249477 12.0158 0.400238C11.7631 0.550999 11.5524 0.737693 11.3957 0.949656L6.83451 7.11725L4.22408 5.15584C3.99744 4.97952 3.72633 4.83889 3.42659 4.74214C3.12684 4.64539 2.80445 4.59447 2.47822 4.59234C2.152 4.59021 1.82848 4.63691 1.52654 4.72973C1.2246 4.82255 0.950285 4.95963 0.719602 5.13296C0.48892 5.30629 0.306489 5.5124 0.182955 5.73927C0.0594212 5.96614 -0.00274202 6.20922 9.27635e-05 6.45434C0.00292755 6.69945 0.0707036 6.94169 0.199466 7.16691C0.328228 7.39214 0.515398 7.59584 0.750055 7.76613L5.66381 11.4582C6.12815 11.808 6.75466 12 7.40082 12L7.74109 11.9815C8.11767 11.942 8.47688 11.8372 8.79045 11.6756C9.10402 11.514 9.36338 11.2999 9.54812 11.0502L15.6903 2.74307C15.8471 2.5312 15.9469 2.29819 15.9838 2.05735C16.0208 1.81651 15.9942 1.57256 15.9057 1.33942C15.8172 1.10629 15.6684 0.888541 15.4679 0.698609C15.2674 0.508678 15.019 0.350284 14.737 0.232472Z" fill="#009774"/>
</svg>
