<svg width="23" height="23" viewBox="0 0 23 23" fill="none" xmlns="http://www.w3.org/2000/svg">
<path d="M11.49 0C9.2175 0 6.99602 0.668598 5.1065 1.92125C3.21698 3.17389 1.74428 4.95433 0.874629 7.03741C0.00497843 9.12048 -0.222562 11.4126 0.220782 13.624C0.664126 15.8354 1.75844 17.8667 3.36535 19.461C4.97225 21.0553 7.01958 22.1411 9.24842 22.5809C11.4773 23.0208 13.7875 22.7951 15.887 21.9322C17.9866 21.0694 19.781 19.6082 21.0436 17.7335C22.3061 15.8588 22.98 13.6547 22.98 11.4C22.977 8.37746 21.7654 5.47958 19.6113 3.34231C17.4572 1.20505 14.5364 0.00301802 11.49 0ZM18.3139 8.79282V9.52926C18.3139 9.58562 18.3026 9.64142 18.2805 9.69335C18.2584 9.74528 18.2261 9.7923 18.1854 9.83162C18.1447 9.87094 18.0964 9.90177 18.0435 9.92228C17.9906 9.9428 17.9341 9.95258 17.8773 9.95106C16.6641 9.86602 15.5035 9.42651 14.5417 8.68794V14.0779C14.5415 14.6744 14.4214 15.2649 14.1887 15.8149C13.9559 16.3649 13.615 16.8634 13.1859 17.2813C12.7533 17.7101 12.2388 18.0489 11.6726 18.2779C11.1064 18.5069 10.4998 18.6216 9.8883 18.6151C8.65872 18.6133 7.47856 18.1346 6.59986 17.2813C6.04075 16.722 5.63802 16.0279 5.43132 15.2673C5.22462 14.5068 5.22106 13.7059 5.42099 12.9436C5.60368 12.2117 5.97251 11.5391 6.493 10.9907C6.88117 10.52 7.37046 10.1413 7.92511 9.88234C8.47975 9.62337 9.08573 9.49066 9.69871 9.49392H10.6409V11.4353C10.6413 11.4917 10.6296 11.5475 10.6066 11.5991C10.5835 11.6506 10.5497 11.6967 10.5073 11.7342C10.4649 11.7718 10.4149 11.7999 10.3607 11.8168C10.3064 11.8337 10.2492 11.8389 10.1928 11.8321C9.64573 11.669 9.05625 11.7231 8.54861 11.9829C8.04096 12.2427 7.6548 12.6879 7.47154 13.2246C7.28828 13.7614 7.32222 14.3478 7.56623 14.8602C7.81023 15.3726 8.24522 15.771 8.77951 15.9714C9.08974 16.1481 9.43674 16.2518 9.79293 16.2758C10.0687 16.2872 10.3445 16.253 10.6064 16.1709C11.0438 16.0245 11.4242 15.7464 11.6946 15.3753C11.965 15.0042 12.112 14.5586 12.1151 14.1007V4.27956C12.1151 4.17091 12.1585 4.0667 12.2358 3.98976C12.3131 3.91283 12.418 3.86946 12.5276 3.86916H14.1534C14.259 3.86929 14.3606 3.90951 14.4373 3.98158C14.514 4.05365 14.56 4.15211 14.5659 4.25676C14.6251 4.75976 14.7862 5.24571 15.0393 5.68548C15.2924 6.12525 15.6324 6.5098 16.0389 6.81606C16.5882 7.22519 17.2407 7.47607 17.9244 7.5411C18.0268 7.54979 18.1226 7.595 18.194 7.66835C18.2654 7.74171 18.3076 7.83825 18.3128 7.9401L18.3139 8.79282Z" fill="black"/>
</svg>
