<svg width="11" height="13" viewBox="0 0 11 13" fill="none" xmlns="http://www.w3.org/2000/svg">
<path d="M2.83203 5.27778V3.44444C2.83203 2.79614 3.08957 2.17438 3.54799 1.71596C4.00641 1.25754 4.62817 1 5.27648 1C5.92478 1 6.54654 1.25754 7.00496 1.71596C7.46338 2.17438 7.72092 2.79614 7.72092 3.44444V5.27778" stroke="#DE4444" stroke-opacity="0.7" stroke-linecap="round"/>
<path d="M1 5.27783H9.55556V10.7778C9.55556 11.102 9.42679 11.4129 9.19757 11.6421C8.96836 11.8713 8.65749 12.0001 8.33333 12.0001H2.22222C1.89807 12.0001 1.58719 11.8713 1.35798 11.6421C1.12877 11.4129 1 11.102 1 10.7778V5.27783Z" stroke="#DE4444" stroke-opacity="0.7" stroke-linejoin="round"/>
</svg>
