<svg width="13" height="15" viewBox="0 0 13 15" fill="none" xmlns="http://www.w3.org/2000/svg">
<path d="M2.42914 15C2.01314 15 1.65905 14.8503 1.36686 14.551C1.07467 14.2517 0.928571 13.8893 0.928571 13.4639V1.68358H0V0.732403H3.71429V0H9.28571V0.732403H13V1.68358H12.0714V13.4639C12.0714 13.9014 11.9284 14.267 11.6424 14.5606C11.3564 14.8542 10.9992 15.0006 10.5709 15H2.42914ZM11.1429 1.68358H1.85714V13.4639C1.85714 13.6344 1.91069 13.7746 2.01779 13.8843C2.12488 13.994 2.262 14.0488 2.42914 14.0488H10.5718C10.7142 14.0488 10.8451 13.988 10.9646 13.8662C11.084 13.7445 11.1435 13.61 11.1429 13.4629V1.68358ZM4.46457 12.1465H5.39314V3.58592H4.46457V12.1465ZM7.60686 12.1465H8.53543V3.58592H7.60686V12.1465Z" fill="#DE4444"/>
</svg>
