<svg width="12" height="12" viewBox="0 0 12 12" fill="#009774" xmlns="http://www.w3.org/2000/svg">
<path d="M11.0528 0.232472C10.8412 0.114682 10.6086 0.0397961 10.3682 0.0120909C10.1277 -0.0156143 9.8842 0.00440429 9.65149 0.0710034C9.41877 0.137603 9.20144 0.249477 9.01189 0.400238C8.82234 0.550999 8.66429 0.737693 8.54677 0.949656L5.12588 7.11725L3.16806 5.15584C2.99808 4.97952 2.79475 4.83889 2.56994 4.74214C2.34513 4.64539 2.10333 4.59447 1.85867 4.59234C1.614 4.59021 1.37136 4.63691 1.14491 4.72973C0.91845 4.82255 0.712714 4.95963 0.539702 5.13296C0.36669 5.30629 0.229867 5.5124 0.137216 5.73927C0.0445659 5.96614 -0.00205651 6.20922 6.95726e-05 6.45434C0.00219566 6.69945 0.0530277 6.94169 0.149599 7.16691C0.246171 7.39214 0.386549 7.59584 0.562541 7.76613L4.24785 11.4582C4.59612 11.808 5.06599 12 5.55061 12L5.80582 11.9815C6.08825 11.942 6.35766 11.8372 6.59284 11.6756C6.82801 11.514 7.02253 11.2999 7.16109 11.0502L11.7677 2.74307C11.8853 2.5312 11.9601 2.29819 11.9879 2.05735C12.0156 1.81651 11.9957 1.57256 11.9293 1.33942C11.8629 1.10629 11.7513 0.888541 11.6009 0.698609C11.4505 0.508678 11.2643 0.350284 11.0528 0.232472Z" />
</svg>
