<svg width="23" height="23" viewBox="0 0 23 23" fill="none" xmlns="http://www.w3.org/2000/svg">
<path d="M11.49 0C17.8423 0 22.98 5.09743 22.98 11.4C22.98 17.7026 17.8423 22.8 11.49 22.8C5.13767 22.8 0 17.7026 0 11.4C0 5.09743 5.13767 0 11.49 0ZM9.38897 17.4094C14.4774 17.4094 17.2678 13.224 17.2678 9.59229V9.234C17.8095 8.84314 18.2855 8.35457 18.6466 7.80086C18.1542 8.01257 17.6125 8.15914 17.0544 8.24057C17.6289 7.89857 18.0721 7.36114 18.2691 6.726C17.7274 7.03543 17.1365 7.26343 16.5128 7.39371C16.0039 6.85629 15.2817 6.53057 14.4938 6.53057C12.9673 6.53057 11.7198 7.76829 11.7198 9.28286C11.7198 9.49457 11.7362 9.70629 11.8019 9.90171C9.50387 9.78771 7.45209 8.69657 6.0897 7.03543C5.8599 7.44257 5.71217 7.91486 5.71217 8.41971C5.71217 9.36429 6.2046 10.2111 6.94324 10.6997C6.48364 10.6997 6.05687 10.5694 5.69576 10.3577V10.3903C5.69576 11.7257 6.64779 12.8331 7.91169 13.0937C7.68189 13.1589 7.43567 13.1914 7.18946 13.1914C7.0089 13.1914 6.84476 13.1751 6.6642 13.1426C7.0089 14.2337 8.043 15.0317 9.24124 15.048C8.28921 15.7809 7.09097 16.2206 5.79424 16.2206C5.56444 16.2206 5.35106 16.2206 5.13767 16.188C6.35233 16.9697 7.8132 17.4257 9.37256 17.4257" fill="black"/>
</svg>
