<svg width="36" height="31" viewBox="0 0 36 31" fill="white" xmlns="http://www.w3.org/2000/svg">
<path fill-rule="evenodd" clip-rule="evenodd" d="M3.00382 2.59918C4.80761 0.932734 7.37641 0 10.4096 0H25.864C28.9042 0 31.4741 0.932213 33.2772 2.59962C35.0698 4.25749 36.0019 6.54602 36.0019 9.11383V21.6528C36.0019 24.2206 35.0698 26.5092 33.2768 28.1671C31.4735 29.8345 28.9031 30.7666 25.8621 30.7666H10.4096C7.36928 30.7666 4.79973 29.8343 2.99719 28.1669C1.20498 26.509 0.273438 24.2204 0.273438 21.6528V9.11383C0.273438 6.54471 1.21002 4.25638 3.00382 2.59918ZM5.01423 4.21285C3.77343 5.35917 3.02178 7.03611 3.02178 9.11383V21.6528C3.02178 23.732 3.77044 25.4087 5.00884 26.5543C6.23687 27.6904 8.04832 28.4 10.4096 28.4H25.8621C28.2244 28.4 30.0369 27.6903 31.2656 26.5541C32.5045 25.4085 33.2535 23.7318 33.2535 21.6528V9.11383C33.2535 7.0348 32.5045 5.35808 31.2657 4.21241C30.0372 3.07627 28.2252 2.36666 25.864 2.36666H10.4096C8.05725 2.36666 6.24505 3.07576 5.01423 4.21285Z" />
<path fill-rule="evenodd" clip-rule="evenodd" d="M13.1889 21.3737C12.3115 22.059 11.9671 22.9226 11.9671 23.6733C11.9671 24.3269 11.3518 24.8567 10.5929 24.8567C9.83399 24.8567 9.21875 24.3269 9.21875 23.6733C9.21875 22.3056 9.8486 20.7874 11.3426 19.6207C12.8405 18.4508 15.0843 17.7266 18.1302 17.7266C21.1791 17.7266 23.4254 18.4426 24.9261 19.6052C26.4247 20.7661 27.0559 22.2797 27.0559 23.6487C27.0559 24.3024 26.4407 24.8321 25.6817 24.8321C24.9228 24.8321 24.3076 24.3024 24.3076 23.6487C24.3076 22.8994 23.9644 22.0435 23.088 21.3646C22.2139 20.6874 20.6844 20.0932 18.1302 20.0932C15.5873 20.0932 14.0625 20.6915 13.1889 21.3737Z" />
<path fill-rule="evenodd" clip-rule="evenodd" d="M18.1363 8.26901C16.2352 8.26901 14.6936 9.59547 14.6936 11.2336C14.6936 12.8704 16.2354 14.1981 18.1363 14.1981C20.0373 14.1981 21.5791 12.8704 21.5791 11.2336C21.5791 9.59547 20.0375 8.26901 18.1363 8.26901ZM11.9453 11.2336C11.9453 8.28783 14.718 5.90234 18.1363 5.90234C21.5547 5.90234 24.3274 8.28783 24.3274 11.2336C24.3274 14.1775 21.5551 16.5648 18.1363 16.5648C14.7176 16.5648 11.9453 14.1775 11.9453 11.2336Z" />
</svg>
