
<svg width="16" height="12" viewBox="0 0 15 12" fill="none" stroke="#566A7F" xmlns="http://www.w3.org/2000/svg">
<path d="M9.97231 10.6367C9.70814 9.96968 9.12466 9.38053 8.31359 8.96023C7.50251 8.53993 6.50856 8.31201 5.48615 8.31201C4.46375 8.31201 3.46979 8.53993 2.65872 8.96023C1.84765 9.38053 1.26416 9.96968 1 10.6367"  stroke-width="0.8" stroke-linecap="round"/>
<path d="M15.5799 11.2179C15.3157 10.5509 14.7323 9.38053 13.9212 8.96023C13.1101 8.53993 12.1162 8.31201 11.0938 8.31201"  stroke-width="0.8" stroke-linecap="round"/>
<path d="M5.48526 5.9873C6.72408 5.9873 7.72834 4.9465 7.72834 3.6626C7.72834 2.3787 6.72408 1.33789 5.48526 1.33789C4.24645 1.33789 3.24219 2.3787 3.24219 3.6626C3.24219 4.9465 4.24645 5.9873 5.48526 5.9873Z"  stroke-width="0.8" stroke-linecap="round"/>
<path d="M11.0938 5.9873C12.3326 5.9873 13.3368 4.9465 13.3368 3.6626C13.3368 2.3787 12.3326 1.33789 11.0938 1.33789"  stroke-width="0.8" stroke-linecap="round"/>
</svg>