<svg width="16" height="14" viewBox="0 0 16 14" fill="#566A7F" xmlns="http://www.w3.org/2000/svg">
<path d="M15 2.66667H1.66667C1.40145 2.66667 1.1471 2.56131 0.95956 2.37377C0.772023 2.18624 0.666667 1.93188 0.666667 1.66667C0.666667 1.40145 0.772023 1.1471 0.95956 0.95956C1.1471 0.772023 1.40145 0.666667 1.66667 0.666667H13C13.0884 0.666667 13.1732 0.631548 13.2357 0.569036C13.2982 0.506523 13.3333 0.421739 13.3333 0.333333C13.3333 0.244928 13.2982 0.160143 13.2357 0.0976311C13.1732 0.035119 13.0884 0 13 0H1.66667C1.22464 0 0.800716 0.175595 0.488155 0.488155C0.175595 0.800716 0 1.22464 0 1.66667V12.3333C0 12.7754 0.175595 13.1993 0.488155 13.5118C0.800716 13.8244 1.22464 14 1.66667 14H15C15.2652 14 15.5196 13.8946 15.7071 13.7071C15.8946 13.5196 16 13.2652 16 13V3.66667C16 3.40145 15.8946 3.1471 15.7071 2.95956C15.5196 2.77202 15.2652 2.66667 15 2.66667ZM15.3333 13C15.3333 13.0884 15.2982 13.1732 15.2357 13.2357C15.1732 13.2982 15.0884 13.3333 15 13.3333H1.66667C1.40145 13.3333 1.1471 13.228 0.95956 13.0404C0.772023 12.8529 0.666667 12.5985 0.666667 12.3333V3C0.954761 3.21713 1.30591 3.33418 1.66667 3.33333H15C15.0884 3.33333 15.1732 3.36845 15.2357 3.43096C15.2982 3.49348 15.3333 3.57826 15.3333 3.66667V13ZM12.6667 8C12.6667 8.13185 12.6276 8.26075 12.5543 8.37038C12.4811 8.48001 12.3769 8.56546 12.2551 8.61592C12.1333 8.66638 11.9993 8.67958 11.8699 8.65386C11.7406 8.62813 11.6218 8.56464 11.5286 8.47141C11.4354 8.37817 11.3719 8.25938 11.3461 8.13006C11.3204 8.00074 11.3336 7.8667 11.3841 7.74488C11.4345 7.62306 11.52 7.51894 11.6296 7.44569C11.7393 7.37243 11.8681 7.33333 12 7.33333C12.1768 7.33333 12.3464 7.40357 12.4714 7.5286C12.5964 7.65362 12.6667 7.82319 12.6667 8Z" />
</svg>
