<svg width="23" height="23" viewBox="0 0 23 23" fill="none" xmlns="http://www.w3.org/2000/svg">
<path fill-rule="evenodd" clip-rule="evenodd" d="M16.5469 15.9582L16.3681 16.1262C15.6672 16.8186 14.8202 17.1606 13.8765 17.1606C12.296 17.1606 10.4448 16.2054 8.56104 14.3406C5.56921 11.3694 4.86717 8.37176 6.72679 6.51776L6.88025 6.36416C7.39379 5.85296 8.10913 5.59376 8.81479 5.65976C9.53736 5.72216 10.1899 6.09416 10.6067 6.68216C10.7832 6.93536 10.9668 7.19576 11.1626 7.46696C11.7716 8.34296 11.7438 9.48421 11.1372 10.311C11.571 10.8978 11.9746 11.331 12.5497 11.745C13.3859 11.1246 14.5399 11.0982 15.4183 11.7054L15.5379 11.7858C15.7784 11.9514 16.008 12.1074 16.2279 12.2658C16.8091 12.6666 17.1849 13.3122 17.2502 14.0274C17.3154 14.745 17.058 15.4482 16.5469 15.9582ZM22.7529 9.22501C21.8926 4.68056 18.2386 1.05296 13.6626 0.200964C10.2636 -0.433836 6.80654 0.451764 4.16996 2.62376C1.51888 4.80776 0 8.00576 0 11.3994C0 13.1058 0.3915 14.8014 1.16242 16.4346C1.22525 16.5762 1.24458 16.719 1.21558 16.851C1.02708 17.7018 0.631959 19.4142 0.346792 20.6382C0.227167 21.1554 0.38425 21.6834 0.763667 22.0494C1.13946 22.4118 1.67113 22.5546 2.17863 22.4214C3.32775 22.1334 4.90221 21.7506 5.89062 21.5214C6.01992 21.4914 6.1625 21.5094 6.31113 21.5826C7.90492 22.3794 9.69203 22.7994 11.4792 22.7994C14.8939 22.7994 18.1129 21.291 20.3097 18.6618C22.5004 16.0422 23.3897 12.6018 22.7529 9.22501Z" fill="black"/>
</svg>
