<svg width="23" height="17" viewBox="0 0 23 17" fill="none" xmlns="http://www.w3.org/2000/svg">
<path d="M22.4998 2.53788C22.2355 1.53891 21.4568 0.75216 20.4681 0.485164C18.6761 0 11.49 0 11.49 0C11.49 0 4.30399 0 2.51186 0.485164C1.52317 0.752202 0.744479 1.53891 0.480189 2.53788C0 4.34856 0 8.12639 0 8.12639C0 8.12639 0 11.9042 0.480189 13.7149C0.744479 14.7139 1.52317 15.4678 2.51186 15.7348C4.30399 16.22 11.49 16.22 11.49 16.22C11.49 16.22 18.676 16.22 20.4681 15.7348C21.4568 15.4678 22.2355 14.7139 22.4998 13.7149C22.98 11.9042 22.98 8.12639 22.98 8.12639C22.98 8.12639 22.98 4.34856 22.4998 2.53788ZM9.13976 11.5564V4.69641L15.1459 8.12647L9.13976 11.5564Z" fill="black"/>
</svg>
